<svg width="64" height="64" viewBox="0 0 64 64" fill="none" xmlns="http://www.w3.org/2000/svg">
<g filter="url(#filter0_f_4_34535)">
<path d="M17.0645 47.7391C16.1355 43.913 13.9677 42.3188 13 42H49C47.4516 43.7536 45.5161 46.2087 45.5161 47.7391C45.5161 49.2696 45.9032 51.8841 46.6774 53H15.9032C16.6774 52.8406 17.9935 51.5652 17.0645 47.7391Z" fill="url(#paint0_linear_4_34535)"/>
</g>
<g filter="url(#filter1_d_4_34535)">
<path fill-rule="evenodd" clip-rule="evenodd" d="M49 25.5121C49 25.5081 49 25.504 49 25.5C49 18.5964 43.4036 13 36.5 13C31.1094 13 26.5158 16.4122 24.7613 21.1945C24.1946 21.0672 23.6051 21 23 21C18.5817 21 15 24.5817 15 29C15 29.0236 15.0001 29.0473 15.0003 29.0708C11.6079 29.5559 9 32.4734 9 36C9 39.866 12.134 43 16 43H46C50.9706 43 55 38.9706 55 34C55 30.0813 52.4956 26.7476 49 25.5121Z" fill="#64748B"/>
</g>
<g filter="url(#filter2_ii_4_34535)">
<path fill-rule="evenodd" clip-rule="evenodd" d="M55 34C55 38.9706 50.9706 43 46 43H16C12.134 43 9 39.866 9 36C9 32.134 12.134 29 16 29C18.7924 29 21.2029 30.6351 22.3264 33H37.0549C37.5524 28.5 41.3674 25 46 25C50.9706 25 55 29.0294 55 34Z" fill="#F1F5F9"/>
</g>
<g filter="url(#filter3_f_4_34535)">
<circle cx="16" cy="36" r="5" fill="url(#paint1_linear_4_34535)" style="mix-blend-mode:soft-light"/>
</g>
<g filter="url(#filter4_i_4_34535)">
<circle cx="23" cy="29" r="8" fill="#F1F5F9"/>
</g>
<g filter="url(#filter5_f_4_34535)">
<ellipse cx="23" cy="28" rx="6" ry="5" fill="url(#paint2_linear_4_34535)" style="mix-blend-mode:soft-light"/>
</g>
<g filter="url(#filter6_f_4_34535)">
<circle cx="47" cy="33" r="5" fill="url(#paint3_linear_4_34535)" style="mix-blend-mode:soft-light"/>
</g>
<g filter="url(#filter7_i_4_34535)">
<circle cx="36.5" cy="25.5" r="12.5" fill="#F1F5F9"/>
</g>
<g filter="url(#filter8_f_4_34535)">
<ellipse cx="36" cy="20" rx="7" ry="5" fill="url(#paint4_linear_4_34535)" style="mix-blend-mode:soft-light"/>
</g>
<g filter="url(#filter9_i_4_34535)">
<ellipse cx="32" cy="33.5" rx="9" ry="6.5" fill="url(#paint5_linear_4_34535)"/>
</g>
<g filter="url(#filter10_f_4_34535)">
<ellipse cx="32" cy="33.5" rx="7" ry="4.5" fill="url(#paint6_linear_4_34535)" style="mix-blend-mode:soft-light"/>
</g>
<path fill-rule="evenodd" clip-rule="evenodd" d="M49 25.5121C49 25.5081 49 25.504 49 25.5C49 18.5964 43.4036 13 36.5 13C31.1094 13 26.5158 16.4122 24.7613 21.1945C24.1946 21.0672 23.6051 21 23 21C18.5817 21 15 24.5817 15 29C15 29.0236 15.0001 29.0473 15.0003 29.0708C11.6079 29.5559 9 32.4734 9 36C9 39.866 12.134 43 16 43H46C50.9706 43 55 38.9706 55 34C55 30.0813 52.4956 26.7476 49 25.5121Z" fill="#93C5FD" style="mix-blend-mode:color"/>
<path fill-rule="evenodd" clip-rule="evenodd" d="M49 25.5121C49 25.5081 49 25.504 49 25.5C49 18.5964 43.4036 13 36.5 13C31.1094 13 26.5158 16.4122 24.7613 21.1945C24.1946 21.0672 23.6051 21 23 21C18.5817 21 15 24.5817 15 29C15 29.0236 15.0001 29.0473 15.0003 29.0708C11.6079 29.5559 9 32.4734 9 36C9 39.866 12.134 43 16 43H46C50.9706 43 55 38.9706 55 34C55 30.0813 52.4956 26.7476 49 25.5121Z" fill="#93C5FD" fill-opacity="0.2" style="mix-blend-mode:multiply"/>
<g filter="url(#filter11_dii_4_34535)">
<path fill-rule="evenodd" clip-rule="evenodd" d="M20.0313 47V48.768L21.5624 47.884C22.0407 47.6079 22.6522 47.7718 22.9284 48.2501C23.2045 48.7284 23.0407 49.3399 22.5624 49.6161L22.561 49.6169L21.0313 50.5001L22.5612 51.3833C22.5616 51.3836 22.562 51.3838 22.5624 51.384C23.0407 51.6602 23.2045 52.2718 22.9284 52.7501C22.6522 53.2284 22.0407 53.3922 21.5624 53.1161L20.0313 52.2321V54C20.0313 54.5523 19.5836 55 19.0313 55C18.479 55 18.0313 54.5523 18.0313 54V52.2321L16.5002 53.1161L16.5002 53.1161L16.5002 53.1161C16.0219 53.3922 15.4103 53.2284 15.1341 52.7501C14.858 52.2718 15.0219 51.6602 15.5002 51.384L15.5035 51.3821L17.0313 50.5001L15.5036 49.6181C15.5025 49.6174 15.5013 49.6167 15.5002 49.6161C15.0219 49.3399 14.858 48.7284 15.1341 48.2501C15.4103 47.7718 16.0219 47.6079 16.5002 47.884C16.5002 47.884 16.5002 47.884 16.5002 47.884L16.5002 47.884L18.0313 48.768V47C18.0313 46.4477 18.479 46 19.0313 46C19.5836 46 20.0313 46.4477 20.0313 47Z" fill="#E2E8F0"/>
</g>
<g style="mix-blend-mode:color">
<path fill-rule="evenodd" clip-rule="evenodd" d="M20.0313 47V48.768L21.5624 47.884C22.0407 47.6079 22.6522 47.7718 22.9284 48.2501C23.2045 48.7284 23.0407 49.3399 22.5624 49.6161L22.561 49.6169L21.0313 50.5001L22.5612 51.3833C22.5616 51.3836 22.562 51.3838 22.5624 51.384C23.0407 51.6602 23.2045 52.2718 22.9284 52.7501C22.6522 53.2284 22.0407 53.3922 21.5624 53.1161L20.0313 52.2321V54C20.0313 54.5523 19.5836 55 19.0313 55C18.479 55 18.0313 54.5523 18.0313 54V52.2321L16.5002 53.1161L16.5002 53.1161L16.5002 53.1161C16.0219 53.3922 15.4103 53.2284 15.1341 52.7501C14.858 52.2718 15.0219 51.6602 15.5002 51.384L15.5035 51.3821L17.0313 50.5001L15.5036 49.6181C15.5025 49.6174 15.5013 49.6167 15.5002 49.6161C15.0219 49.3399 14.858 48.7284 15.1341 48.2501C15.4103 47.7718 16.0219 47.6079 16.5002 47.884C16.5002 47.884 16.5002 47.884 16.5002 47.884L16.5002 47.884L18.0313 48.768V47C18.0313 46.4477 18.479 46 19.0313 46C19.5836 46 20.0313 46.4477 20.0313 47Z" fill="#BFDBFE"/>
</g>
<circle cx="19.0342" cy="47.05" r="0.75" fill="url(#paint7_linear_4_34535)"/>
<circle cx="16.0342" cy="48.75" r="0.75" fill="url(#paint8_linear_4_34535)"/>
<circle cx="16.0342" cy="52.25" r="0.75" fill="url(#paint9_linear_4_34535)"/>
<circle cx="22.0342" cy="48.75" r="0.75" fill="url(#paint10_linear_4_34535)"/>
<circle cx="22.0342" cy="52.25" r="0.75" fill="url(#paint11_linear_4_34535)"/>
<g filter="url(#filter12_dii_4_34535)">
<path fill-rule="evenodd" clip-rule="evenodd" d="M30.0313 47V48.768L31.5624 47.884C32.0407 47.6079 32.6522 47.7718 32.9284 48.2501C33.2045 48.7284 33.0407 49.3399 32.5624 49.6161L32.561 49.6169L31.0313 50.5001L32.5612 51.3833C32.5616 51.3836 32.562 51.3838 32.5624 51.384C33.0407 51.6602 33.2045 52.2718 32.9284 52.7501C32.6522 53.2284 32.0407 53.3922 31.5624 53.1161L30.0313 52.2321V54C30.0313 54.5523 29.5836 55 29.0313 55C28.479 55 28.0313 54.5523 28.0313 54V52.2321L26.5002 53.1161L26.5002 53.1161L26.5002 53.1161C26.0219 53.3922 25.4103 53.2284 25.1341 52.7501C24.858 52.2718 25.0219 51.6602 25.5002 51.384L25.5035 51.3821L27.0313 50.5001L25.5036 49.6181C25.5025 49.6174 25.5013 49.6167 25.5002 49.6161C25.0219 49.3399 24.858 48.7284 25.1341 48.2501C25.4103 47.7718 26.0219 47.6079 26.5002 47.884C26.5002 47.884 26.5002 47.884 26.5002 47.884L26.5002 47.884L28.0313 48.768V47C28.0313 46.4477 28.479 46 29.0313 46C29.5836 46 30.0313 46.4477 30.0313 47Z" fill="#E2E8F0"/>
</g>
<g style="mix-blend-mode:color">
<path fill-rule="evenodd" clip-rule="evenodd" d="M30.0313 47V48.768L31.5624 47.884C32.0407 47.6079 32.6522 47.7718 32.9284 48.2501C33.2045 48.7284 33.0407 49.3399 32.5624 49.6161L32.561 49.6169L31.0313 50.5001L32.5612 51.3833C32.5616 51.3836 32.562 51.3838 32.5624 51.384C33.0407 51.6602 33.2045 52.2718 32.9284 52.7501C32.6522 53.2284 32.0407 53.3922 31.5624 53.1161L30.0313 52.2321V54C30.0313 54.5523 29.5836 55 29.0313 55C28.479 55 28.0313 54.5523 28.0313 54V52.2321L26.5002 53.1161L26.5002 53.1161L26.5002 53.1161C26.0219 53.3922 25.4103 53.2284 25.1341 52.7501C24.858 52.2718 25.0219 51.6602 25.5002 51.384L25.5035 51.3821L27.0313 50.5001L25.5036 49.6181C25.5025 49.6174 25.5013 49.6167 25.5002 49.6161C25.0219 49.3399 24.858 48.7284 25.1341 48.2501C25.4103 47.7718 26.0219 47.6079 26.5002 47.884C26.5002 47.884 26.5002 47.884 26.5002 47.884L26.5002 47.884L28.0313 48.768V47C28.0313 46.4477 28.479 46 29.0313 46C29.5836 46 30.0313 46.4477 30.0313 47Z" fill="#BFDBFE"/>
</g>
<circle cx="29.0342" cy="47.05" r="0.75" fill="url(#paint12_linear_4_34535)"/>
<circle cx="26.0342" cy="48.75" r="0.75" fill="url(#paint13_linear_4_34535)"/>
<circle cx="26.0342" cy="52.25" r="0.75" fill="url(#paint14_linear_4_34535)"/>
<circle cx="32.0342" cy="48.75" r="0.75" fill="url(#paint15_linear_4_34535)"/>
<circle cx="32.0342" cy="52.25" r="0.75" fill="url(#paint16_linear_4_34535)"/>
<g clip-path="url(#clip0_4_34535)">
<g filter="url(#filter13_df_4_34535)">
<path d="M18 53L23.4028 51.0931C25.3873 50.3927 27.5677 50.5024 29.4718 51.3985L31.5936 52.397C33.7511 53.4123 36.2489 53.4123 38.4064 52.397L40.5282 51.3985C42.4323 50.5024 44.6127 50.3927 46.5972 51.0931L52 53" stroke="#F1F5F9" stroke-width="2" stroke-linecap="round"/>
</g>
<g filter="url(#filter14_df_4_34535)">
<path d="M18 48L23.4028 46.0931C25.3873 45.3927 27.5677 45.5024 29.4718 46.3985L31.5936 47.397C33.7511 48.4123 36.2489 48.4123 38.4064 47.397L40.5282 46.3985C42.4323 45.5024 44.6127 45.3927 46.5972 46.0931L52 48" stroke="#F1F5F9" stroke-width="2" stroke-linecap="round"/>
</g>
</g>
<defs>
<filter id="filter0_f_4_34535" x="11" y="40" width="40" height="15" filterUnits="userSpaceOnUse" color-interpolation-filters="sRGB">
<feFlood flood-opacity="0" result="BackgroundImageFix"/>
<feBlend mode="normal" in="SourceGraphic" in2="BackgroundImageFix" result="shape"/>
<feGaussianBlur stdDeviation="1" result="effect1_foregroundBlur_4_34535"/>
</filter>
<filter id="filter1_d_4_34535" x="5" y="11" width="54" height="38" filterUnits="userSpaceOnUse" color-interpolation-filters="sRGB">
<feFlood flood-opacity="0" result="BackgroundImageFix"/>
<feColorMatrix in="SourceAlpha" type="matrix" values="0 0 0 0 0 0 0 0 0 0 0 0 0 0 0 0 0 0 127 0" result="hardAlpha"/>
<feOffset dy="2"/>
<feGaussianBlur stdDeviation="2"/>
<feComposite in2="hardAlpha" operator="out"/>
<feColorMatrix type="matrix" values="0 0 0 0 0.278431 0 0 0 0 0.333333 0 0 0 0 0.411765 0 0 0 0.4 0"/>
<feBlend mode="normal" in2="BackgroundImageFix" result="effect1_dropShadow_4_34535"/>
<feBlend mode="normal" in="SourceGraphic" in2="effect1_dropShadow_4_34535" result="shape"/>
</filter>
<filter id="filter2_ii_4_34535" x="9" y="23" width="46" height="22" filterUnits="userSpaceOnUse" color-interpolation-filters="sRGB">
<feFlood flood-opacity="0" result="BackgroundImageFix"/>
<feBlend mode="normal" in="SourceGraphic" in2="BackgroundImageFix" result="shape"/>
<feColorMatrix in="SourceAlpha" type="matrix" values="0 0 0 0 0 0 0 0 0 0 0 0 0 0 0 0 0 0 127 0" result="hardAlpha"/>
<feOffset dy="2"/>
<feGaussianBlur stdDeviation="1"/>
<feComposite in2="hardAlpha" operator="arithmetic" k2="-1" k3="1"/>
<feColorMatrix type="matrix" values="0 0 0 0 0.796078 0 0 0 0 0.835294 0 0 0 0 0.882353 0 0 0 1 0"/>
<feBlend mode="normal" in2="shape" result="effect1_innerShadow_4_34535"/>
<feColorMatrix in="SourceAlpha" type="matrix" values="0 0 0 0 0 0 0 0 0 0 0 0 0 0 0 0 0 0 127 0" result="hardAlpha"/>
<feOffset dy="-2"/>
<feGaussianBlur stdDeviation="1"/>
<feComposite in2="hardAlpha" operator="arithmetic" k2="-1" k3="1"/>
<feColorMatrix type="matrix" values="0 0 0 0 0.796078 0 0 0 0 0.835294 0 0 0 0 0.882353 0 0 0 0.6 0"/>
<feBlend mode="normal" in2="effect1_innerShadow_4_34535" result="effect2_innerShadow_4_34535"/>
</filter>
<filter id="filter3_f_4_34535" x="9" y="29" width="14" height="14" filterUnits="userSpaceOnUse" color-interpolation-filters="sRGB">
<feFlood flood-opacity="0" result="BackgroundImageFix"/>
<feBlend mode="normal" in="SourceGraphic" in2="BackgroundImageFix" result="shape"/>
<feGaussianBlur stdDeviation="1" result="effect1_foregroundBlur_4_34535"/>
</filter>
<filter id="filter4_i_4_34535" x="15" y="21" width="16" height="18" filterUnits="userSpaceOnUse" color-interpolation-filters="sRGB">
<feFlood flood-opacity="0" result="BackgroundImageFix"/>
<feBlend mode="normal" in="SourceGraphic" in2="BackgroundImageFix" result="shape"/>
<feColorMatrix in="SourceAlpha" type="matrix" values="0 0 0 0 0 0 0 0 0 0 0 0 0 0 0 0 0 0 127 0" result="hardAlpha"/>
<feOffset dy="2"/>
<feGaussianBlur stdDeviation="1"/>
<feComposite in2="hardAlpha" operator="arithmetic" k2="-1" k3="1"/>
<feColorMatrix type="matrix" values="0 0 0 0 0.796078 0 0 0 0 0.835294 0 0 0 0 0.882353 0 0 0 1 0"/>
<feBlend mode="normal" in2="shape" result="effect1_innerShadow_4_34535"/>
</filter>
<filter id="filter5_f_4_34535" x="15" y="21" width="16" height="14" filterUnits="userSpaceOnUse" color-interpolation-filters="sRGB">
<feFlood flood-opacity="0" result="BackgroundImageFix"/>
<feBlend mode="normal" in="SourceGraphic" in2="BackgroundImageFix" result="shape"/>
<feGaussianBlur stdDeviation="1" result="effect1_foregroundBlur_4_34535"/>
</filter>
<filter id="filter6_f_4_34535" x="40" y="26" width="14" height="14" filterUnits="userSpaceOnUse" color-interpolation-filters="sRGB">
<feFlood flood-opacity="0" result="BackgroundImageFix"/>
<feBlend mode="normal" in="SourceGraphic" in2="BackgroundImageFix" result="shape"/>
<feGaussianBlur stdDeviation="1" result="effect1_foregroundBlur_4_34535"/>
</filter>
<filter id="filter7_i_4_34535" x="24" y="13" width="25" height="27" filterUnits="userSpaceOnUse" color-interpolation-filters="sRGB">
<feFlood flood-opacity="0" result="BackgroundImageFix"/>
<feBlend mode="normal" in="SourceGraphic" in2="BackgroundImageFix" result="shape"/>
<feColorMatrix in="SourceAlpha" type="matrix" values="0 0 0 0 0 0 0 0 0 0 0 0 0 0 0 0 0 0 127 0" result="hardAlpha"/>
<feOffset dy="2"/>
<feGaussianBlur stdDeviation="1"/>
<feComposite in2="hardAlpha" operator="arithmetic" k2="-1" k3="1"/>
<feColorMatrix type="matrix" values="0 0 0 0 0.796078 0 0 0 0 0.835294 0 0 0 0 0.882353 0 0 0 1 0"/>
<feBlend mode="normal" in2="shape" result="effect1_innerShadow_4_34535"/>
</filter>
<filter id="filter8_f_4_34535" x="27" y="13" width="18" height="14" filterUnits="userSpaceOnUse" color-interpolation-filters="sRGB">
<feFlood flood-opacity="0" result="BackgroundImageFix"/>
<feBlend mode="normal" in="SourceGraphic" in2="BackgroundImageFix" result="shape"/>
<feGaussianBlur stdDeviation="1" result="effect1_foregroundBlur_4_34535"/>
</filter>
<filter id="filter9_i_4_34535" x="23" y="27" width="18" height="15" filterUnits="userSpaceOnUse" color-interpolation-filters="sRGB">
<feFlood flood-opacity="0" result="BackgroundImageFix"/>
<feBlend mode="normal" in="SourceGraphic" in2="BackgroundImageFix" result="shape"/>
<feColorMatrix in="SourceAlpha" type="matrix" values="0 0 0 0 0 0 0 0 0 0 0 0 0 0 0 0 0 0 127 0" result="hardAlpha"/>
<feOffset dy="2"/>
<feGaussianBlur stdDeviation="1"/>
<feComposite in2="hardAlpha" operator="arithmetic" k2="-1" k3="1"/>
<feColorMatrix type="matrix" values="0 0 0 0 0.796078 0 0 0 0 0.835294 0 0 0 0 0.882353 0 0 0 0.6 0"/>
<feBlend mode="normal" in2="shape" result="effect1_innerShadow_4_34535"/>
</filter>
<filter id="filter10_f_4_34535" x="23" y="27" width="18" height="13" filterUnits="userSpaceOnUse" color-interpolation-filters="sRGB">
<feFlood flood-opacity="0" result="BackgroundImageFix"/>
<feBlend mode="normal" in="SourceGraphic" in2="BackgroundImageFix" result="shape"/>
<feGaussianBlur stdDeviation="1" result="effect1_foregroundBlur_4_34535"/>
</filter>
<filter id="filter11_dii_4_34535" x="12" y="44" width="14.0625" height="15" filterUnits="userSpaceOnUse" color-interpolation-filters="sRGB">
<feFlood flood-opacity="0" result="BackgroundImageFix"/>
<feColorMatrix in="SourceAlpha" type="matrix" values="0 0 0 0 0 0 0 0 0 0 0 0 0 0 0 0 0 0 127 0" result="hardAlpha"/>
<feOffset dy="1"/>
<feGaussianBlur stdDeviation="1.5"/>
<feComposite in2="hardAlpha" operator="out"/>
<feColorMatrix type="matrix" values="0 0 0 0 0.278431 0 0 0 0 0.333333 0 0 0 0 0.411765 0 0 0 0.3 0"/>
<feBlend mode="normal" in2="BackgroundImageFix" result="effect1_dropShadow_4_34535"/>
<feBlend mode="normal" in="SourceGraphic" in2="effect1_dropShadow_4_34535" result="shape"/>
<feColorMatrix in="SourceAlpha" type="matrix" values="0 0 0 0 0 0 0 0 0 0 0 0 0 0 0 0 0 0 127 0" result="hardAlpha"/>
<feOffset dy="0.5"/>
<feGaussianBlur stdDeviation="0.25"/>
<feComposite in2="hardAlpha" operator="arithmetic" k2="-1" k3="1"/>
<feColorMatrix type="matrix" values="0 0 0 0 0.580392 0 0 0 0 0.639216 0 0 0 0 0.721569 0 0 0 1 0"/>
<feBlend mode="normal" in2="shape" result="effect2_innerShadow_4_34535"/>
<feColorMatrix in="SourceAlpha" type="matrix" values="0 0 0 0 0 0 0 0 0 0 0 0 0 0 0 0 0 0 127 0" result="hardAlpha"/>
<feOffset dy="-0.5"/>
<feGaussianBlur stdDeviation="0.25"/>
<feComposite in2="hardAlpha" operator="arithmetic" k2="-1" k3="1"/>
<feColorMatrix type="matrix" values="0 0 0 0 0.580392 0 0 0 0 0.639216 0 0 0 0 0.721569 0 0 0 1 0"/>
<feBlend mode="normal" in2="effect2_innerShadow_4_34535" result="effect3_innerShadow_4_34535"/>
</filter>
<filter id="filter12_dii_4_34535" x="22" y="44" width="14.0625" height="15" filterUnits="userSpaceOnUse" color-interpolation-filters="sRGB">
<feFlood flood-opacity="0" result="BackgroundImageFix"/>
<feColorMatrix in="SourceAlpha" type="matrix" values="0 0 0 0 0 0 0 0 0 0 0 0 0 0 0 0 0 0 127 0" result="hardAlpha"/>
<feOffset dy="1"/>
<feGaussianBlur stdDeviation="1.5"/>
<feComposite in2="hardAlpha" operator="out"/>
<feColorMatrix type="matrix" values="0 0 0 0 0.278431 0 0 0 0 0.333333 0 0 0 0 0.411765 0 0 0 0.3 0"/>
<feBlend mode="normal" in2="BackgroundImageFix" result="effect1_dropShadow_4_34535"/>
<feBlend mode="normal" in="SourceGraphic" in2="effect1_dropShadow_4_34535" result="shape"/>
<feColorMatrix in="SourceAlpha" type="matrix" values="0 0 0 0 0 0 0 0 0 0 0 0 0 0 0 0 0 0 127 0" result="hardAlpha"/>
<feOffset dy="0.5"/>
<feGaussianBlur stdDeviation="0.25"/>
<feComposite in2="hardAlpha" operator="arithmetic" k2="-1" k3="1"/>
<feColorMatrix type="matrix" values="0 0 0 0 0.580392 0 0 0 0 0.639216 0 0 0 0 0.721569 0 0 0 1 0"/>
<feBlend mode="normal" in2="shape" result="effect2_innerShadow_4_34535"/>
<feColorMatrix in="SourceAlpha" type="matrix" values="0 0 0 0 0 0 0 0 0 0 0 0 0 0 0 0 0 0 127 0" result="hardAlpha"/>
<feOffset dy="-0.5"/>
<feGaussianBlur stdDeviation="0.25"/>
<feComposite in2="hardAlpha" operator="arithmetic" k2="-1" k3="1"/>
<feColorMatrix type="matrix" values="0 0 0 0 0.580392 0 0 0 0 0.639216 0 0 0 0 0.721569 0 0 0 1 0"/>
<feBlend mode="normal" in2="effect2_innerShadow_4_34535" result="effect3_innerShadow_4_34535"/>
</filter>
<filter id="filter13_df_4_34535" x="12.9997" y="45.637" width="44.0005" height="12.5214" filterUnits="userSpaceOnUse" color-interpolation-filters="sRGB">
<feFlood flood-opacity="0" result="BackgroundImageFix"/>
<feColorMatrix in="SourceAlpha" type="matrix" values="0 0 0 0 0 0 0 0 0 0 0 0 0 0 0 0 0 0 127 0" result="hardAlpha"/>
<feOffset/>
<feGaussianBlur stdDeviation="2"/>
<feComposite in2="hardAlpha" operator="out"/>
<feColorMatrix type="matrix" values="0 0 0 0 0.580392 0 0 0 0 0.639216 0 0 0 0 0.721569 0 0 0 1 0"/>
<feBlend mode="normal" in2="BackgroundImageFix" result="effect1_dropShadow_4_34535"/>
<feBlend mode="normal" in="SourceGraphic" in2="effect1_dropShadow_4_34535" result="shape"/>
<feGaussianBlur stdDeviation="0.5" result="effect2_foregroundBlur_4_34535"/>
</filter>
<filter id="filter14_df_4_34535" x="12.9997" y="40.637" width="44.0005" height="12.5214" filterUnits="userSpaceOnUse" color-interpolation-filters="sRGB">
<feFlood flood-opacity="0" result="BackgroundImageFix"/>
<feColorMatrix in="SourceAlpha" type="matrix" values="0 0 0 0 0 0 0 0 0 0 0 0 0 0 0 0 0 0 127 0" result="hardAlpha"/>
<feOffset/>
<feGaussianBlur stdDeviation="2"/>
<feComposite in2="hardAlpha" operator="out"/>
<feColorMatrix type="matrix" values="0 0 0 0 0.580392 0 0 0 0 0.639216 0 0 0 0 0.721569 0 0 0 1 0"/>
<feBlend mode="normal" in2="BackgroundImageFix" result="effect1_dropShadow_4_34535"/>
<feBlend mode="normal" in="SourceGraphic" in2="effect1_dropShadow_4_34535" result="shape"/>
<feGaussianBlur stdDeviation="0.5" result="effect2_foregroundBlur_4_34535"/>
</filter>
<linearGradient id="paint0_linear_4_34535" x1="31" y1="42" x2="31" y2="53" gradientUnits="userSpaceOnUse">
<stop stop-color="#BAE6FD"/>
<stop offset="1" stop-color="#BAE6FD" stop-opacity="0"/>
</linearGradient>
<linearGradient id="paint1_linear_4_34535" x1="16" y1="31" x2="16" y2="41" gradientUnits="userSpaceOnUse">
<stop stop-color="white"/>
<stop offset="1" stop-color="#F3F3F3" stop-opacity="0.2"/>
</linearGradient>
<linearGradient id="paint2_linear_4_34535" x1="23" y1="23" x2="23" y2="33" gradientUnits="userSpaceOnUse">
<stop stop-color="white"/>
<stop offset="1" stop-color="#F3F3F3" stop-opacity="0.2"/>
</linearGradient>
<linearGradient id="paint3_linear_4_34535" x1="47" y1="28" x2="47" y2="38" gradientUnits="userSpaceOnUse">
<stop stop-color="white"/>
<stop offset="1" stop-color="#F3F3F3" stop-opacity="0.2"/>
</linearGradient>
<linearGradient id="paint4_linear_4_34535" x1="36" y1="15" x2="36" y2="25" gradientUnits="userSpaceOnUse">
<stop stop-color="white"/>
<stop offset="1" stop-color="#F3F3F3" stop-opacity="0.2"/>
</linearGradient>
<linearGradient id="paint5_linear_4_34535" x1="32" y1="27" x2="32" y2="40" gradientUnits="userSpaceOnUse">
<stop stop-color="#F1F5F9"/>
<stop offset="0.650321" stop-color="#F1F5F9" stop-opacity="0"/>
</linearGradient>
<linearGradient id="paint6_linear_4_34535" x1="32" y1="29" x2="32" y2="38" gradientUnits="userSpaceOnUse">
<stop stop-color="white"/>
<stop offset="1" stop-color="#F3F3F3" stop-opacity="0.2"/>
</linearGradient>
<linearGradient id="paint7_linear_4_34535" x1="19.0342" y1="46.3" x2="19.0342" y2="47.8" gradientUnits="userSpaceOnUse">
<stop stop-color="#E2E8F0"/>
<stop offset="1" stop-color="#E2E8F0" stop-opacity="0"/>
</linearGradient>
<linearGradient id="paint8_linear_4_34535" x1="16.0342" y1="48" x2="16.0342" y2="49.5" gradientUnits="userSpaceOnUse">
<stop stop-color="#E2E8F0"/>
<stop offset="1" stop-color="#E2E8F0" stop-opacity="0"/>
</linearGradient>
<linearGradient id="paint9_linear_4_34535" x1="16.0342" y1="51.5" x2="16.0342" y2="53" gradientUnits="userSpaceOnUse">
<stop stop-color="#E2E8F0"/>
<stop offset="1" stop-color="#E2E8F0" stop-opacity="0"/>
</linearGradient>
<linearGradient id="paint10_linear_4_34535" x1="22.0342" y1="48" x2="22.0342" y2="49.5" gradientUnits="userSpaceOnUse">
<stop stop-color="#E2E8F0"/>
<stop offset="1" stop-color="#E2E8F0" stop-opacity="0"/>
</linearGradient>
<linearGradient id="paint11_linear_4_34535" x1="22.0342" y1="51.5" x2="22.0342" y2="53" gradientUnits="userSpaceOnUse">
<stop stop-color="#E2E8F0"/>
<stop offset="1" stop-color="#E2E8F0" stop-opacity="0"/>
</linearGradient>
<linearGradient id="paint12_linear_4_34535" x1="29.0342" y1="46.3" x2="29.0342" y2="47.8" gradientUnits="userSpaceOnUse">
<stop stop-color="#E2E8F0"/>
<stop offset="1" stop-color="#E2E8F0" stop-opacity="0"/>
</linearGradient>
<linearGradient id="paint13_linear_4_34535" x1="26.0342" y1="48" x2="26.0342" y2="49.5" gradientUnits="userSpaceOnUse">
<stop stop-color="#E2E8F0"/>
<stop offset="1" stop-color="#E2E8F0" stop-opacity="0"/>
</linearGradient>
<linearGradient id="paint14_linear_4_34535" x1="26.0342" y1="51.5" x2="26.0342" y2="53" gradientUnits="userSpaceOnUse">
<stop stop-color="#E2E8F0"/>
<stop offset="1" stop-color="#E2E8F0" stop-opacity="0"/>
</linearGradient>
<linearGradient id="paint15_linear_4_34535" x1="32.0342" y1="48" x2="32.0342" y2="49.5" gradientUnits="userSpaceOnUse">
<stop stop-color="#E2E8F0"/>
<stop offset="1" stop-color="#E2E8F0" stop-opacity="0"/>
</linearGradient>
<linearGradient id="paint16_linear_4_34535" x1="32.0342" y1="51.5" x2="32.0342" y2="53" gradientUnits="userSpaceOnUse">
<stop stop-color="#E2E8F0"/>
<stop offset="1" stop-color="#E2E8F0" stop-opacity="0"/>
</linearGradient>
<clipPath id="clip0_4_34535">
<rect width="22" height="16" fill="white" transform="translate(36 41)"/>
</clipPath>
</defs>
</svg>
