<svg width="70" height="66" viewBox="0 0 70 66" fill="none" xmlns="http://www.w3.org/2000/svg">
<g filter="url(#filter0_d_4_34670)">
<path d="M34.526 11.2202C34.2598 11.117 33.9685 11.2751 33.8487 11.5341C33.2911 12.7398 31.9746 13.4688 30.6048 13.2273C29.235 12.9857 28.2473 11.8504 28.1357 10.5268C28.1117 10.2424 27.892 9.99418 27.6067 10.0001C27.3208 10.006 27.1138 10.2638 27.1023 10.5495C27.0484 11.8767 26.1112 13.0539 24.7533 13.355C23.3958 13.6559 22.0493 12.9856 21.4393 11.8062C21.3081 11.5524 21.0103 11.4069 20.7488 11.5223C20.4877 11.6375 20.3947 11.9545 20.493 12.2224C20.9505 13.4689 20.535 14.9146 19.396 15.7121C18.257 16.5097 16.7564 16.4056 15.7416 15.5494C15.5235 15.3654 15.1937 15.3443 14.9962 15.5503C14.7984 15.7565 14.8332 16.0861 15.0268 16.2963C15.9264 17.2728 16.0957 18.7674 15.3487 19.94C14.6013 21.1131 13.1745 21.5912 11.909 21.1878C11.6366 21.101 11.3236 21.2073 11.2202 21.4739C11.1171 21.74 11.2751 22.0313 11.5342 22.1511C12.7398 22.7087 13.4689 24.0252 13.2273 25.395C12.9858 26.7647 11.8505 27.7524 10.527 27.8641C10.2425 27.8881 9.99417 28.1079 10.0001 28.3934C10.006 28.6793 10.264 28.8864 10.5497 28.898C11.8768 28.9519 13.0539 29.8891 13.3549 31.247C13.6559 32.6044 12.9856 33.9509 11.8063 34.5609C11.5524 34.6922 11.407 34.99 11.5224 35.2514C11.6375 35.5125 11.9546 35.6055 12.2225 35.5072C13.469 35.0497 14.9147 35.4652 15.7122 36.6042C16.5097 37.7432 16.4057 39.2438 15.5495 40.2586C15.3655 40.4767 15.3444 40.8065 15.5504 41.004C15.7566 41.2018 16.0862 41.167 16.2964 40.9734C17.2729 40.0738 18.7675 39.9044 19.9402 40.6515C21.1132 41.3988 21.5913 42.8256 21.188 44.0911C21.1012 44.3635 21.2075 44.6766 21.4741 44.7799C21.7402 44.8831 22.0315 44.725 22.1513 44.466C22.7089 43.2603 24.0254 42.5313 25.3952 42.7728C26.765 43.0144 27.7527 44.1497 27.8643 45.4733C27.8883 45.7577 28.108 46.0059 28.3933 46C28.6792 45.994 28.8862 45.7362 28.8978 45.4506C28.9516 44.1234 29.8888 42.9462 31.2467 42.6451C32.6042 42.3442 33.9507 43.0145 34.5606 44.1938C34.6919 44.4477 34.9898 44.5931 35.2513 44.4778C35.5124 44.3626 35.6054 44.0454 35.5071 43.7775C35.0496 42.531 35.465 41.0853 36.604 40.2878C37.7431 39.4902 39.2437 39.5943 40.2585 40.4505C40.4766 40.6346 40.8064 40.6556 41.004 40.4496C41.2018 40.2434 41.167 39.9137 40.9734 39.7035C40.0737 38.727 39.9044 37.2324 40.6515 36.0597C41.3988 34.8867 42.8256 34.4086 44.0911 34.8119C44.3635 34.8987 44.6766 34.7924 44.7799 34.5258C44.8831 34.2597 44.725 33.9683 44.4659 33.8485C43.2603 33.2909 42.5313 31.9745 42.7728 30.6046C43.0144 29.2348 44.1498 28.247 45.4734 28.1355C45.7577 28.1116 46.0058 27.8919 45.9999 27.6067C45.994 27.3209 45.7363 27.114 45.4507 27.1025C44.1235 27.0487 42.9461 26.1115 42.645 24.7535C42.3441 23.396 43.0144 22.0495 44.1938 21.4395C44.4477 21.3082 44.5931 21.0104 44.4777 20.7489C44.3626 20.4878 44.0454 20.3948 43.7775 20.4931C42.531 20.9506 41.0853 20.5351 40.2878 19.3961C39.4902 18.2571 39.5943 16.7565 40.4505 15.7416C40.6346 15.5235 40.6557 15.1937 40.4497 14.9961C40.2434 14.7983 39.9138 14.8331 39.7036 15.0268C38.727 15.9263 37.2325 16.0957 36.0598 15.3486C34.8868 14.6013 34.4087 13.1745 34.812 11.909C34.8989 11.6366 34.7925 11.3235 34.526 11.2202Z" fill="url(#paint0_radial_4_34670)"/>
</g>
<g filter="url(#filter1_i_4_34670)">
<circle cx="28" cy="27.9995" r="12" fill="url(#paint1_linear_4_34670)"/>
</g>
<g filter="url(#filter2_ii_4_34670)">
<circle cx="28" cy="27.9995" r="12" fill="url(#paint2_linear_4_34670)"/>
</g>
<g filter="url(#filter3_f_4_34670)">
<ellipse cx="28" cy="22.9995" rx="7" ry="5" fill="url(#paint3_linear_4_34670)" style="mix-blend-mode:soft-light"/>
</g>
<g filter="url(#filter4_f_4_34670)">
<path d="M27.0645 53.7391C26.1355 49.913 23.9677 48.3188 23 48H59C57.4516 49.7536 55.5161 52.2087 55.5161 53.7391C55.5161 55.2696 55.9032 57.8841 56.6774 59H25.9032C26.6774 58.8406 27.9935 57.5652 27.0645 53.7391Z" fill="url(#paint4_linear_4_34670)"/>
</g>
<g filter="url(#filter5_d_4_34670)">
<path fill-rule="evenodd" clip-rule="evenodd" d="M59 31.5121C59 31.5081 59 31.504 59 31.5C59 24.5964 53.4036 19 46.5 19C41.1094 19 36.5158 22.4122 34.7613 27.1945C34.1946 27.0672 33.6051 27 33 27C28.5817 27 25 30.5817 25 35C25 35.0236 25.0001 35.0473 25.0003 35.0708C21.6079 35.5559 19 38.4734 19 42C19 45.866 22.134 49 26 49H56C60.9706 49 65 44.9706 65 40C65 36.0813 62.4956 32.7476 59 31.5121Z" fill="#64748B"/>
</g>
<g filter="url(#filter6_ii_4_34670)">
<path fill-rule="evenodd" clip-rule="evenodd" d="M65 40C65 44.9706 60.9706 49 56 49H26C22.134 49 19 45.866 19 42C19 38.134 22.134 35 26 35C28.7924 35 31.2029 36.6351 32.3264 39H47.0549C47.5524 34.5 51.3674 31 56 31C60.9706 31 65 35.0294 65 40Z" fill="#F1F5F9"/>
</g>
<g filter="url(#filter7_f_4_34670)">
<circle cx="26" cy="42" r="5" fill="url(#paint5_linear_4_34670)" style="mix-blend-mode:soft-light"/>
</g>
<g filter="url(#filter8_i_4_34670)">
<circle cx="33" cy="35" r="8" fill="#F1F5F9"/>
</g>
<g filter="url(#filter9_f_4_34670)">
<ellipse cx="33" cy="34" rx="6" ry="5" fill="url(#paint6_linear_4_34670)" style="mix-blend-mode:soft-light"/>
</g>
<g filter="url(#filter10_f_4_34670)">
<circle cx="57" cy="39" r="5" fill="url(#paint7_linear_4_34670)" style="mix-blend-mode:soft-light"/>
</g>
<g filter="url(#filter11_i_4_34670)">
<circle cx="46.5" cy="31.5" r="12.5" fill="#F1F5F9"/>
</g>
<g filter="url(#filter12_f_4_34670)">
<ellipse cx="46" cy="26" rx="7" ry="5" fill="url(#paint8_linear_4_34670)" style="mix-blend-mode:soft-light"/>
</g>
<g filter="url(#filter13_i_4_34670)">
<ellipse cx="42" cy="39.5" rx="9" ry="6.5" fill="url(#paint9_linear_4_34670)"/>
</g>
<g filter="url(#filter14_f_4_34670)">
<ellipse cx="42" cy="39.5" rx="7" ry="4.5" fill="url(#paint10_linear_4_34670)" style="mix-blend-mode:soft-light"/>
</g>
<path fill-rule="evenodd" clip-rule="evenodd" d="M59 31.5121C59 31.5081 59 31.504 59 31.5C59 24.5964 53.4036 19 46.5 19C41.1094 19 36.5158 22.4122 34.7613 27.1945C34.1946 27.0672 33.6051 27 33 27C28.5817 27 25 30.5817 25 35C25 35.0236 25.0001 35.0473 25.0003 35.0708C21.6079 35.5559 19 38.4734 19 42C19 45.866 22.134 49 26 49H56C60.9706 49 65 44.9706 65 40C65 36.0813 62.4956 32.7476 59 31.5121Z" fill="#93C5FD" style="mix-blend-mode:color"/>
<path fill-rule="evenodd" clip-rule="evenodd" d="M59 31.5121C59 31.5081 59 31.504 59 31.5C59 24.5964 53.4036 19 46.5 19C41.1094 19 36.5158 22.4122 34.7613 27.1945C34.1946 27.0672 33.6051 27 33 27C28.5817 27 25 30.5817 25 35C25 35.0236 25.0001 35.0473 25.0003 35.0708C21.6079 35.5559 19 38.4734 19 42C19 45.866 22.134 49 26 49H56C60.9706 49 65 44.9706 65 40C65 36.0813 62.4956 32.7476 59 31.5121Z" fill="#93C5FD" fill-opacity="0.2" style="mix-blend-mode:multiply"/>
<g filter="url(#filter15_ii_4_34670)">
<path d="M43.2858 53.2556L45.9271 56.2303L44.6715 60.005L40.7747 60.805L38.1335 57.8303L39.389 54.0556L43.2858 53.2556Z" fill="#E7F2FF"/>
</g>
<path d="M39.6342 54.3317L43.1693 53.6059L45.5654 56.3045L44.4264 59.7289L40.8913 60.4547L38.4952 57.756L39.6342 54.3317Z" stroke="#93C5FD" stroke-width="0.639516"/>
<g style="mix-blend-mode:color" filter="url(#filter16_f_4_34670)">
<path fill-rule="evenodd" clip-rule="evenodd" d="M43.5 19.5C42.1326 19.8419 38.9038 22.3554 38 23.4851C36.8579 24.9128 35.945 27.0956 35.5 28.8755C33.6166 28.3374 31.2456 28.5966 29.3017 29.9851C27.3578 31.3736 26.1614 33.6148 26.5 35.9851C24.8441 36.3163 23.3075 36.4391 22 37.4851C20.1525 38.9631 19 40.5875 19 41.4851C19 40.3864 19.5316 37.8337 21.6662 36.1119C22.6868 35.1023 23.625 34.8531 25 34.4851C24.961 33.0122 25.8387 29.8921 28.5 27.9851C30.1146 26.7 32.5256 26.5932 34.5 26.9851C34.8255 26.0662 35.748 24.3747 37.1096 22.6727C38.6049 20.8036 41.2081 20.073 43.5 19.5Z" fill="#FFCC00"/>
</g>
<defs>
<filter id="filter0_d_4_34670" x="0" y="0" width="56" height="56.0001" filterUnits="userSpaceOnUse" color-interpolation-filters="sRGB">
<feFlood flood-opacity="0" result="BackgroundImageFix"/>
<feColorMatrix in="SourceAlpha" type="matrix" values="0 0 0 0 0 0 0 0 0 0 0 0 0 0 0 0 0 0 127 0" result="hardAlpha"/>
<feOffset/>
<feGaussianBlur stdDeviation="5"/>
<feComposite in2="hardAlpha" operator="out"/>
<feColorMatrix type="matrix" values="0 0 0 0 0.980392 0 0 0 0 0.8 0 0 0 0 0.0823529 0 0 0 0.7 0"/>
<feBlend mode="normal" in2="BackgroundImageFix" result="effect1_dropShadow_4_34670"/>
<feBlend mode="normal" in="SourceGraphic" in2="effect1_dropShadow_4_34670" result="shape"/>
</filter>
<filter id="filter1_i_4_34670" x="16" y="14.9995" width="24" height="25" filterUnits="userSpaceOnUse" color-interpolation-filters="sRGB">
<feFlood flood-opacity="0" result="BackgroundImageFix"/>
<feBlend mode="normal" in="SourceGraphic" in2="BackgroundImageFix" result="shape"/>
<feColorMatrix in="SourceAlpha" type="matrix" values="0 0 0 0 0 0 0 0 0 0 0 0 0 0 0 0 0 0 127 0" result="hardAlpha"/>
<feOffset dy="-1"/>
<feGaussianBlur stdDeviation="1"/>
<feComposite in2="hardAlpha" operator="arithmetic" k2="-1" k3="1"/>
<feColorMatrix type="matrix" values="0 0 0 0 0.992157 0 0 0 0 0.878431 0 0 0 0 0.278431 0 0 0 1 0"/>
<feBlend mode="normal" in2="shape" result="effect1_innerShadow_4_34670"/>
</filter>
<filter id="filter2_ii_4_34670" x="16" y="14.9995" width="24" height="26" filterUnits="userSpaceOnUse" color-interpolation-filters="sRGB">
<feFlood flood-opacity="0" result="BackgroundImageFix"/>
<feBlend mode="normal" in="SourceGraphic" in2="BackgroundImageFix" result="shape"/>
<feColorMatrix in="SourceAlpha" type="matrix" values="0 0 0 0 0 0 0 0 0 0 0 0 0 0 0 0 0 0 127 0" result="hardAlpha"/>
<feOffset dy="-1"/>
<feGaussianBlur stdDeviation="1.5"/>
<feComposite in2="hardAlpha" operator="arithmetic" k2="-1" k3="1"/>
<feColorMatrix type="matrix" values="0 0 0 0 0.992157 0 0 0 0 0.878431 0 0 0 0 0.278431 0 0 0 1 0"/>
<feBlend mode="normal" in2="shape" result="effect1_innerShadow_4_34670"/>
<feColorMatrix in="SourceAlpha" type="matrix" values="0 0 0 0 0 0 0 0 0 0 0 0 0 0 0 0 0 0 127 0" result="hardAlpha"/>
<feOffset dy="1"/>
<feGaussianBlur stdDeviation="0.5"/>
<feComposite in2="hardAlpha" operator="arithmetic" k2="-1" k3="1"/>
<feColorMatrix type="matrix" values="0 0 0 0 0.996078 0 0 0 0 0.941176 0 0 0 0 0.541176 0 0 0 1 0"/>
<feBlend mode="normal" in2="effect1_innerShadow_4_34670" result="effect2_innerShadow_4_34670"/>
</filter>
<filter id="filter3_f_4_34670" x="19" y="15.9995" width="18" height="14" filterUnits="userSpaceOnUse" color-interpolation-filters="sRGB">
<feFlood flood-opacity="0" result="BackgroundImageFix"/>
<feBlend mode="normal" in="SourceGraphic" in2="BackgroundImageFix" result="shape"/>
<feGaussianBlur stdDeviation="1" result="effect1_foregroundBlur_4_34670"/>
</filter>
<filter id="filter4_f_4_34670" x="21" y="46" width="40" height="15" filterUnits="userSpaceOnUse" color-interpolation-filters="sRGB">
<feFlood flood-opacity="0" result="BackgroundImageFix"/>
<feBlend mode="normal" in="SourceGraphic" in2="BackgroundImageFix" result="shape"/>
<feGaussianBlur stdDeviation="1" result="effect1_foregroundBlur_4_34670"/>
</filter>
<filter id="filter5_d_4_34670" x="15" y="17" width="54" height="38" filterUnits="userSpaceOnUse" color-interpolation-filters="sRGB">
<feFlood flood-opacity="0" result="BackgroundImageFix"/>
<feColorMatrix in="SourceAlpha" type="matrix" values="0 0 0 0 0 0 0 0 0 0 0 0 0 0 0 0 0 0 127 0" result="hardAlpha"/>
<feOffset dy="2"/>
<feGaussianBlur stdDeviation="2"/>
<feComposite in2="hardAlpha" operator="out"/>
<feColorMatrix type="matrix" values="0 0 0 0 0.278431 0 0 0 0 0.333333 0 0 0 0 0.411765 0 0 0 0.4 0"/>
<feBlend mode="normal" in2="BackgroundImageFix" result="effect1_dropShadow_4_34670"/>
<feBlend mode="normal" in="SourceGraphic" in2="effect1_dropShadow_4_34670" result="shape"/>
</filter>
<filter id="filter6_ii_4_34670" x="19" y="29" width="46" height="22" filterUnits="userSpaceOnUse" color-interpolation-filters="sRGB">
<feFlood flood-opacity="0" result="BackgroundImageFix"/>
<feBlend mode="normal" in="SourceGraphic" in2="BackgroundImageFix" result="shape"/>
<feColorMatrix in="SourceAlpha" type="matrix" values="0 0 0 0 0 0 0 0 0 0 0 0 0 0 0 0 0 0 127 0" result="hardAlpha"/>
<feOffset dy="2"/>
<feGaussianBlur stdDeviation="1"/>
<feComposite in2="hardAlpha" operator="arithmetic" k2="-1" k3="1"/>
<feColorMatrix type="matrix" values="0 0 0 0 0.796078 0 0 0 0 0.835294 0 0 0 0 0.882353 0 0 0 1 0"/>
<feBlend mode="normal" in2="shape" result="effect1_innerShadow_4_34670"/>
<feColorMatrix in="SourceAlpha" type="matrix" values="0 0 0 0 0 0 0 0 0 0 0 0 0 0 0 0 0 0 127 0" result="hardAlpha"/>
<feOffset dy="-2"/>
<feGaussianBlur stdDeviation="1"/>
<feComposite in2="hardAlpha" operator="arithmetic" k2="-1" k3="1"/>
<feColorMatrix type="matrix" values="0 0 0 0 0.796078 0 0 0 0 0.835294 0 0 0 0 0.882353 0 0 0 0.6 0"/>
<feBlend mode="normal" in2="effect1_innerShadow_4_34670" result="effect2_innerShadow_4_34670"/>
</filter>
<filter id="filter7_f_4_34670" x="19" y="35" width="14" height="14" filterUnits="userSpaceOnUse" color-interpolation-filters="sRGB">
<feFlood flood-opacity="0" result="BackgroundImageFix"/>
<feBlend mode="normal" in="SourceGraphic" in2="BackgroundImageFix" result="shape"/>
<feGaussianBlur stdDeviation="1" result="effect1_foregroundBlur_4_34670"/>
</filter>
<filter id="filter8_i_4_34670" x="25" y="27" width="16" height="18" filterUnits="userSpaceOnUse" color-interpolation-filters="sRGB">
<feFlood flood-opacity="0" result="BackgroundImageFix"/>
<feBlend mode="normal" in="SourceGraphic" in2="BackgroundImageFix" result="shape"/>
<feColorMatrix in="SourceAlpha" type="matrix" values="0 0 0 0 0 0 0 0 0 0 0 0 0 0 0 0 0 0 127 0" result="hardAlpha"/>
<feOffset dy="2"/>
<feGaussianBlur stdDeviation="1"/>
<feComposite in2="hardAlpha" operator="arithmetic" k2="-1" k3="1"/>
<feColorMatrix type="matrix" values="0 0 0 0 0.796078 0 0 0 0 0.835294 0 0 0 0 0.882353 0 0 0 1 0"/>
<feBlend mode="normal" in2="shape" result="effect1_innerShadow_4_34670"/>
</filter>
<filter id="filter9_f_4_34670" x="25" y="27" width="16" height="14" filterUnits="userSpaceOnUse" color-interpolation-filters="sRGB">
<feFlood flood-opacity="0" result="BackgroundImageFix"/>
<feBlend mode="normal" in="SourceGraphic" in2="BackgroundImageFix" result="shape"/>
<feGaussianBlur stdDeviation="1" result="effect1_foregroundBlur_4_34670"/>
</filter>
<filter id="filter10_f_4_34670" x="50" y="32" width="14" height="14" filterUnits="userSpaceOnUse" color-interpolation-filters="sRGB">
<feFlood flood-opacity="0" result="BackgroundImageFix"/>
<feBlend mode="normal" in="SourceGraphic" in2="BackgroundImageFix" result="shape"/>
<feGaussianBlur stdDeviation="1" result="effect1_foregroundBlur_4_34670"/>
</filter>
<filter id="filter11_i_4_34670" x="34" y="19" width="25" height="27" filterUnits="userSpaceOnUse" color-interpolation-filters="sRGB">
<feFlood flood-opacity="0" result="BackgroundImageFix"/>
<feBlend mode="normal" in="SourceGraphic" in2="BackgroundImageFix" result="shape"/>
<feColorMatrix in="SourceAlpha" type="matrix" values="0 0 0 0 0 0 0 0 0 0 0 0 0 0 0 0 0 0 127 0" result="hardAlpha"/>
<feOffset dy="2"/>
<feGaussianBlur stdDeviation="1"/>
<feComposite in2="hardAlpha" operator="arithmetic" k2="-1" k3="1"/>
<feColorMatrix type="matrix" values="0 0 0 0 0.796078 0 0 0 0 0.835294 0 0 0 0 0.882353 0 0 0 1 0"/>
<feBlend mode="normal" in2="shape" result="effect1_innerShadow_4_34670"/>
</filter>
<filter id="filter12_f_4_34670" x="37" y="19" width="18" height="14" filterUnits="userSpaceOnUse" color-interpolation-filters="sRGB">
<feFlood flood-opacity="0" result="BackgroundImageFix"/>
<feBlend mode="normal" in="SourceGraphic" in2="BackgroundImageFix" result="shape"/>
<feGaussianBlur stdDeviation="1" result="effect1_foregroundBlur_4_34670"/>
</filter>
<filter id="filter13_i_4_34670" x="33" y="33" width="18" height="15" filterUnits="userSpaceOnUse" color-interpolation-filters="sRGB">
<feFlood flood-opacity="0" result="BackgroundImageFix"/>
<feBlend mode="normal" in="SourceGraphic" in2="BackgroundImageFix" result="shape"/>
<feColorMatrix in="SourceAlpha" type="matrix" values="0 0 0 0 0 0 0 0 0 0 0 0 0 0 0 0 0 0 127 0" result="hardAlpha"/>
<feOffset dy="2"/>
<feGaussianBlur stdDeviation="1"/>
<feComposite in2="hardAlpha" operator="arithmetic" k2="-1" k3="1"/>
<feColorMatrix type="matrix" values="0 0 0 0 0.796078 0 0 0 0 0.835294 0 0 0 0 0.882353 0 0 0 0.6 0"/>
<feBlend mode="normal" in2="shape" result="effect1_innerShadow_4_34670"/>
</filter>
<filter id="filter14_f_4_34670" x="33" y="33" width="18" height="13" filterUnits="userSpaceOnUse" color-interpolation-filters="sRGB">
<feFlood flood-opacity="0" result="BackgroundImageFix"/>
<feBlend mode="normal" in="SourceGraphic" in2="BackgroundImageFix" result="shape"/>
<feGaussianBlur stdDeviation="1" result="effect1_foregroundBlur_4_34670"/>
</filter>
<filter id="filter15_ii_4_34670" x="38.1335" y="52.1897" width="7.79358" height="8.6153" filterUnits="userSpaceOnUse" color-interpolation-filters="sRGB">
<feFlood flood-opacity="0" result="BackgroundImageFix"/>
<feBlend mode="normal" in="SourceGraphic" in2="BackgroundImageFix" result="shape"/>
<feColorMatrix in="SourceAlpha" type="matrix" values="0 0 0 0 0 0 0 0 0 0 0 0 0 0 0 0 0 0 127 0" result="hardAlpha"/>
<feOffset dy="-2.13172"/>
<feComposite in2="hardAlpha" operator="arithmetic" k2="-1" k3="1"/>
<feColorMatrix type="matrix" values="0 0 0 0 0.9375 0 0 0 0 0.966981 0 0 0 0 1 0 0 0 1 0"/>
<feBlend mode="normal" in2="shape" result="effect1_innerShadow_4_34670"/>
<feColorMatrix in="SourceAlpha" type="matrix" values="0 0 0 0 0 0 0 0 0 0 0 0 0 0 0 0 0 0 127 0" result="hardAlpha"/>
<feOffset dy="-1.06586"/>
<feGaussianBlur stdDeviation="0.53293"/>
<feComposite in2="hardAlpha" operator="arithmetic" k2="-1" k3="1"/>
<feColorMatrix type="matrix" values="0 0 0 0 0.647292 0 0 0 0 0.811695 0 0 0 0 0.995833 0 0 0 1 0"/>
<feBlend mode="normal" in2="effect1_innerShadow_4_34670" result="effect2_innerShadow_4_34670"/>
</filter>
<filter id="filter16_f_4_34670" x="17" y="17.5" width="28.5" height="25.9851" filterUnits="userSpaceOnUse" color-interpolation-filters="sRGB">
<feFlood flood-opacity="0" result="BackgroundImageFix"/>
<feBlend mode="normal" in="SourceGraphic" in2="BackgroundImageFix" result="shape"/>
<feGaussianBlur stdDeviation="1" result="effect1_foregroundBlur_4_34670"/>
</filter>
<radialGradient id="paint0_radial_4_34670" cx="0" cy="0" r="1" gradientUnits="userSpaceOnUse" gradientTransform="translate(28 15.9995) rotate(90) scale(30 29.9999)">
<stop stop-color="#FACC15"/>
<stop offset="1" stop-color="#D97706"/>
</radialGradient>
<linearGradient id="paint1_linear_4_34670" x1="28" y1="15.9995" x2="28" y2="39.9995" gradientUnits="userSpaceOnUse">
<stop stop-color="#FEF08A"/>
<stop offset="1" stop-color="#F59E0B"/>
</linearGradient>
<linearGradient id="paint2_linear_4_34670" x1="28" y1="15.9995" x2="28" y2="39.9995" gradientUnits="userSpaceOnUse">
<stop stop-color="#FFF28F"/>
<stop offset="1" stop-color="#F79B00"/>
</linearGradient>
<linearGradient id="paint3_linear_4_34670" x1="28" y1="17.9995" x2="28" y2="27.9995" gradientUnits="userSpaceOnUse">
<stop stop-color="#FEF9C3"/>
<stop offset="1" stop-color="#FEF9C3" stop-opacity="0"/>
<stop offset="1" stop-color="#FEF9C3" stop-opacity="0.2"/>
</linearGradient>
<linearGradient id="paint4_linear_4_34670" x1="41" y1="48" x2="41" y2="59" gradientUnits="userSpaceOnUse">
<stop stop-color="#BAE6FD"/>
<stop offset="1" stop-color="#BAE6FD" stop-opacity="0"/>
</linearGradient>
<linearGradient id="paint5_linear_4_34670" x1="26" y1="37" x2="26" y2="47" gradientUnits="userSpaceOnUse">
<stop stop-color="white"/>
<stop offset="1" stop-color="#F3F3F3" stop-opacity="0.2"/>
</linearGradient>
<linearGradient id="paint6_linear_4_34670" x1="33" y1="29" x2="33" y2="39" gradientUnits="userSpaceOnUse">
<stop stop-color="white"/>
<stop offset="1" stop-color="#F3F3F3" stop-opacity="0.2"/>
</linearGradient>
<linearGradient id="paint7_linear_4_34670" x1="57" y1="34" x2="57" y2="44" gradientUnits="userSpaceOnUse">
<stop stop-color="white"/>
<stop offset="1" stop-color="#F3F3F3" stop-opacity="0.2"/>
</linearGradient>
<linearGradient id="paint8_linear_4_34670" x1="46" y1="21" x2="46" y2="31" gradientUnits="userSpaceOnUse">
<stop stop-color="white"/>
<stop offset="1" stop-color="#F3F3F3" stop-opacity="0.2"/>
</linearGradient>
<linearGradient id="paint9_linear_4_34670" x1="42" y1="33" x2="42" y2="46" gradientUnits="userSpaceOnUse">
<stop stop-color="#F1F5F9"/>
<stop offset="0.650321" stop-color="#F1F5F9" stop-opacity="0"/>
</linearGradient>
<linearGradient id="paint10_linear_4_34670" x1="42" y1="35" x2="42" y2="44" gradientUnits="userSpaceOnUse">
<stop stop-color="white"/>
<stop offset="1" stop-color="#F3F3F3" stop-opacity="0.2"/>
</linearGradient>
</defs>
</svg>
