<svg width="14" height="14" viewBox="0 0 14 14" fill="none" xmlns="http://www.w3.org/2000/svg">
<path d="M1.70711 0.292771C1.31658 -0.0977531 0.683418 -0.0977531 0.292893 0.292771C-0.0976311 0.683295 -0.0976311 1.31646 0.292893 1.70698L1.70711 0.292771ZM12.2929 13.707C12.6834 14.0975 13.3166 14.0975 13.7071 13.707C14.0976 13.3165 14.0976 12.6833 13.7071 12.2928L12.2929 13.707ZM0.292893 1.70698L12.2929 13.707L13.7071 12.2928L1.70711 0.292771L0.292893 1.70698Z" fill="#41454F"/>
<path d="M0.292893 12.2928C-0.0976311 12.6833 -0.0976311 13.3165 0.292893 13.707C0.683418 14.0975 1.31658 14.0975 1.70711 13.707L0.292893 12.2928ZM13.7071 1.70698C14.0976 1.31646 14.0976 0.683295 13.7071 0.292771C13.3166 -0.0977537 12.6834 -0.0977534 12.2929 0.292771L13.7071 1.70698ZM1.70711 13.707L13.7071 1.70698L12.2929 0.292771L0.292893 12.2928L1.70711 13.707Z" fill="#41454F"/>
</svg>
