<svg width="24" height="24" viewBox="0 0 24 24" fill="none" xmlns="http://www.w3.org/2000/svg">
<path d="M14.7462 11.9472C14.7462 13.4812 13.5188 14.7499 12 14.7499C10.4812 14.7499 9.24512 13.4812 9.24512 11.9472C9.24512 10.4132 10.4812 9.24988 12 9.24988C13.5188 9.24988 14.7462 10.4132 14.7462 11.9472Z" stroke="#121219" stroke-width="2"/>
<path d="M14.2127 4.04115L13.5749 2.5962C13.4149 2.23381 13.0562 2 12.66 2H11.3151C10.919 2 10.5602 2.23381 10.4003 2.5962L9.7625 4.04115C9.14903 5.43103 7.70895 6.26643 6.19788 6.10901L4.39332 5.92102C4.00234 5.88029 3.62377 6.07239 3.42579 6.41199L2.83283 7.42909C2.63099 7.77531 2.65534 8.2086 2.89471 8.53002L3.92975 9.91989C4.84991 11.1555 4.85394 12.8475 3.93967 14.0875L2.89016 15.5108C2.65335 15.832 2.63015 16.2632 2.83113 16.608L3.42295 17.6231C3.62238 17.9652 4.00486 18.1573 4.39835 18.1132L6.17891 17.9134C7.69885 17.7429 9.15349 18.5791 9.77109 19.9783L10.4003 21.4038C10.5602 21.7662 10.919 22 11.3151 22H12.66C13.0562 22 13.4149 21.7662 13.5749 21.4038L14.2041 19.9783C14.8217 18.5791 16.2763 17.7429 17.7963 17.9134L19.5829 18.1139C19.9733 18.1577 20.3531 17.9688 20.5539 17.6312L21.1632 16.6064C21.3676 16.2627 21.3476 15.8304 21.1124 15.5071L20.0664 14.069C19.1701 12.8368 19.174 11.1661 20.0762 9.93811L21.1079 8.53379C21.3456 8.2102 21.3667 7.77581 21.1615 7.43068L20.5511 6.40395C20.3518 6.06875 19.9758 5.87998 19.5879 5.92039L17.7773 6.10901C16.2662 6.26643 14.8261 5.43103 14.2127 4.04115Z" stroke="#121219" stroke-width="2" stroke-miterlimit="10"/>
</svg>
