<svg width="64" height="64" viewBox="0 0 64 64" fill="none" xmlns="http://www.w3.org/2000/svg">
<g filter="url(#filter0_ii_4_34698)">
<circle cx="32" cy="31.9995" r="16" fill="url(#paint0_linear_4_34698)"/>
</g>
<g style="mix-blend-mode:multiply" opacity="0.6">
<path fill-rule="evenodd" clip-rule="evenodd" d="M22.2046 36.1914C22.0838 36.985 21.969 36.8759 21.7713 36.6881L21.7713 36.6881C21.5956 36.5213 21.3546 36.2924 20.9861 36.5792C20.7211 36.875 20.3439 37.5717 20.5221 37.7673C21.5608 37.5767 21.556 38.7435 20.5044 38.5298C19.8382 38.8806 19.4099 38.6588 19.135 38.5165C18.9026 38.3961 18.78 38.3326 18.716 38.7204C18.8046 39.2477 19.2335 39.3439 19.5813 39.4218C19.9142 39.4964 20.1728 39.5544 19.9875 39.9578L19.9808 39.9903L19.9808 39.9904C19.9034 40.3669 19.8454 40.6487 20.4354 40.7302C21.0613 40.6951 21.0309 41.2599 21.002 41.7964C20.97 42.3898 20.9399 42.9487 21.8016 42.6233C23.215 42.5198 22.7559 43.3791 22.2826 44.2651C22.226 44.371 22.1692 44.4773 22.1154 44.5824C18.3915 41.6528 16 37.1057 16 32C16 26.4629 18.8127 21.5827 23.0873 18.7103C23.2478 18.7441 23.4029 18.816 23.5451 18.9496L23.5467 18.9529C23.5146 18.7404 23.5708 18.5255 23.6753 18.3335C24.0258 18.1195 24.3852 17.9187 24.7529 17.7316C24.8405 17.8167 24.8793 17.982 24.8343 18.2496C24.9109 18.2833 24.9988 18.2837 25.0801 18.2841H25.0801C25.2523 18.285 25.3946 18.2857 25.3368 18.6029C25.3123 18.8905 25.0505 18.9504 24.8068 19.0061L24.8068 19.0061C24.5076 19.0746 24.2358 19.1368 24.465 19.6069C24.441 19.6962 24.4119 19.7912 24.3818 19.8897C24.1921 20.5092 23.9589 21.2711 24.6625 21.6709C25.619 19.1557 27.5864 19.8866 28.6738 20.2905L28.6739 20.2905C29.293 20.5205 29.6268 20.6445 29.3263 20.003C27.403 19.3358 28.4144 17.3983 30.1466 18.2134C29.8719 17.8097 29.4573 17.7316 29.0532 17.6554L29.0531 17.6554L29.053 17.6554C28.6331 17.5763 28.2244 17.4994 27.9954 17.0614C28.0051 16.9238 28.1502 16.6847 28.327 16.4236C28.917 16.285 29.5195 16.1791 30.1326 16.1078C30.3014 16.7842 30.6143 17.3426 31.028 17.275C31.2299 17.3205 31.4813 17.316 31.7345 17.3114L31.7346 17.3114C32.3411 17.3005 32.9581 17.2894 32.9321 17.9653C33.5673 17.6876 33.6604 18.0659 33.751 18.4337L33.751 18.4337C33.781 18.5558 33.8108 18.6767 33.86 18.7721C35.8703 19.8453 35.3149 20.0272 34.6982 20.2292L34.6982 20.2292L34.6981 20.2292C34.262 20.3721 33.7952 20.5249 34.1843 21.0103C33.9348 21.3958 33.5096 21.1613 33.0772 20.9227C32.5971 20.6579 32.1081 20.3881 31.8404 20.9561C31.7274 21.2448 32.1401 21.5548 32.6062 21.9049L32.6062 21.9049C33.1669 22.3261 33.8048 22.8052 33.6979 23.3751C33.2974 23.9689 33.6718 24.3311 34.0718 24.7181C34.4512 25.0851 34.8536 25.4744 34.6402 26.1046C34.3705 26.8211 35.4638 27.1728 35.6806 26.3429C35.8299 25.7316 36.2938 25.9551 36.7064 26.2262C36.0225 25.6543 35.5778 23.3553 36.8959 24.366C36.9755 24.843 37.3427 25.0568 37.6947 25.2618C38.1019 25.4988 38.4889 25.7242 38.3873 26.3314C37.7383 27.4855 40.0515 28.797 42.1548 29.9895C43.5166 30.7616 44.7908 31.4841 45.1157 32.0814C44.9776 33.0345 45.6037 32.7404 45.4143 31.9828C45.4312 31.8838 45.3779 31.7733 45.3271 31.6681L45.3271 31.6681L45.327 31.668C45.2473 31.5027 45.1738 31.3505 45.3886 31.2762C45.6396 31.1887 45.6994 31.3892 45.7624 31.6L45.7624 31.6L45.7625 31.6C45.7942 31.7061 45.8266 31.8149 45.8847 31.8908C46.0469 30.1653 47.6876 33.0559 46.0131 33.3632C47.3201 34.3695 47.0473 35.5891 46.7682 36.837C46.6302 37.4542 46.4906 38.0784 46.5398 38.6871C46.2788 39.2538 45.9855 39.8027 45.6624 40.3314C45.6152 40.2293 45.6045 40.0723 45.6503 39.8478C45.6608 39.5727 45.7861 39.1133 45.9258 38.6007L45.9258 38.6007C46.2754 37.3184 46.7156 35.7037 45.6776 35.8117C45.5044 36.533 45.5027 37.3138 45.501 38.1089V38.109C45.4988 39.128 45.4965 40.1706 45.1332 41.1414C44.585 41.9275 43.9681 42.662 43.2911 43.3363C43.0849 43.2365 42.9509 42.8561 42.7959 42.4165C42.6538 42.0132 42.4941 41.5601 42.2452 41.2281C42.9853 41.3432 43.5504 40.6842 43.9534 39.4024C43.4878 39.5538 43.1654 39.2821 42.9161 39.0721C42.6136 38.8171 42.4188 38.653 42.2067 39.4468C41.1615 38.4772 39.6877 36.4132 40.0602 34.857C40.552 33.8534 40.0283 33.9614 39.3563 34.1002C38.9709 34.1797 38.5366 34.2694 38.2172 34.1651C36.5074 33.7033 36.6872 35.7575 36.8477 36.8619C36.6225 37.4104 36.8916 37.7552 37.1594 38.0983L37.1594 38.0983L37.1596 38.0985L37.1596 38.0985L37.1596 38.0986C37.3041 38.2837 37.4482 38.4683 37.514 38.6843C37.7764 38.7396 38.023 38.7073 38.2599 38.6762L38.2601 38.6762C38.7551 38.6113 39.208 38.5519 39.6749 39.3087C40.6868 39.6741 40.472 40.3595 40.2482 41.0736C40.0381 41.7438 39.82 42.4393 40.6012 42.9191C41.2097 43.6882 40.6879 44.4918 39.8756 44.7941C39.9617 43.1505 39.9091 43.1629 39.5516 43.2471C39.3096 43.3042 38.928 43.394 38.3552 43.026C38.5864 43.915 37.7901 44.081 37.3518 43.5978C37.4339 43.3157 37.3668 43.0853 37.3003 42.857L37.3003 42.857L37.3003 42.857C37.2471 42.6745 37.1943 42.4933 37.2186 42.2881C36.8493 42.7877 36.4415 42.3226 36.5266 41.8099C36.4034 41.3391 36.8389 40.9378 37.2135 40.5926L37.2136 40.5926C37.6732 40.1692 38.0413 39.8301 37.1736 39.5503C36.8514 39.1715 36.5952 39.6501 36.3336 40.1389C36.1389 40.5026 35.9412 40.8719 35.7111 40.8978C35.502 40.6927 35.6102 40.4393 35.7264 40.1674L35.7264 40.1673C35.8448 39.8902 35.9713 39.594 35.7785 39.3104C35.7802 38.5601 35.1452 38.8145 34.6223 39.0241C34.1477 39.2143 33.7654 39.3676 34.035 38.6991C34.9068 37.9941 33.9804 37.3549 33.7364 38.5725C33.2225 38.1731 33.631 37.4988 33.9885 36.9088C34.3971 36.2344 34.739 35.6702 33.5598 35.7526C33.2566 36.0755 33.1384 35.9539 32.9811 35.7921L32.9811 35.7921C32.891 35.6994 32.7881 35.5935 32.6302 35.5504C31.1018 35.716 30.9228 34.4308 30.7326 33.0655C30.566 31.8695 30.3908 30.6121 29.2926 30.2146C28.8857 29.7864 28.96 30.0974 29.0451 30.4537C29.0916 30.6486 29.1414 30.857 29.1176 30.9656C27.9357 30.6946 28.0109 31.1912 28.0649 31.5478C28.1161 31.8854 28.1482 32.0975 27.0771 31.4142C27.0979 32.065 27.0353 34.6121 26.2181 33.4815C25.7802 32.8275 25.0962 32.5978 24.4401 32.3774C23.7494 32.1454 23.0897 31.9239 22.7809 31.2285C22.0376 30.5348 22.3309 30.0689 22.6854 29.5057L22.6854 29.5057L22.6855 29.5055L22.6855 29.5055C22.808 29.3109 22.9377 29.1048 23.0346 28.8736C22.9297 27.8613 23.3461 28.1471 23.8174 28.4706L23.8175 28.4707C24.0171 28.6077 24.2265 28.7515 24.4104 28.8063C24.2781 28.5731 24.1508 28.3719 24.0447 28.2043C23.623 27.5381 23.5368 27.4018 24.8054 27.8876C24.4651 27.4029 24.6483 26.9996 24.8337 26.5915L24.8337 26.5915L24.8337 26.5914C24.9317 26.3756 25.0304 26.1585 25.0526 25.9272C25.0662 25.7866 24.9964 25.6437 24.9271 25.5021L24.9271 25.502C24.8004 25.2431 24.6758 24.9882 25.0671 24.7587C24.7765 24.3956 23.8871 24.338 23.7297 24.974C23.627 26.0948 22.3844 25.9765 22.2575 25.117C23.102 24.8984 23.6623 24.6306 23.4247 23.5016C24.16 22.0489 19.6359 23.592 19.7483 24.3052C19.7952 24.5608 20.0384 24.58 20.2657 24.598L20.2659 24.598L20.2659 24.598C20.5048 24.6168 20.7262 24.6343 20.6842 24.9231C20.465 25.1333 20.1791 25.0805 19.8973 25.0284C19.4939 24.9538 19.0987 24.8807 18.9183 25.582C18.513 26.7105 19.451 26.803 20.2556 26.8824L20.2556 26.8824C20.761 26.9322 21.2137 26.9769 21.2477 27.2697C21.273 27.5233 21.4538 27.4712 21.6573 27.4125L21.6573 27.4125C21.8166 27.3666 21.9897 27.3167 22.1131 27.4062C21.7984 27.9271 20.1304 29.7117 19.8526 29.8301C19.9722 30.0929 20.5535 30.4612 21.1566 30.8432L21.1567 30.8432C22.2465 31.5336 23.4077 32.2691 22.0456 32.5103C21.567 32.5296 21.6221 32.7263 21.6719 32.9045C21.7366 33.1356 21.7925 33.3355 20.6618 33.0756C20.6587 33.4733 21.0075 33.4917 21.2902 33.5066C21.6033 33.5231 21.8354 33.5353 21.4195 34.0534C20.7725 34.9935 21.2132 35.1075 21.6779 35.2277L21.678 35.2277C22.1012 35.3371 22.5443 35.4517 22.2046 36.1996V36.1914ZM41.2376 26.1041L41.2377 26.1045C41.2947 26.2427 41.3525 26.3828 41.3926 26.5282C39.799 26.1709 45.0194 31.5272 45.1061 25.8614C45.159 25.329 44.7095 24.3578 44.4222 23.8418C43.9163 23.8053 43.5282 23.415 43.1584 23.043L43.1583 23.0429C42.7628 22.6451 42.3882 22.2684 41.9129 22.3677C41.3237 22.9182 39.4373 24.7998 41.0716 25.1827C40.9899 25.5038 41.1118 25.7991 41.2376 26.1041ZM22.5856 35.4456L22.5856 35.4455C22.7058 35.0363 22.8154 34.6631 23.0266 35.2169C23.0992 35.4843 23.3132 35.4376 23.6028 35.3744L23.6029 35.3744L23.6029 35.3744C24.0749 35.2715 24.7478 35.1247 25.3368 36.2226C25.1974 36.3338 25.0459 36.4311 24.8944 36.5283L24.8943 36.5284C24.5064 36.7774 24.1183 37.0265 23.9336 37.511C23.6751 38.0927 22.3298 37.5783 22.3651 37.1593C22.4818 36.9096 22.3939 36.7144 22.3149 36.539L22.3148 36.539C22.2363 36.3646 22.1665 36.2098 22.3153 36.0402C22.4288 35.9796 22.5093 35.7053 22.5856 35.4456Z" fill="#94A3B8"/>
</g>
<g filter="url(#filter1_f_4_34698)">
<ellipse cx="32" cy="25.3329" rx="9.33333" ry="6.66667" fill="url(#paint1_linear_4_34698)" style="mix-blend-mode:soft-light"/>
</g>
<g filter="url(#filter2_di_4_34698)">
<ellipse cx="39.5" cy="25.0001" rx="1.5" ry="2" transform="rotate(-22.1932 39.5 25.0001)" fill="#94A3B8"/>
</g>
<g filter="url(#filter3_di_4_34698)">
<ellipse cx="35.7554" cy="31.9185" rx="1.87701" ry="1.30625" transform="rotate(-22.1932 35.7554 31.9185)" fill="#64748B"/>
</g>
<g filter="url(#filter4_di_4_34698)">
<ellipse cx="26.0198" cy="22.8763" rx="1.49447" ry="1.5255" transform="rotate(15.8877 26.0198 22.8763)" fill="#94A3B8"/>
</g>
<g filter="url(#filter5_di_4_34698)">
<ellipse cx="28.0298" cy="44.0545" rx="1.56468" ry="1.60711" transform="rotate(-20.5835 28.0298 44.0545)" fill="#475569"/>
</g>
<g filter="url(#filter6_di_4_34698)">
<ellipse cx="35.9518" cy="39.0825" rx="2.40196" ry="2" transform="rotate(-20.5835 35.9518 39.0825)" fill="#475569"/>
</g>
<g filter="url(#filter7_di_4_34698)">
<ellipse cx="25.5367" cy="34.5951" rx="1.23333" ry="1.02693" transform="rotate(56.5561 25.5367 34.5951)" fill="#64748B"/>
</g>
<g filter="url(#filter8_di_4_34698)">
<ellipse cx="20.5156" cy="37.3951" rx="0.5923" ry="0.49318" transform="rotate(-20.5835 20.5156 37.3951)" fill="#94A3B8"/>
</g>
<g filter="url(#filter9_di_4_34698)">
<ellipse cx="45.7278" cy="29.6699" rx="0.5923" ry="0.49318" transform="rotate(48.1814 45.7278 29.6699)" fill="#94A3B8"/>
</g>
<g filter="url(#filter10_di_4_34698)">
<ellipse cx="42.7625" cy="40.7703" rx="0.5923" ry="0.49318" transform="rotate(48.1814 42.7625 40.7703)" fill="#64748B"/>
</g>
<g filter="url(#filter11_di_4_34698)">
<ellipse cx="33.7278" cy="20.6698" rx="0.5923" ry="0.49318" transform="rotate(20.8278 33.7278 20.6698)" fill="#94A3B8"/>
</g>
<g filter="url(#filter12_di_4_34698)">
<ellipse cx="29.7289" cy="28.6716" rx="0.5923" ry="0.49318" transform="rotate(20.8278 29.7289 28.6716)" fill="#94A3B8"/>
</g>
<g filter="url(#filter13_di_4_34698)">
<ellipse cx="41.7289" cy="33.6716" rx="0.5923" ry="0.49318" transform="rotate(94.6584 41.7289 33.6716)" fill="#94A3B8"/>
</g>
<g filter="url(#filter14_di_4_34698)">
<ellipse cx="31.5397" cy="36.6304" rx="0.5923" ry="0.49318" transform="rotate(94.6584 31.5397 36.6304)" fill="#94A3B8"/>
</g>
<g filter="url(#filter15_di_4_34698)">
<ellipse cx="34.5397" cy="45.6304" rx="0.5923" ry="0.49318" transform="rotate(94.6584 34.5397 45.6304)" fill="#94A3B8"/>
</g>
<defs>
<filter id="filter0_ii_4_34698" x="16" y="14.9995" width="32" height="34" filterUnits="userSpaceOnUse" color-interpolation-filters="sRGB">
<feFlood flood-opacity="0" result="BackgroundImageFix"/>
<feBlend mode="normal" in="SourceGraphic" in2="BackgroundImageFix" result="shape"/>
<feColorMatrix in="SourceAlpha" type="matrix" values="0 0 0 0 0 0 0 0 0 0 0 0 0 0 0 0 0 0 127 0" result="hardAlpha"/>
<feMorphology radius="1" operator="erode" in="SourceAlpha" result="effect1_innerShadow_4_34698"/>
<feOffset dy="-1"/>
<feGaussianBlur stdDeviation="3"/>
<feComposite in2="hardAlpha" operator="arithmetic" k2="-1" k3="1"/>
<feColorMatrix type="matrix" values="0 0 0 0 0.278431 0 0 0 0 0.333333 0 0 0 0 0.411765 0 0 0 1 0"/>
<feBlend mode="normal" in2="shape" result="effect1_innerShadow_4_34698"/>
<feColorMatrix in="SourceAlpha" type="matrix" values="0 0 0 0 0 0 0 0 0 0 0 0 0 0 0 0 0 0 127 0" result="hardAlpha"/>
<feOffset dy="1"/>
<feGaussianBlur stdDeviation="1"/>
<feComposite in2="hardAlpha" operator="arithmetic" k2="-1" k3="1"/>
<feColorMatrix type="matrix" values="0 0 0 0 0.796078 0 0 0 0 0.835294 0 0 0 0 0.882353 0 0 0 1 0"/>
<feBlend mode="normal" in2="effect1_innerShadow_4_34698" result="effect2_innerShadow_4_34698"/>
</filter>
<filter id="filter1_f_4_34698" x="20" y="15.9996" width="24" height="18.6667" filterUnits="userSpaceOnUse" color-interpolation-filters="sRGB">
<feFlood flood-opacity="0" result="BackgroundImageFix"/>
<feBlend mode="normal" in="SourceGraphic" in2="BackgroundImageFix" result="shape"/>
<feGaussianBlur stdDeviation="1.33333" result="effect1_foregroundBlur_4_34698"/>
</filter>
<filter id="filter2_di_4_34698" x="37.4187" y="23.063" width="4.16272" height="4.87417" filterUnits="userSpaceOnUse" color-interpolation-filters="sRGB">
<feFlood flood-opacity="0" result="BackgroundImageFix"/>
<feColorMatrix in="SourceAlpha" type="matrix" values="0 0 0 0 0 0 0 0 0 0 0 0 0 0 0 0 0 0 127 0" result="hardAlpha"/>
<feOffset dy="0.5"/>
<feGaussianBlur stdDeviation="0.25"/>
<feComposite in2="hardAlpha" operator="out"/>
<feColorMatrix type="matrix" values="0 0 0 0 0.886275 0 0 0 0 0.909804 0 0 0 0 0.941176 0 0 0 0.7 0"/>
<feBlend mode="normal" in2="BackgroundImageFix" result="effect1_dropShadow_4_34698"/>
<feBlend mode="normal" in="SourceGraphic" in2="effect1_dropShadow_4_34698" result="shape"/>
<feColorMatrix in="SourceAlpha" type="matrix" values="0 0 0 0 0 0 0 0 0 0 0 0 0 0 0 0 0 0 127 0" result="hardAlpha"/>
<feOffset dy="0.5"/>
<feGaussianBlur stdDeviation="0.5"/>
<feComposite in2="hardAlpha" operator="arithmetic" k2="-1" k3="1"/>
<feColorMatrix type="matrix" values="0 0 0 0 0.392157 0 0 0 0 0.454902 0 0 0 0 0.545098 0 0 0 1 0"/>
<feBlend mode="normal" in2="shape" result="effect2_innerShadow_4_34698"/>
</filter>
<filter id="filter3_di_4_34698" x="33.4484" y="30.5163" width="4.61414" height="3.80439" filterUnits="userSpaceOnUse" color-interpolation-filters="sRGB">
<feFlood flood-opacity="0" result="BackgroundImageFix"/>
<feColorMatrix in="SourceAlpha" type="matrix" values="0 0 0 0 0 0 0 0 0 0 0 0 0 0 0 0 0 0 127 0" result="hardAlpha"/>
<feOffset dy="0.5"/>
<feGaussianBlur stdDeviation="0.25"/>
<feComposite in2="hardAlpha" operator="out"/>
<feColorMatrix type="matrix" values="0 0 0 0 0.886275 0 0 0 0 0.909804 0 0 0 0 0.941176 0 0 0 0.7 0"/>
<feBlend mode="normal" in2="BackgroundImageFix" result="effect1_dropShadow_4_34698"/>
<feBlend mode="normal" in="SourceGraphic" in2="effect1_dropShadow_4_34698" result="shape"/>
<feColorMatrix in="SourceAlpha" type="matrix" values="0 0 0 0 0 0 0 0 0 0 0 0 0 0 0 0 0 0 127 0" result="hardAlpha"/>
<feOffset dy="0.5"/>
<feGaussianBlur stdDeviation="0.5"/>
<feComposite in2="hardAlpha" operator="arithmetic" k2="-1" k3="1"/>
<feColorMatrix type="matrix" values="0 0 0 0 0.392157 0 0 0 0 0.454902 0 0 0 0 0.545098 0 0 0 1 0"/>
<feBlend mode="normal" in2="shape" result="effect2_innerShadow_4_34698"/>
</filter>
<filter id="filter4_di_4_34698" x="24.0226" y="21.3528" width="3.99438" height="4.04717" filterUnits="userSpaceOnUse" color-interpolation-filters="sRGB">
<feFlood flood-opacity="0" result="BackgroundImageFix"/>
<feColorMatrix in="SourceAlpha" type="matrix" values="0 0 0 0 0 0 0 0 0 0 0 0 0 0 0 0 0 0 127 0" result="hardAlpha"/>
<feOffset dy="0.5"/>
<feGaussianBlur stdDeviation="0.25"/>
<feComposite in2="hardAlpha" operator="out"/>
<feColorMatrix type="matrix" values="0 0 0 0 0.886275 0 0 0 0 0.909804 0 0 0 0 0.941176 0 0 0 0.7 0"/>
<feBlend mode="normal" in2="BackgroundImageFix" result="effect1_dropShadow_4_34698"/>
<feBlend mode="normal" in="SourceGraphic" in2="effect1_dropShadow_4_34698" result="shape"/>
<feColorMatrix in="SourceAlpha" type="matrix" values="0 0 0 0 0 0 0 0 0 0 0 0 0 0 0 0 0 0 127 0" result="hardAlpha"/>
<feOffset dy="0.5"/>
<feGaussianBlur stdDeviation="0.5"/>
<feComposite in2="hardAlpha" operator="arithmetic" k2="-1" k3="1"/>
<feColorMatrix type="matrix" values="0 0 0 0 0.392157 0 0 0 0 0.454902 0 0 0 0 0.545098 0 0 0 1 0"/>
<feBlend mode="normal" in2="shape" result="effect2_innerShadow_4_34698"/>
</filter>
<filter id="filter5_di_4_34698" x="25.9594" y="42.4521" width="4.14087" height="4.20472" filterUnits="userSpaceOnUse" color-interpolation-filters="sRGB">
<feFlood flood-opacity="0" result="BackgroundImageFix"/>
<feColorMatrix in="SourceAlpha" type="matrix" values="0 0 0 0 0 0 0 0 0 0 0 0 0 0 0 0 0 0 127 0" result="hardAlpha"/>
<feOffset dy="0.5"/>
<feGaussianBlur stdDeviation="0.25"/>
<feComposite in2="hardAlpha" operator="out"/>
<feColorMatrix type="matrix" values="0 0 0 0 0.886275 0 0 0 0 0.909804 0 0 0 0 0.941176 0 0 0 0.15 0"/>
<feBlend mode="normal" in2="BackgroundImageFix" result="effect1_dropShadow_4_34698"/>
<feBlend mode="normal" in="SourceGraphic" in2="effect1_dropShadow_4_34698" result="shape"/>
<feColorMatrix in="SourceAlpha" type="matrix" values="0 0 0 0 0 0 0 0 0 0 0 0 0 0 0 0 0 0 127 0" result="hardAlpha"/>
<feOffset dy="0.5"/>
<feGaussianBlur stdDeviation="0.5"/>
<feComposite in2="hardAlpha" operator="arithmetic" k2="-1" k3="1"/>
<feColorMatrix type="matrix" values="0 0 0 0 0.392157 0 0 0 0 0.454902 0 0 0 0 0.545098 0 0 0 1 0"/>
<feBlend mode="normal" in2="shape" result="effect2_innerShadow_4_34698"/>
</filter>
<filter id="filter6_di_4_34698" x="33.0951" y="37.0281" width="5.71326" height="5.10891" filterUnits="userSpaceOnUse" color-interpolation-filters="sRGB">
<feFlood flood-opacity="0" result="BackgroundImageFix"/>
<feColorMatrix in="SourceAlpha" type="matrix" values="0 0 0 0 0 0 0 0 0 0 0 0 0 0 0 0 0 0 127 0" result="hardAlpha"/>
<feOffset dy="0.5"/>
<feGaussianBlur stdDeviation="0.25"/>
<feComposite in2="hardAlpha" operator="out"/>
<feColorMatrix type="matrix" values="0 0 0 0 0.886275 0 0 0 0 0.909804 0 0 0 0 0.941176 0 0 0 0.3 0"/>
<feBlend mode="normal" in2="BackgroundImageFix" result="effect1_dropShadow_4_34698"/>
<feBlend mode="normal" in="SourceGraphic" in2="effect1_dropShadow_4_34698" result="shape"/>
<feColorMatrix in="SourceAlpha" type="matrix" values="0 0 0 0 0 0 0 0 0 0 0 0 0 0 0 0 0 0 127 0" result="hardAlpha"/>
<feOffset dy="0.5"/>
<feGaussianBlur stdDeviation="0.5"/>
<feComposite in2="hardAlpha" operator="arithmetic" k2="-1" k3="1"/>
<feColorMatrix type="matrix" values="0 0 0 0 0.392157 0 0 0 0 0.454902 0 0 0 0 0.545098 0 0 0 1 0"/>
<feBlend mode="normal" in2="shape" result="effect2_innerShadow_4_34698"/>
</filter>
<filter id="filter7_di_4_34698" x="23.9429" y="33.4204" width="3.18762" height="3.3494" filterUnits="userSpaceOnUse" color-interpolation-filters="sRGB">
<feFlood flood-opacity="0" result="BackgroundImageFix"/>
<feColorMatrix in="SourceAlpha" type="matrix" values="0 0 0 0 0 0 0 0 0 0 0 0 0 0 0 0 0 0 127 0" result="hardAlpha"/>
<feOffset dy="0.5"/>
<feGaussianBlur stdDeviation="0.25"/>
<feComposite in2="hardAlpha" operator="out"/>
<feColorMatrix type="matrix" values="0 0 0 0 0.886275 0 0 0 0 0.909804 0 0 0 0 0.941176 0 0 0 0.7 0"/>
<feBlend mode="normal" in2="BackgroundImageFix" result="effect1_dropShadow_4_34698"/>
<feBlend mode="normal" in="SourceGraphic" in2="effect1_dropShadow_4_34698" result="shape"/>
<feColorMatrix in="SourceAlpha" type="matrix" values="0 0 0 0 0 0 0 0 0 0 0 0 0 0 0 0 0 0 127 0" result="hardAlpha"/>
<feOffset dy="0.5"/>
<feGaussianBlur stdDeviation="0.5"/>
<feComposite in2="hardAlpha" operator="arithmetic" k2="-1" k3="1"/>
<feColorMatrix type="matrix" values="0 0 0 0 0.392157 0 0 0 0 0.454902 0 0 0 0 0.545098 0 0 0 1 0"/>
<feBlend mode="normal" in2="shape" result="effect2_innerShadow_4_34698"/>
</filter>
<filter id="filter8_di_4_34698" x="19.4344" y="36.8885" width="2.16223" height="2.01321" filterUnits="userSpaceOnUse" color-interpolation-filters="sRGB">
<feFlood flood-opacity="0" result="BackgroundImageFix"/>
<feColorMatrix in="SourceAlpha" type="matrix" values="0 0 0 0 0 0 0 0 0 0 0 0 0 0 0 0 0 0 127 0" result="hardAlpha"/>
<feOffset dy="0.5"/>
<feGaussianBlur stdDeviation="0.25"/>
<feComposite in2="hardAlpha" operator="out"/>
<feColorMatrix type="matrix" values="0 0 0 0 0.886275 0 0 0 0 0.909804 0 0 0 0 0.941176 0 0 0 0.2 0"/>
<feBlend mode="normal" in2="BackgroundImageFix" result="effect1_dropShadow_4_34698"/>
<feBlend mode="normal" in="SourceGraphic" in2="effect1_dropShadow_4_34698" result="shape"/>
<feColorMatrix in="SourceAlpha" type="matrix" values="0 0 0 0 0 0 0 0 0 0 0 0 0 0 0 0 0 0 127 0" result="hardAlpha"/>
<feOffset dy="0.5"/>
<feGaussianBlur stdDeviation="0.5"/>
<feComposite in2="hardAlpha" operator="arithmetic" k2="-1" k3="1"/>
<feColorMatrix type="matrix" values="0 0 0 0 0.392157 0 0 0 0 0.454902 0 0 0 0 0.545098 0 0 0 1 0"/>
<feBlend mode="normal" in2="shape" result="effect2_innerShadow_4_34698"/>
</filter>
<filter id="filter9_di_4_34698" x="44.6884" y="29.1194" width="2.07898" height="2.10095" filterUnits="userSpaceOnUse" color-interpolation-filters="sRGB">
<feFlood flood-opacity="0" result="BackgroundImageFix"/>
<feColorMatrix in="SourceAlpha" type="matrix" values="0 0 0 0 0 0 0 0 0 0 0 0 0 0 0 0 0 0 127 0" result="hardAlpha"/>
<feOffset dy="0.5"/>
<feGaussianBlur stdDeviation="0.25"/>
<feComposite in2="hardAlpha" operator="out"/>
<feColorMatrix type="matrix" values="0 0 0 0 0.886275 0 0 0 0 0.909804 0 0 0 0 0.941176 0 0 0 0.2 0"/>
<feBlend mode="normal" in2="BackgroundImageFix" result="effect1_dropShadow_4_34698"/>
<feBlend mode="normal" in="SourceGraphic" in2="effect1_dropShadow_4_34698" result="shape"/>
<feColorMatrix in="SourceAlpha" type="matrix" values="0 0 0 0 0 0 0 0 0 0 0 0 0 0 0 0 0 0 127 0" result="hardAlpha"/>
<feOffset dy="0.5"/>
<feGaussianBlur stdDeviation="0.5"/>
<feComposite in2="hardAlpha" operator="arithmetic" k2="-1" k3="1"/>
<feColorMatrix type="matrix" values="0 0 0 0 0.392157 0 0 0 0 0.454902 0 0 0 0 0.545098 0 0 0 1 0"/>
<feBlend mode="normal" in2="shape" result="effect2_innerShadow_4_34698"/>
</filter>
<filter id="filter10_di_4_34698" x="41.723" y="40.2198" width="2.07898" height="2.10095" filterUnits="userSpaceOnUse" color-interpolation-filters="sRGB">
<feFlood flood-opacity="0" result="BackgroundImageFix"/>
<feColorMatrix in="SourceAlpha" type="matrix" values="0 0 0 0 0 0 0 0 0 0 0 0 0 0 0 0 0 0 127 0" result="hardAlpha"/>
<feOffset dy="0.5"/>
<feGaussianBlur stdDeviation="0.25"/>
<feComposite in2="hardAlpha" operator="out"/>
<feColorMatrix type="matrix" values="0 0 0 0 0.886275 0 0 0 0 0.909804 0 0 0 0 0.941176 0 0 0 0.2 0"/>
<feBlend mode="normal" in2="BackgroundImageFix" result="effect1_dropShadow_4_34698"/>
<feBlend mode="normal" in="SourceGraphic" in2="effect1_dropShadow_4_34698" result="shape"/>
<feColorMatrix in="SourceAlpha" type="matrix" values="0 0 0 0 0 0 0 0 0 0 0 0 0 0 0 0 0 0 127 0" result="hardAlpha"/>
<feOffset dy="0.5"/>
<feGaussianBlur stdDeviation="0.5"/>
<feComposite in2="hardAlpha" operator="arithmetic" k2="-1" k3="1"/>
<feColorMatrix type="matrix" values="0 0 0 0 0.392157 0 0 0 0 0.454902 0 0 0 0 0.545098 0 0 0 1 0"/>
<feBlend mode="normal" in2="shape" result="effect2_innerShadow_4_34698"/>
</filter>
<filter id="filter11_di_4_34698" x="32.647" y="20.1629" width="2.16174" height="2.01382" filterUnits="userSpaceOnUse" color-interpolation-filters="sRGB">
<feFlood flood-opacity="0" result="BackgroundImageFix"/>
<feColorMatrix in="SourceAlpha" type="matrix" values="0 0 0 0 0 0 0 0 0 0 0 0 0 0 0 0 0 0 127 0" result="hardAlpha"/>
<feOffset dy="0.5"/>
<feGaussianBlur stdDeviation="0.25"/>
<feComposite in2="hardAlpha" operator="out"/>
<feColorMatrix type="matrix" values="0 0 0 0 0.886275 0 0 0 0 0.909804 0 0 0 0 0.941176 0 0 0 0.7 0"/>
<feBlend mode="normal" in2="BackgroundImageFix" result="effect1_dropShadow_4_34698"/>
<feBlend mode="normal" in="SourceGraphic" in2="effect1_dropShadow_4_34698" result="shape"/>
<feColorMatrix in="SourceAlpha" type="matrix" values="0 0 0 0 0 0 0 0 0 0 0 0 0 0 0 0 0 0 127 0" result="hardAlpha"/>
<feOffset dy="0.5"/>
<feGaussianBlur stdDeviation="0.5"/>
<feComposite in2="hardAlpha" operator="arithmetic" k2="-1" k3="1"/>
<feColorMatrix type="matrix" values="0 0 0 0 0.392157 0 0 0 0 0.454902 0 0 0 0 0.545098 0 0 0 1 0"/>
<feBlend mode="normal" in2="shape" result="effect2_innerShadow_4_34698"/>
</filter>
<filter id="filter12_di_4_34698" x="28.6481" y="28.1646" width="2.16174" height="2.01382" filterUnits="userSpaceOnUse" color-interpolation-filters="sRGB">
<feFlood flood-opacity="0" result="BackgroundImageFix"/>
<feColorMatrix in="SourceAlpha" type="matrix" values="0 0 0 0 0 0 0 0 0 0 0 0 0 0 0 0 0 0 127 0" result="hardAlpha"/>
<feOffset dy="0.5"/>
<feGaussianBlur stdDeviation="0.25"/>
<feComposite in2="hardAlpha" operator="out"/>
<feColorMatrix type="matrix" values="0 0 0 0 0.886275 0 0 0 0 0.909804 0 0 0 0 0.941176 0 0 0 0.7 0"/>
<feBlend mode="normal" in2="BackgroundImageFix" result="effect1_dropShadow_4_34698"/>
<feBlend mode="normal" in="SourceGraphic" in2="effect1_dropShadow_4_34698" result="shape"/>
<feColorMatrix in="SourceAlpha" type="matrix" values="0 0 0 0 0 0 0 0 0 0 0 0 0 0 0 0 0 0 127 0" result="hardAlpha"/>
<feOffset dy="0.5"/>
<feGaussianBlur stdDeviation="0.5"/>
<feComposite in2="hardAlpha" operator="arithmetic" k2="-1" k3="1"/>
<feColorMatrix type="matrix" values="0 0 0 0 0.392157 0 0 0 0 0.454902 0 0 0 0 0.545098 0 0 0 1 0"/>
<feBlend mode="normal" in2="shape" result="effect2_innerShadow_4_34698"/>
</filter>
<filter id="filter13_di_4_34698" x="40.735" y="33.0799" width="1.98779" height="2.18345" filterUnits="userSpaceOnUse" color-interpolation-filters="sRGB">
<feFlood flood-opacity="0" result="BackgroundImageFix"/>
<feColorMatrix in="SourceAlpha" type="matrix" values="0 0 0 0 0 0 0 0 0 0 0 0 0 0 0 0 0 0 127 0" result="hardAlpha"/>
<feOffset dy="0.5"/>
<feGaussianBlur stdDeviation="0.25"/>
<feComposite in2="hardAlpha" operator="out"/>
<feColorMatrix type="matrix" values="0 0 0 0 0.886275 0 0 0 0 0.909804 0 0 0 0 0.941176 0 0 0 0.4 0"/>
<feBlend mode="normal" in2="BackgroundImageFix" result="effect1_dropShadow_4_34698"/>
<feBlend mode="normal" in="SourceGraphic" in2="effect1_dropShadow_4_34698" result="shape"/>
<feColorMatrix in="SourceAlpha" type="matrix" values="0 0 0 0 0 0 0 0 0 0 0 0 0 0 0 0 0 0 127 0" result="hardAlpha"/>
<feOffset dy="0.5"/>
<feGaussianBlur stdDeviation="0.5"/>
<feComposite in2="hardAlpha" operator="arithmetic" k2="-1" k3="1"/>
<feColorMatrix type="matrix" values="0 0 0 0 0.392157 0 0 0 0 0.454902 0 0 0 0 0.545098 0 0 0 1 0"/>
<feBlend mode="normal" in2="shape" result="effect2_innerShadow_4_34698"/>
</filter>
<filter id="filter14_di_4_34698" x="30.5458" y="36.0386" width="1.98779" height="2.18345" filterUnits="userSpaceOnUse" color-interpolation-filters="sRGB">
<feFlood flood-opacity="0" result="BackgroundImageFix"/>
<feColorMatrix in="SourceAlpha" type="matrix" values="0 0 0 0 0 0 0 0 0 0 0 0 0 0 0 0 0 0 127 0" result="hardAlpha"/>
<feOffset dy="0.5"/>
<feGaussianBlur stdDeviation="0.25"/>
<feComposite in2="hardAlpha" operator="out"/>
<feColorMatrix type="matrix" values="0 0 0 0 0.886275 0 0 0 0 0.909804 0 0 0 0 0.941176 0 0 0 0.4 0"/>
<feBlend mode="normal" in2="BackgroundImageFix" result="effect1_dropShadow_4_34698"/>
<feBlend mode="normal" in="SourceGraphic" in2="effect1_dropShadow_4_34698" result="shape"/>
<feColorMatrix in="SourceAlpha" type="matrix" values="0 0 0 0 0 0 0 0 0 0 0 0 0 0 0 0 0 0 127 0" result="hardAlpha"/>
<feOffset dy="0.5"/>
<feGaussianBlur stdDeviation="0.5"/>
<feComposite in2="hardAlpha" operator="arithmetic" k2="-1" k3="1"/>
<feColorMatrix type="matrix" values="0 0 0 0 0.392157 0 0 0 0 0.454902 0 0 0 0 0.545098 0 0 0 1 0"/>
<feBlend mode="normal" in2="shape" result="effect2_innerShadow_4_34698"/>
</filter>
<filter id="filter15_di_4_34698" x="33.5458" y="45.0386" width="1.98779" height="2.18345" filterUnits="userSpaceOnUse" color-interpolation-filters="sRGB">
<feFlood flood-opacity="0" result="BackgroundImageFix"/>
<feColorMatrix in="SourceAlpha" type="matrix" values="0 0 0 0 0 0 0 0 0 0 0 0 0 0 0 0 0 0 127 0" result="hardAlpha"/>
<feOffset dy="0.5"/>
<feGaussianBlur stdDeviation="0.25"/>
<feComposite in2="hardAlpha" operator="out"/>
<feColorMatrix type="matrix" values="0 0 0 0 0.886275 0 0 0 0 0.909804 0 0 0 0 0.941176 0 0 0 0.2 0"/>
<feBlend mode="normal" in2="BackgroundImageFix" result="effect1_dropShadow_4_34698"/>
<feBlend mode="normal" in="SourceGraphic" in2="effect1_dropShadow_4_34698" result="shape"/>
<feColorMatrix in="SourceAlpha" type="matrix" values="0 0 0 0 0 0 0 0 0 0 0 0 0 0 0 0 0 0 127 0" result="hardAlpha"/>
<feOffset dy="0.5"/>
<feGaussianBlur stdDeviation="0.5"/>
<feComposite in2="hardAlpha" operator="arithmetic" k2="-1" k3="1"/>
<feColorMatrix type="matrix" values="0 0 0 0 0.392157 0 0 0 0 0.454902 0 0 0 0 0.545098 0 0 0 1 0"/>
<feBlend mode="normal" in2="shape" result="effect2_innerShadow_4_34698"/>
</filter>
<linearGradient id="paint0_linear_4_34698" x1="32" y1="15.9995" x2="32" y2="47.9995" gradientUnits="userSpaceOnUse">
<stop stop-color="#E2E8F0"/>
<stop offset="1" stop-color="#64748B"/>
</linearGradient>
<linearGradient id="paint1_linear_4_34698" x1="32" y1="18.6663" x2="32" y2="31.9996" gradientUnits="userSpaceOnUse">
<stop stop-color="#F1F5F9"/>
<stop offset="1" stop-color="#E2E8F0" stop-opacity="0"/>
</linearGradient>
</defs>
</svg>
