<svg width="64" height="64" viewBox="0 0 64 64" fill="none" xmlns="http://www.w3.org/2000/svg">
<g filter="url(#filter0_f_4_34822)">
<path d="M17.0645 47.7391C16.1355 43.913 13.9677 42.3188 13 42H49C47.4516 43.7536 45.5161 46.2087 45.5161 47.7391C45.5161 49.2696 45.9032 51.8841 46.6774 53H15.9032C16.6774 52.8406 17.9935 51.5652 17.0645 47.7391Z" fill="url(#paint0_linear_4_34822)"/>
</g>
<g filter="url(#filter1_d_4_34822)">
<path fill-rule="evenodd" clip-rule="evenodd" d="M49 25.5121C49 25.5081 49 25.504 49 25.5C49 18.5964 43.4036 13 36.5 13C31.1094 13 26.5158 16.4122 24.7613 21.1945C24.1946 21.0672 23.6051 21 23 21C18.5817 21 15 24.5817 15 29C15 29.0236 15.0001 29.0473 15.0003 29.0708C11.6079 29.5559 9 32.4734 9 36C9 39.866 12.134 43 16 43H46C50.9706 43 55 38.9706 55 34C55 30.0813 52.4956 26.7476 49 25.5121Z" fill="#64748B"/>
</g>
<g filter="url(#filter2_ii_4_34822)">
<path fill-rule="evenodd" clip-rule="evenodd" d="M55 34C55 38.9706 50.9706 43 46 43H16C12.134 43 9 39.866 9 36C9 32.134 12.134 29 16 29C18.7924 29 21.2029 30.6351 22.3264 33H37.0549C37.5524 28.5 41.3674 25 46 25C50.9706 25 55 29.0294 55 34Z" fill="#F1F5F9"/>
</g>
<g filter="url(#filter3_f_4_34822)">
<circle cx="16" cy="36" r="5" fill="url(#paint1_linear_4_34822)" style="mix-blend-mode:soft-light"/>
</g>
<g filter="url(#filter4_i_4_34822)">
<circle cx="23" cy="29" r="8" fill="#F1F5F9"/>
</g>
<g filter="url(#filter5_f_4_34822)">
<ellipse cx="23" cy="28" rx="6" ry="5" fill="url(#paint2_linear_4_34822)" style="mix-blend-mode:soft-light"/>
</g>
<g filter="url(#filter6_f_4_34822)">
<circle cx="47" cy="33" r="5" fill="url(#paint3_linear_4_34822)" style="mix-blend-mode:soft-light"/>
</g>
<g filter="url(#filter7_i_4_34822)">
<circle cx="36.5" cy="25.5" r="12.5" fill="#F1F5F9"/>
</g>
<g filter="url(#filter8_f_4_34822)">
<ellipse cx="36" cy="20" rx="7" ry="5" fill="url(#paint4_linear_4_34822)" style="mix-blend-mode:soft-light"/>
</g>
<g filter="url(#filter9_i_4_34822)">
<ellipse cx="32" cy="33.5" rx="9" ry="6.5" fill="url(#paint5_linear_4_34822)"/>
</g>
<g filter="url(#filter10_f_4_34822)">
<ellipse cx="32" cy="33.5" rx="7" ry="4.5" fill="url(#paint6_linear_4_34822)" style="mix-blend-mode:soft-light"/>
</g>
<path fill-rule="evenodd" clip-rule="evenodd" d="M49 25.5121C49 25.5081 49 25.504 49 25.5C49 18.5964 43.4036 13 36.5 13C31.1094 13 26.5158 16.4122 24.7613 21.1945C24.1946 21.0672 23.6051 21 23 21C18.5817 21 15 24.5817 15 29C15 29.0236 15.0001 29.0473 15.0003 29.0708C11.6079 29.5559 9 32.4734 9 36C9 39.866 12.134 43 16 43H46C50.9706 43 55 38.9706 55 34C55 30.0813 52.4956 26.7476 49 25.5121Z" fill="#93C5FD" style="mix-blend-mode:color"/>
<path fill-rule="evenodd" clip-rule="evenodd" d="M49 25.5121C49 25.5081 49 25.504 49 25.5C49 18.5964 43.4036 13 36.5 13C31.1094 13 26.5158 16.4122 24.7613 21.1945C24.1946 21.0672 23.6051 21 23 21C18.5817 21 15 24.5817 15 29C15 29.0236 15.0001 29.0473 15.0003 29.0708C11.6079 29.5559 9 32.4734 9 36C9 39.866 12.134 43 16 43H46C50.9706 43 55 38.9706 55 34C55 30.0813 52.4956 26.7476 49 25.5121Z" fill="#3730A3" style="mix-blend-mode:color"/>
<path fill-rule="evenodd" clip-rule="evenodd" d="M49 25.5121C49 25.5081 49 25.504 49 25.5C49 18.5964 43.4036 13 36.5 13C31.1094 13 26.5158 16.4122 24.7613 21.1945C24.1946 21.0672 23.6051 21 23 21C18.5817 21 15 24.5817 15 29C15 29.0236 15.0001 29.0473 15.0003 29.0708C11.6079 29.5559 9 32.4734 9 36C9 39.866 12.134 43 16 43H46C50.9706 43 55 38.9706 55 34C55 30.0813 52.4956 26.7476 49 25.5121Z" fill="#4338CA" fill-opacity="0.15" style="mix-blend-mode:multiply"/>
<g filter="url(#filter11_ii_4_34822)">
<path d="M28.7588 52.9402L32.3735 47.0253C32.4913 46.8325 32.7884 46.9524 32.7393 47.1729L31.2356 53.9398C31.0979 54.5593 30.5485 55 29.914 55C28.8567 55 28.2075 53.8423 28.7588 52.9402Z" fill="#3B82F6"/>
</g>
<path d="M30.8204 54.0909C30.6045 54.5993 30.0174 54.8363 29.5091 54.6204C29.0007 54.4044 28.7637 53.8173 28.9796 53.309C29.1956 52.8007 31.4917 48.2841 32 48.5C32.5083 48.716 31.0364 53.5826 30.8204 54.0909Z" fill="url(#paint7_radial_4_34822)"/>
<g filter="url(#filter12_ii_4_34822)">
<path d="M22.7588 52.9402L26.3735 47.0253C26.4913 46.8325 26.7884 46.9524 26.7393 47.1729L25.2356 53.9398C25.0979 54.5593 24.5485 55 23.914 55C22.8567 55 22.2075 53.8423 22.7588 52.9402Z" fill="#3B82F6"/>
</g>
<path d="M24.8204 54.0909C24.6045 54.5993 24.0174 54.8363 23.5091 54.6204C23.0007 54.4044 22.7637 53.8173 22.9796 53.309C23.1956 52.8007 25.4917 48.2841 26 48.5C26.5083 48.716 25.0364 53.5826 24.8204 54.0909Z" fill="url(#paint8_radial_4_34822)"/>
<g filter="url(#filter13_dii_4_34822)">
<path fill-rule="evenodd" clip-rule="evenodd" d="M41.0313 47V48.768L42.5624 47.884C43.0407 47.6079 43.6522 47.7718 43.9284 48.2501C44.2045 48.7284 44.0407 49.3399 43.5624 49.6161L43.561 49.6169L42.0313 50.5001L43.5612 51.3833C43.5616 51.3836 43.562 51.3838 43.5624 51.384C44.0407 51.6602 44.2045 52.2718 43.9284 52.7501C43.6522 53.2284 43.0407 53.3922 42.5624 53.1161L41.0313 52.2321V54C41.0313 54.5523 40.5836 55 40.0313 55C39.479 55 39.0313 54.5523 39.0313 54V52.2321L37.5002 53.1161L37.5002 53.1161L37.5002 53.1161C37.0219 53.3922 36.4103 53.2284 36.1341 52.7501C35.858 52.2718 36.0219 51.6602 36.5002 51.384L36.5035 51.3821L38.0313 50.5001L36.5036 49.6181C36.5025 49.6174 36.5013 49.6167 36.5002 49.6161C36.0219 49.3399 35.858 48.7284 36.1341 48.2501C36.4103 47.7718 37.0219 47.6079 37.5002 47.884C37.5002 47.884 37.5002 47.884 37.5002 47.884L37.5002 47.884L39.0313 48.768V47C39.0313 46.4477 39.479 46 40.0313 46C40.5836 46 41.0313 46.4477 41.0313 47Z" fill="#E2E8F0"/>
</g>
<g style="mix-blend-mode:color">
<path fill-rule="evenodd" clip-rule="evenodd" d="M41.0313 47V48.768L42.5624 47.884C43.0407 47.6079 43.6522 47.7718 43.9284 48.2501C44.2045 48.7284 44.0407 49.3399 43.5624 49.6161L43.561 49.6169L42.0313 50.5001L43.5612 51.3833C43.5616 51.3836 43.562 51.3838 43.5624 51.384C44.0407 51.6602 44.2045 52.2718 43.9284 52.7501C43.6522 53.2284 43.0407 53.3922 42.5624 53.1161L41.0313 52.2321V54C41.0313 54.5523 40.5836 55 40.0313 55C39.479 55 39.0313 54.5523 39.0313 54V52.2321L37.5002 53.1161L37.5002 53.1161L37.5002 53.1161C37.0219 53.3922 36.4103 53.2284 36.1341 52.7501C35.858 52.2718 36.0219 51.6602 36.5002 51.384L36.5035 51.3821L38.0313 50.5001L36.5036 49.6181C36.5025 49.6174 36.5013 49.6167 36.5002 49.6161C36.0219 49.3399 35.858 48.7284 36.1341 48.2501C36.4103 47.7718 37.0219 47.6079 37.5002 47.884C37.5002 47.884 37.5002 47.884 37.5002 47.884L37.5002 47.884L39.0313 48.768V47C39.0313 46.4477 39.479 46 40.0313 46C40.5836 46 41.0313 46.4477 41.0313 47Z" fill="#BFDBFE"/>
</g>
<circle cx="40.0342" cy="47.05" r="0.75" fill="url(#paint9_linear_4_34822)"/>
<circle cx="37.0342" cy="48.75" r="0.75" fill="url(#paint10_linear_4_34822)"/>
<circle cx="37.0342" cy="52.25" r="0.75" fill="url(#paint11_linear_4_34822)"/>
<circle cx="43.0342" cy="48.75" r="0.75" fill="url(#paint12_linear_4_34822)"/>
<circle cx="43.0342" cy="52.25" r="0.75" fill="url(#paint13_linear_4_34822)"/>
<defs>
<filter id="filter0_f_4_34822" x="11" y="40" width="40" height="15" filterUnits="userSpaceOnUse" color-interpolation-filters="sRGB">
<feFlood flood-opacity="0" result="BackgroundImageFix"/>
<feBlend mode="normal" in="SourceGraphic" in2="BackgroundImageFix" result="shape"/>
<feGaussianBlur stdDeviation="1" result="effect1_foregroundBlur_4_34822"/>
</filter>
<filter id="filter1_d_4_34822" x="5" y="11" width="54" height="38" filterUnits="userSpaceOnUse" color-interpolation-filters="sRGB">
<feFlood flood-opacity="0" result="BackgroundImageFix"/>
<feColorMatrix in="SourceAlpha" type="matrix" values="0 0 0 0 0 0 0 0 0 0 0 0 0 0 0 0 0 0 127 0" result="hardAlpha"/>
<feOffset dy="2"/>
<feGaussianBlur stdDeviation="2"/>
<feComposite in2="hardAlpha" operator="out"/>
<feColorMatrix type="matrix" values="0 0 0 0 0.278431 0 0 0 0 0.333333 0 0 0 0 0.411765 0 0 0 0.4 0"/>
<feBlend mode="normal" in2="BackgroundImageFix" result="effect1_dropShadow_4_34822"/>
<feBlend mode="normal" in="SourceGraphic" in2="effect1_dropShadow_4_34822" result="shape"/>
</filter>
<filter id="filter2_ii_4_34822" x="9" y="23" width="46" height="22" filterUnits="userSpaceOnUse" color-interpolation-filters="sRGB">
<feFlood flood-opacity="0" result="BackgroundImageFix"/>
<feBlend mode="normal" in="SourceGraphic" in2="BackgroundImageFix" result="shape"/>
<feColorMatrix in="SourceAlpha" type="matrix" values="0 0 0 0 0 0 0 0 0 0 0 0 0 0 0 0 0 0 127 0" result="hardAlpha"/>
<feOffset dy="2"/>
<feGaussianBlur stdDeviation="1"/>
<feComposite in2="hardAlpha" operator="arithmetic" k2="-1" k3="1"/>
<feColorMatrix type="matrix" values="0 0 0 0 0.796078 0 0 0 0 0.835294 0 0 0 0 0.882353 0 0 0 1 0"/>
<feBlend mode="normal" in2="shape" result="effect1_innerShadow_4_34822"/>
<feColorMatrix in="SourceAlpha" type="matrix" values="0 0 0 0 0 0 0 0 0 0 0 0 0 0 0 0 0 0 127 0" result="hardAlpha"/>
<feOffset dy="-2"/>
<feGaussianBlur stdDeviation="1"/>
<feComposite in2="hardAlpha" operator="arithmetic" k2="-1" k3="1"/>
<feColorMatrix type="matrix" values="0 0 0 0 0.796078 0 0 0 0 0.835294 0 0 0 0 0.882353 0 0 0 0.6 0"/>
<feBlend mode="normal" in2="effect1_innerShadow_4_34822" result="effect2_innerShadow_4_34822"/>
</filter>
<filter id="filter3_f_4_34822" x="9" y="29" width="14" height="14" filterUnits="userSpaceOnUse" color-interpolation-filters="sRGB">
<feFlood flood-opacity="0" result="BackgroundImageFix"/>
<feBlend mode="normal" in="SourceGraphic" in2="BackgroundImageFix" result="shape"/>
<feGaussianBlur stdDeviation="1" result="effect1_foregroundBlur_4_34822"/>
</filter>
<filter id="filter4_i_4_34822" x="15" y="21" width="16" height="18" filterUnits="userSpaceOnUse" color-interpolation-filters="sRGB">
<feFlood flood-opacity="0" result="BackgroundImageFix"/>
<feBlend mode="normal" in="SourceGraphic" in2="BackgroundImageFix" result="shape"/>
<feColorMatrix in="SourceAlpha" type="matrix" values="0 0 0 0 0 0 0 0 0 0 0 0 0 0 0 0 0 0 127 0" result="hardAlpha"/>
<feOffset dy="2"/>
<feGaussianBlur stdDeviation="1"/>
<feComposite in2="hardAlpha" operator="arithmetic" k2="-1" k3="1"/>
<feColorMatrix type="matrix" values="0 0 0 0 0.796078 0 0 0 0 0.835294 0 0 0 0 0.882353 0 0 0 1 0"/>
<feBlend mode="normal" in2="shape" result="effect1_innerShadow_4_34822"/>
</filter>
<filter id="filter5_f_4_34822" x="15" y="21" width="16" height="14" filterUnits="userSpaceOnUse" color-interpolation-filters="sRGB">
<feFlood flood-opacity="0" result="BackgroundImageFix"/>
<feBlend mode="normal" in="SourceGraphic" in2="BackgroundImageFix" result="shape"/>
<feGaussianBlur stdDeviation="1" result="effect1_foregroundBlur_4_34822"/>
</filter>
<filter id="filter6_f_4_34822" x="40" y="26" width="14" height="14" filterUnits="userSpaceOnUse" color-interpolation-filters="sRGB">
<feFlood flood-opacity="0" result="BackgroundImageFix"/>
<feBlend mode="normal" in="SourceGraphic" in2="BackgroundImageFix" result="shape"/>
<feGaussianBlur stdDeviation="1" result="effect1_foregroundBlur_4_34822"/>
</filter>
<filter id="filter7_i_4_34822" x="24" y="13" width="25" height="27" filterUnits="userSpaceOnUse" color-interpolation-filters="sRGB">
<feFlood flood-opacity="0" result="BackgroundImageFix"/>
<feBlend mode="normal" in="SourceGraphic" in2="BackgroundImageFix" result="shape"/>
<feColorMatrix in="SourceAlpha" type="matrix" values="0 0 0 0 0 0 0 0 0 0 0 0 0 0 0 0 0 0 127 0" result="hardAlpha"/>
<feOffset dy="2"/>
<feGaussianBlur stdDeviation="1"/>
<feComposite in2="hardAlpha" operator="arithmetic" k2="-1" k3="1"/>
<feColorMatrix type="matrix" values="0 0 0 0 0.796078 0 0 0 0 0.835294 0 0 0 0 0.882353 0 0 0 1 0"/>
<feBlend mode="normal" in2="shape" result="effect1_innerShadow_4_34822"/>
</filter>
<filter id="filter8_f_4_34822" x="27" y="13" width="18" height="14" filterUnits="userSpaceOnUse" color-interpolation-filters="sRGB">
<feFlood flood-opacity="0" result="BackgroundImageFix"/>
<feBlend mode="normal" in="SourceGraphic" in2="BackgroundImageFix" result="shape"/>
<feGaussianBlur stdDeviation="1" result="effect1_foregroundBlur_4_34822"/>
</filter>
<filter id="filter9_i_4_34822" x="23" y="27" width="18" height="15" filterUnits="userSpaceOnUse" color-interpolation-filters="sRGB">
<feFlood flood-opacity="0" result="BackgroundImageFix"/>
<feBlend mode="normal" in="SourceGraphic" in2="BackgroundImageFix" result="shape"/>
<feColorMatrix in="SourceAlpha" type="matrix" values="0 0 0 0 0 0 0 0 0 0 0 0 0 0 0 0 0 0 127 0" result="hardAlpha"/>
<feOffset dy="2"/>
<feGaussianBlur stdDeviation="1"/>
<feComposite in2="hardAlpha" operator="arithmetic" k2="-1" k3="1"/>
<feColorMatrix type="matrix" values="0 0 0 0 0.796078 0 0 0 0 0.835294 0 0 0 0 0.882353 0 0 0 0.6 0"/>
<feBlend mode="normal" in2="shape" result="effect1_innerShadow_4_34822"/>
</filter>
<filter id="filter10_f_4_34822" x="23" y="27" width="18" height="13" filterUnits="userSpaceOnUse" color-interpolation-filters="sRGB">
<feFlood flood-opacity="0" result="BackgroundImageFix"/>
<feBlend mode="normal" in="SourceGraphic" in2="BackgroundImageFix" result="shape"/>
<feGaussianBlur stdDeviation="1" result="effect1_foregroundBlur_4_34822"/>
</filter>
<filter id="filter11_ii_4_34822" x="28.558" y="46.4286" width="4.18677" height="8.57135" filterUnits="userSpaceOnUse" color-interpolation-filters="sRGB">
<feFlood flood-opacity="0" result="BackgroundImageFix"/>
<feBlend mode="normal" in="SourceGraphic" in2="BackgroundImageFix" result="shape"/>
<feColorMatrix in="SourceAlpha" type="matrix" values="0 0 0 0 0 0 0 0 0 0 0 0 0 0 0 0 0 0 127 0" result="hardAlpha"/>
<feOffset dy="-1"/>
<feComposite in2="hardAlpha" operator="arithmetic" k2="-1" k3="1"/>
<feColorMatrix type="matrix" values="0 0 0 0 0.231373 0 0 0 0 0.509804 0 0 0 0 0.964706 0 0 0 1 0"/>
<feBlend mode="normal" in2="shape" result="effect1_innerShadow_4_34822"/>
<feColorMatrix in="SourceAlpha" type="matrix" values="0 0 0 0 0 0 0 0 0 0 0 0 0 0 0 0 0 0 127 0" result="hardAlpha"/>
<feOffset dy="-0.5"/>
<feGaussianBlur stdDeviation="0.25"/>
<feComposite in2="hardAlpha" operator="arithmetic" k2="-1" k3="1"/>
<feColorMatrix type="matrix" values="0 0 0 0 0.113438 0 0 0 0 0.33625 0 0 0 0 0.825 0 0 0 1 0"/>
<feBlend mode="normal" in2="effect1_innerShadow_4_34822" result="effect2_innerShadow_4_34822"/>
</filter>
<filter id="filter12_ii_4_34822" x="22.558" y="46.4286" width="4.18677" height="8.57135" filterUnits="userSpaceOnUse" color-interpolation-filters="sRGB">
<feFlood flood-opacity="0" result="BackgroundImageFix"/>
<feBlend mode="normal" in="SourceGraphic" in2="BackgroundImageFix" result="shape"/>
<feColorMatrix in="SourceAlpha" type="matrix" values="0 0 0 0 0 0 0 0 0 0 0 0 0 0 0 0 0 0 127 0" result="hardAlpha"/>
<feOffset dy="-1"/>
<feComposite in2="hardAlpha" operator="arithmetic" k2="-1" k3="1"/>
<feColorMatrix type="matrix" values="0 0 0 0 0.231373 0 0 0 0 0.509804 0 0 0 0 0.964706 0 0 0 1 0"/>
<feBlend mode="normal" in2="shape" result="effect1_innerShadow_4_34822"/>
<feColorMatrix in="SourceAlpha" type="matrix" values="0 0 0 0 0 0 0 0 0 0 0 0 0 0 0 0 0 0 127 0" result="hardAlpha"/>
<feOffset dy="-0.5"/>
<feGaussianBlur stdDeviation="0.25"/>
<feComposite in2="hardAlpha" operator="arithmetic" k2="-1" k3="1"/>
<feColorMatrix type="matrix" values="0 0 0 0 0.113438 0 0 0 0 0.33625 0 0 0 0 0.825 0 0 0 1 0"/>
<feBlend mode="normal" in2="effect1_innerShadow_4_34822" result="effect2_innerShadow_4_34822"/>
</filter>
<filter id="filter13_dii_4_34822" x="33" y="44" width="14.0625" height="15" filterUnits="userSpaceOnUse" color-interpolation-filters="sRGB">
<feFlood flood-opacity="0" result="BackgroundImageFix"/>
<feColorMatrix in="SourceAlpha" type="matrix" values="0 0 0 0 0 0 0 0 0 0 0 0 0 0 0 0 0 0 127 0" result="hardAlpha"/>
<feOffset dy="1"/>
<feGaussianBlur stdDeviation="1.5"/>
<feComposite in2="hardAlpha" operator="out"/>
<feColorMatrix type="matrix" values="0 0 0 0 0.278431 0 0 0 0 0.333333 0 0 0 0 0.411765 0 0 0 0.3 0"/>
<feBlend mode="normal" in2="BackgroundImageFix" result="effect1_dropShadow_4_34822"/>
<feBlend mode="normal" in="SourceGraphic" in2="effect1_dropShadow_4_34822" result="shape"/>
<feColorMatrix in="SourceAlpha" type="matrix" values="0 0 0 0 0 0 0 0 0 0 0 0 0 0 0 0 0 0 127 0" result="hardAlpha"/>
<feOffset dy="0.5"/>
<feGaussianBlur stdDeviation="0.25"/>
<feComposite in2="hardAlpha" operator="arithmetic" k2="-1" k3="1"/>
<feColorMatrix type="matrix" values="0 0 0 0 0.580392 0 0 0 0 0.639216 0 0 0 0 0.721569 0 0 0 1 0"/>
<feBlend mode="normal" in2="shape" result="effect2_innerShadow_4_34822"/>
<feColorMatrix in="SourceAlpha" type="matrix" values="0 0 0 0 0 0 0 0 0 0 0 0 0 0 0 0 0 0 127 0" result="hardAlpha"/>
<feOffset dy="-0.5"/>
<feGaussianBlur stdDeviation="0.25"/>
<feComposite in2="hardAlpha" operator="arithmetic" k2="-1" k3="1"/>
<feColorMatrix type="matrix" values="0 0 0 0 0.580392 0 0 0 0 0.639216 0 0 0 0 0.721569 0 0 0 1 0"/>
<feBlend mode="normal" in2="effect2_innerShadow_4_34822" result="effect3_innerShadow_4_34822"/>
</filter>
<linearGradient id="paint0_linear_4_34822" x1="31" y1="42" x2="31" y2="53" gradientUnits="userSpaceOnUse">
<stop stop-color="#A5B4FC"/>
<stop offset="1" stop-color="#818CF8" stop-opacity="0"/>
</linearGradient>
<linearGradient id="paint1_linear_4_34822" x1="16" y1="31" x2="16" y2="41" gradientUnits="userSpaceOnUse">
<stop stop-color="white"/>
<stop offset="1" stop-color="#F3F3F3" stop-opacity="0.2"/>
</linearGradient>
<linearGradient id="paint2_linear_4_34822" x1="23" y1="23" x2="23" y2="33" gradientUnits="userSpaceOnUse">
<stop stop-color="white"/>
<stop offset="1" stop-color="#F3F3F3" stop-opacity="0.2"/>
</linearGradient>
<linearGradient id="paint3_linear_4_34822" x1="47" y1="28" x2="47" y2="38" gradientUnits="userSpaceOnUse">
<stop stop-color="white"/>
<stop offset="1" stop-color="#F3F3F3" stop-opacity="0.2"/>
</linearGradient>
<linearGradient id="paint4_linear_4_34822" x1="36" y1="15" x2="36" y2="25" gradientUnits="userSpaceOnUse">
<stop stop-color="white"/>
<stop offset="1" stop-color="#F3F3F3" stop-opacity="0.2"/>
</linearGradient>
<linearGradient id="paint5_linear_4_34822" x1="32" y1="27" x2="32" y2="40" gradientUnits="userSpaceOnUse">
<stop stop-color="#F1F5F9"/>
<stop offset="0.650321" stop-color="#F1F5F9" stop-opacity="0"/>
</linearGradient>
<linearGradient id="paint6_linear_4_34822" x1="32" y1="29" x2="32" y2="38" gradientUnits="userSpaceOnUse">
<stop stop-color="white"/>
<stop offset="1" stop-color="#F3F3F3" stop-opacity="0.2"/>
</linearGradient>
<radialGradient id="paint7_radial_4_34822" cx="0" cy="0" r="1" gradientUnits="userSpaceOnUse" gradientTransform="translate(29.5 54.5) rotate(-68.1986) scale(5.38516)">
<stop stop-color="#74D5FF"/>
<stop offset="0.37551" stop-color="#74D5FF" stop-opacity="0"/>
</radialGradient>
<radialGradient id="paint8_radial_4_34822" cx="0" cy="0" r="1" gradientUnits="userSpaceOnUse" gradientTransform="translate(23.5 54.5) rotate(-68.1986) scale(5.38516)">
<stop stop-color="#74D5FF"/>
<stop offset="0.37551" stop-color="#74D5FF" stop-opacity="0"/>
</radialGradient>
<linearGradient id="paint9_linear_4_34822" x1="40.0342" y1="46.3" x2="40.0342" y2="47.8" gradientUnits="userSpaceOnUse">
<stop stop-color="#E2E8F0"/>
<stop offset="1" stop-color="#E2E8F0" stop-opacity="0"/>
</linearGradient>
<linearGradient id="paint10_linear_4_34822" x1="37.0342" y1="48" x2="37.0342" y2="49.5" gradientUnits="userSpaceOnUse">
<stop stop-color="#E2E8F0"/>
<stop offset="1" stop-color="#E2E8F0" stop-opacity="0"/>
</linearGradient>
<linearGradient id="paint11_linear_4_34822" x1="37.0342" y1="51.5" x2="37.0342" y2="53" gradientUnits="userSpaceOnUse">
<stop stop-color="#E2E8F0"/>
<stop offset="1" stop-color="#E2E8F0" stop-opacity="0"/>
</linearGradient>
<linearGradient id="paint12_linear_4_34822" x1="43.0342" y1="48" x2="43.0342" y2="49.5" gradientUnits="userSpaceOnUse">
<stop stop-color="#E2E8F0"/>
<stop offset="1" stop-color="#E2E8F0" stop-opacity="0"/>
</linearGradient>
<linearGradient id="paint13_linear_4_34822" x1="43.0342" y1="51.5" x2="43.0342" y2="53" gradientUnits="userSpaceOnUse">
<stop stop-color="#E2E8F0"/>
<stop offset="1" stop-color="#E2E8F0" stop-opacity="0"/>
</linearGradient>
</defs>
</svg>
