<svg width="64" height="64" viewBox="0 0 64 64" fill="none" xmlns="http://www.w3.org/2000/svg">
<g filter="url(#filter0_ii_4_34747)">
<path d="M28.7588 56.9402L32.3735 51.0253C32.4913 50.8325 32.7884 50.9524 32.7393 51.1729L31.2356 57.9398C31.0979 58.5593 30.5485 59 29.914 59C28.8567 59 28.2075 57.8423 28.7588 56.9402Z" fill="#3B82F6"/>
</g>
<path d="M30.8204 58.0909C30.6045 58.5992 30.0174 58.8363 29.5091 58.6203C29.0007 58.4044 28.7637 57.8173 28.9796 57.309C29.1956 56.8006 31.4917 52.2841 32 52.5C32.5083 52.7159 31.0364 57.5826 30.8204 58.0909Z" fill="url(#paint0_radial_4_34747)"/>
<g filter="url(#filter1_ii_4_34747)">
<path d="M22.7588 56.9402L26.3735 51.0253C26.4913 50.8325 26.7884 50.9524 26.7393 51.1729L25.2356 57.9398C25.0979 58.5593 24.5485 59 23.914 59C22.8567 59 22.2075 57.8423 22.7588 56.9402Z" fill="#3B82F6"/>
</g>
<path d="M24.8204 58.0909C24.6045 58.5992 24.0174 58.8363 23.5091 58.6203C23.0007 58.4044 22.7637 57.8173 22.9796 57.309C23.1956 56.8006 25.4917 52.2841 26 52.5C26.5083 52.7159 25.0364 57.5826 24.8204 58.0909Z" fill="url(#paint1_radial_4_34747)"/>
<g filter="url(#filter2_ii_4_34747)">
<circle cx="23" cy="25.9995" r="16" fill="url(#paint2_linear_4_34747)"/>
</g>
<g style="mix-blend-mode:multiply" opacity="0.6">
<path fill-rule="evenodd" clip-rule="evenodd" d="M13.2046 30.1914C13.0838 30.985 12.969 30.8759 12.7713 30.6881L12.7713 30.6881C12.5956 30.5213 12.3546 30.2924 11.9861 30.5792C11.7211 30.875 11.3439 31.5717 11.5221 31.7673C12.5608 31.5767 12.556 32.7435 11.5044 32.5298C10.8382 32.8806 10.4099 32.6588 10.135 32.5165C9.90262 32.3961 9.77997 32.3326 9.71597 32.7204C9.80456 33.2477 10.2335 33.3439 10.5813 33.4218C10.9142 33.4964 11.1728 33.5544 10.9875 33.9578L10.9808 33.9903L10.9808 33.9904C10.9034 34.3669 10.8454 34.6487 11.4354 34.7302C12.0613 34.6951 12.0309 35.2599 12.002 35.7964C11.97 36.3898 11.9399 36.9487 12.8016 36.6233C14.215 36.5198 13.7559 37.3791 13.2826 38.2651C13.226 38.371 13.1692 38.4773 13.1154 38.5824C9.39147 35.6528 7 31.1057 7 26C7 20.4629 9.81271 15.5827 14.0873 12.7103C14.2478 12.7441 14.4029 12.816 14.5451 12.9496L14.5467 12.9529C14.5146 12.7404 14.5708 12.5255 14.6753 12.3335C15.0258 12.1195 15.3852 11.9187 15.7529 11.7316C15.8405 11.8167 15.8793 11.982 15.8343 12.2496C15.9109 12.2833 15.9988 12.2837 16.0801 12.2841H16.0801C16.2523 12.285 16.3946 12.2857 16.3368 12.6029C16.3123 12.8905 16.0505 12.9504 15.8068 13.0061L15.8068 13.0061C15.5076 13.0746 15.2358 13.1368 15.465 13.6069C15.441 13.6962 15.4119 13.7912 15.3818 13.8897C15.1921 14.5092 14.9589 15.2711 15.6625 15.6709C16.619 13.1557 18.5864 13.8866 19.6738 14.2905L19.6739 14.2905C20.293 14.5205 20.6268 14.6445 20.3263 14.003C18.403 13.3358 19.4144 11.3983 21.1466 12.2134C20.8719 11.8097 20.4573 11.7316 20.0532 11.6554L20.0531 11.6554L20.053 11.6554C19.6331 11.5763 19.2244 11.4994 18.9954 11.0614C19.0051 10.9238 19.1502 10.6847 19.327 10.4236C19.917 10.285 20.5195 10.1791 21.1326 10.1078C21.3014 10.7842 21.6143 11.3426 22.028 11.275C22.2299 11.3205 22.4813 11.316 22.7345 11.3114L22.7346 11.3114C23.3411 11.3005 23.9581 11.2894 23.9321 11.9653C24.5673 11.6876 24.6604 12.0659 24.751 12.4337L24.751 12.4337C24.781 12.5558 24.8108 12.6767 24.86 12.7721C26.8703 13.8453 26.3149 14.0272 25.6982 14.2292L25.6982 14.2292L25.6981 14.2292C25.262 14.3721 24.7952 14.5249 25.1843 15.0103C24.9348 15.3958 24.5096 15.1613 24.0772 14.9227C23.5971 14.6579 23.1081 14.3881 22.8404 14.9561C22.7274 15.2448 23.1401 15.5548 23.6062 15.9049L23.6062 15.9049C24.1669 16.3261 24.8048 16.8052 24.6979 17.3751C24.2974 17.9689 24.6718 18.3311 25.0718 18.7181C25.4512 19.0851 25.8536 19.4744 25.6402 20.1046C25.3705 20.8211 26.4638 21.1728 26.6806 20.3429C26.8299 19.7316 27.2938 19.9551 27.7064 20.2262C27.0225 19.6543 26.5778 17.3553 27.8959 18.366C27.9755 18.843 28.3427 19.0568 28.6947 19.2618C29.1019 19.4988 29.4889 19.7242 29.3873 20.3314C28.7383 21.4855 31.0515 22.797 33.1548 23.9895C34.5166 24.7616 35.7908 25.4841 36.1157 26.0814C35.9776 27.0345 36.6037 26.7404 36.4143 25.9828C36.4312 25.8838 36.3779 25.7733 36.3271 25.6681L36.3271 25.6681L36.327 25.668C36.2473 25.5027 36.1738 25.3505 36.3886 25.2762C36.6396 25.1887 36.6994 25.3892 36.7624 25.6L36.7624 25.6L36.7625 25.6C36.7942 25.7061 36.8266 25.8149 36.8847 25.8908C37.0469 24.1653 38.6876 27.0559 37.0131 27.3632C38.3201 28.3695 38.0473 29.5891 37.7682 30.837C37.6302 31.4542 37.4906 32.0784 37.5398 32.6871C37.2788 33.2538 36.9855 33.8027 36.6624 34.3314C36.6152 34.2293 36.6045 34.0723 36.6503 33.8478C36.6608 33.5727 36.7861 33.1133 36.9258 32.6007L36.9258 32.6007C37.2754 31.3184 37.7156 29.7037 36.6776 29.8117C36.5044 30.533 36.5027 31.3138 36.501 32.1089V32.109C36.4988 33.128 36.4965 34.1706 36.1332 35.1414C35.585 35.9275 34.9681 36.662 34.2911 37.3363C34.0849 37.2365 33.9509 36.8561 33.7959 36.4165C33.6538 36.0132 33.4941 35.5601 33.2452 35.2281C33.9853 35.3432 34.5504 34.6842 34.9534 33.4024C34.4878 33.5538 34.1654 33.2821 33.9161 33.0721C33.6136 32.8171 33.4188 32.653 33.2067 33.4468C32.1615 32.4772 30.6877 30.4132 31.0602 28.857C31.552 27.8534 31.0283 27.9614 30.3563 28.1002C29.9709 28.1797 29.5366 28.2694 29.2172 28.1651C27.5074 27.7033 27.6872 29.7575 27.8477 30.8619C27.6225 31.4104 27.8916 31.7552 28.1594 32.0983L28.1594 32.0983L28.1596 32.0985L28.1596 32.0985L28.1596 32.0986C28.3041 32.2837 28.4482 32.4683 28.514 32.6843C28.7764 32.7396 29.023 32.7073 29.2599 32.6762L29.2601 32.6762C29.7551 32.6113 30.208 32.5519 30.6749 33.3087C31.6868 33.6741 31.472 34.3595 31.2482 35.0736C31.0381 35.7438 30.82 36.4393 31.6012 36.9191C32.2097 37.6882 31.6879 38.4918 30.8756 38.7941C30.9617 37.1505 30.9091 37.1629 30.5516 37.2471C30.3096 37.3042 29.928 37.394 29.3552 37.026C29.5864 37.915 28.7901 38.081 28.3518 37.5978C28.4339 37.3157 28.3668 37.0853 28.3003 36.857L28.3003 36.857L28.3003 36.857C28.2471 36.6745 28.1943 36.4933 28.2186 36.2881C27.8493 36.7877 27.4415 36.3226 27.5266 35.8099C27.4034 35.3391 27.8389 34.9378 28.2135 34.5926L28.2136 34.5926C28.6732 34.1692 29.0413 33.8301 28.1736 33.5503C27.8514 33.1715 27.5952 33.6501 27.3336 34.1389C27.1389 34.5026 26.9412 34.8719 26.7111 34.8978C26.502 34.6927 26.6102 34.4393 26.7264 34.1674L26.7264 34.1673C26.8448 33.8902 26.9713 33.594 26.7785 33.3104C26.7802 32.5601 26.1452 32.8145 25.6223 33.0241C25.1477 33.2143 24.7654 33.3676 25.035 32.6991C25.9068 31.9941 24.9804 31.3549 24.7364 32.5725C24.2225 32.1731 24.631 31.4988 24.9885 30.9088C25.3971 30.2344 25.739 29.6702 24.5598 29.7526C24.2566 30.0755 24.1384 29.9539 23.9811 29.7921L23.9811 29.7921C23.891 29.6994 23.7881 29.5935 23.6302 29.5504C22.1018 29.716 21.9228 28.4308 21.7326 27.0655C21.566 25.8695 21.3908 24.6121 20.2926 24.2146C19.8857 23.7864 19.96 24.0974 20.0451 24.4537C20.0916 24.6486 20.1414 24.857 20.1176 24.9656C18.9357 24.6946 19.0109 25.1912 19.0649 25.5478C19.1161 25.8854 19.1482 26.0975 18.0771 25.4142C18.0979 26.065 18.0353 28.6121 17.2181 27.4815C16.7802 26.8275 16.0962 26.5978 15.4401 26.3774C14.7494 26.1454 14.0897 25.9239 13.7809 25.2285C13.0376 24.5348 13.3309 24.0689 13.6854 23.5057L13.6854 23.5057L13.6855 23.5055L13.6855 23.5055C13.808 23.3109 13.9377 23.1048 14.0346 22.8736C13.9297 21.8613 14.3461 22.1471 14.8174 22.4706L14.8175 22.4707C15.0171 22.6077 15.2265 22.7515 15.4104 22.8063C15.2781 22.5731 15.1508 22.3719 15.0447 22.2043C14.623 21.5381 14.5368 21.4018 15.8054 21.8876C15.4651 21.4029 15.6483 20.9996 15.8337 20.5915L15.8337 20.5915L15.8337 20.5914C15.9317 20.3756 16.0304 20.1585 16.0526 19.9272C16.0662 19.7866 15.9964 19.6437 15.9271 19.5021L15.9271 19.502C15.8004 19.2431 15.6758 18.9882 16.0671 18.7587C15.7765 18.3956 14.8871 18.338 14.7297 18.974C14.627 20.0948 13.3844 19.9765 13.2575 19.117C14.102 18.8984 14.6623 18.6306 14.4247 17.5016C15.16 16.0489 10.6359 17.592 10.7483 18.3052C10.7952 18.5608 11.0384 18.58 11.2657 18.598L11.2659 18.598L11.2659 18.598C11.5048 18.6168 11.7262 18.6343 11.6842 18.9231C11.465 19.1333 11.1791 19.0805 10.8973 19.0284C10.4939 18.9538 10.0987 18.8807 9.91826 19.582C9.51298 20.7105 10.451 20.803 11.2556 20.8824L11.2556 20.8824C11.761 20.9322 12.2137 20.9769 12.2477 21.2697C12.273 21.5233 12.4538 21.4712 12.6573 21.4125L12.6573 21.4125C12.8166 21.3666 12.9897 21.3167 13.1131 21.4062C12.7984 21.9271 11.1304 23.7117 10.8526 23.8301C10.9722 24.0929 11.5535 24.4612 12.1566 24.8432L12.1567 24.8432C13.2465 25.5336 14.4077 26.2691 13.0456 26.5103C12.567 26.5296 12.6221 26.7263 12.6719 26.9045C12.7366 27.1356 12.7925 27.3355 11.6618 27.0756C11.6587 27.4733 12.0075 27.4917 12.2902 27.5066C12.6033 27.5231 12.8354 27.5353 12.4195 28.0534C11.7725 28.9935 12.2132 29.1075 12.6779 29.2277L12.678 29.2277C13.1012 29.3371 13.5443 29.4517 13.2046 30.1996V30.1914ZM32.2376 20.1041L32.2377 20.1045C32.2947 20.2427 32.3525 20.3828 32.3926 20.5282C30.799 20.1709 36.0194 25.5272 36.1061 19.8614C36.159 19.329 35.7095 18.3578 35.4222 17.8418C34.9163 17.8053 34.5282 17.415 34.1584 17.043L34.1583 17.0429C33.7628 16.6451 33.3882 16.2684 32.9129 16.3677C32.3237 16.9182 30.4373 18.7998 32.0716 19.1827C31.9899 19.5038 32.1118 19.7991 32.2376 20.1041ZM13.5856 29.4456L13.5856 29.4455C13.7058 29.0363 13.8154 28.6631 14.0266 29.2169C14.0992 29.4843 14.3132 29.4376 14.6028 29.3744L14.6029 29.3744L14.6029 29.3744C15.0749 29.2715 15.7478 29.1247 16.3368 30.2226C16.1974 30.3338 16.0459 30.4311 15.8944 30.5283L15.8943 30.5284C15.5064 30.7774 15.1183 31.0265 14.9336 31.511C14.6751 32.0927 13.3298 31.5783 13.3651 31.1593C13.4818 30.9096 13.3939 30.7144 13.3149 30.539L13.3148 30.539C13.2363 30.3646 13.1665 30.2098 13.3153 30.0402C13.4288 29.9796 13.5093 29.7053 13.5856 29.4456Z" fill="#94A3B8"/>
</g>
<g filter="url(#filter3_f_4_34747)">
<ellipse cx="23" cy="19.3329" rx="9.33333" ry="6.66667" fill="url(#paint3_linear_4_34747)" style="mix-blend-mode:soft-light"/>
</g>
<g filter="url(#filter4_di_4_34747)">
<ellipse cx="30.5" cy="19.0001" rx="1.5" ry="2" transform="rotate(-22.1932 30.5 19.0001)" fill="#94A3B8"/>
</g>
<g filter="url(#filter5_di_4_34747)">
<ellipse cx="26.7554" cy="25.9185" rx="1.87701" ry="1.30625" transform="rotate(-22.1932 26.7554 25.9185)" fill="#64748B"/>
</g>
<g filter="url(#filter6_di_4_34747)">
<ellipse cx="17.0198" cy="16.8763" rx="1.49447" ry="1.5255" transform="rotate(15.8877 17.0198 16.8763)" fill="#94A3B8"/>
</g>
<g filter="url(#filter7_di_4_34747)">
<ellipse cx="19.0298" cy="38.0545" rx="1.56468" ry="1.60711" transform="rotate(-20.5835 19.0298 38.0545)" fill="#475569"/>
</g>
<g filter="url(#filter8_di_4_34747)">
<ellipse cx="26.9518" cy="33.0825" rx="2.40196" ry="2" transform="rotate(-20.5835 26.9518 33.0825)" fill="#475569"/>
</g>
<g filter="url(#filter9_di_4_34747)">
<ellipse cx="16.5367" cy="28.5951" rx="1.23333" ry="1.02693" transform="rotate(56.5561 16.5367 28.5951)" fill="#64748B"/>
</g>
<g filter="url(#filter10_di_4_34747)">
<ellipse cx="11.5156" cy="31.3951" rx="0.5923" ry="0.49318" transform="rotate(-20.5835 11.5156 31.3951)" fill="#94A3B8"/>
</g>
<g filter="url(#filter11_di_4_34747)">
<ellipse cx="36.7278" cy="23.6699" rx="0.5923" ry="0.49318" transform="rotate(48.1814 36.7278 23.6699)" fill="#94A3B8"/>
</g>
<g filter="url(#filter12_di_4_34747)">
<ellipse cx="33.7625" cy="34.7703" rx="0.5923" ry="0.49318" transform="rotate(48.1814 33.7625 34.7703)" fill="#64748B"/>
</g>
<g filter="url(#filter13_di_4_34747)">
<ellipse cx="24.7278" cy="14.6698" rx="0.5923" ry="0.49318" transform="rotate(20.8278 24.7278 14.6698)" fill="#94A3B8"/>
</g>
<g filter="url(#filter14_di_4_34747)">
<ellipse cx="20.7289" cy="22.6716" rx="0.5923" ry="0.49318" transform="rotate(20.8278 20.7289 22.6716)" fill="#94A3B8"/>
</g>
<g filter="url(#filter15_di_4_34747)">
<ellipse cx="32.7289" cy="27.6716" rx="0.5923" ry="0.49318" transform="rotate(94.6584 32.7289 27.6716)" fill="#94A3B8"/>
</g>
<g filter="url(#filter16_di_4_34747)">
<ellipse cx="22.5397" cy="30.6304" rx="0.5923" ry="0.49318" transform="rotate(94.6584 22.5397 30.6304)" fill="#94A3B8"/>
</g>
<g filter="url(#filter17_di_4_34747)">
<ellipse cx="25.5397" cy="39.6304" rx="0.5923" ry="0.49318" transform="rotate(94.6584 25.5397 39.6304)" fill="#94A3B8"/>
</g>
<g filter="url(#filter18_f_4_34747)">
<path d="M21.0645 51.7391C20.1355 47.913 17.9677 46.3188 17 46H53C51.4516 47.7536 49.5161 50.2087 49.5161 51.7391C49.5161 53.2696 49.9032 55.8841 50.6774 57H19.9032C20.6774 56.8406 21.9935 55.5652 21.0645 51.7391Z" fill="url(#paint4_linear_4_34747)"/>
</g>
<g filter="url(#filter19_d_4_34747)">
<path fill-rule="evenodd" clip-rule="evenodd" d="M53 29.5121C53 29.5081 53 29.504 53 29.5C53 22.5964 47.4036 17 40.5 17C35.1094 17 30.5158 20.4122 28.7613 25.1945C28.1946 25.0672 27.6051 25 27 25C22.5817 25 19 28.5817 19 33C19 33.0236 19.0001 33.0473 19.0003 33.0708C15.6079 33.5559 13 36.4734 13 40C13 43.866 16.134 47 20 47H50C54.9706 47 59 42.9706 59 38C59 34.0813 56.4956 30.7476 53 29.5121Z" fill="#64748B"/>
</g>
<g filter="url(#filter20_ii_4_34747)">
<path fill-rule="evenodd" clip-rule="evenodd" d="M59 38C59 42.9706 54.9706 47 50 47H20C16.134 47 13 43.866 13 40C13 36.134 16.134 33 20 33C22.7924 33 25.2029 34.6351 26.3264 37H41.0549C41.5524 32.5 45.3674 29 50 29C54.9706 29 59 33.0294 59 38Z" fill="#F1F5F9"/>
</g>
<g filter="url(#filter21_f_4_34747)">
<circle cx="20" cy="40" r="5" fill="url(#paint5_linear_4_34747)" style="mix-blend-mode:soft-light"/>
</g>
<g filter="url(#filter22_i_4_34747)">
<circle cx="27" cy="33" r="8" fill="#F1F5F9"/>
</g>
<g filter="url(#filter23_f_4_34747)">
<ellipse cx="27" cy="32" rx="6" ry="5" fill="url(#paint6_linear_4_34747)" style="mix-blend-mode:soft-light"/>
</g>
<g filter="url(#filter24_f_4_34747)">
<circle cx="51" cy="37" r="5" fill="url(#paint7_linear_4_34747)" style="mix-blend-mode:soft-light"/>
</g>
<g filter="url(#filter25_i_4_34747)">
<circle cx="40.5" cy="29.5" r="12.5" fill="#F1F5F9"/>
</g>
<g filter="url(#filter26_f_4_34747)">
<ellipse cx="40" cy="24" rx="7" ry="5" fill="url(#paint8_linear_4_34747)" style="mix-blend-mode:soft-light"/>
</g>
<g filter="url(#filter27_i_4_34747)">
<ellipse cx="36" cy="37.5" rx="9" ry="6.5" fill="url(#paint9_linear_4_34747)"/>
</g>
<g filter="url(#filter28_f_4_34747)">
<ellipse cx="36" cy="37.5" rx="7" ry="4.5" fill="url(#paint10_linear_4_34747)" style="mix-blend-mode:soft-light"/>
</g>
<path fill-rule="evenodd" clip-rule="evenodd" d="M53 29.5121C53 29.5081 53 29.504 53 29.5C53 22.5964 47.4036 17 40.5 17C35.1094 17 30.5158 20.4122 28.7613 25.1945C28.1946 25.0672 27.6051 25 27 25C22.5817 25 19 28.5817 19 33C19 33.0236 19.0001 33.0473 19.0003 33.0708C15.6079 33.5559 13 36.4734 13 40C13 43.866 16.134 47 20 47H50C54.9706 47 59 42.9706 59 38C59 34.0813 56.4956 30.7476 53 29.5121Z" fill="#93C5FD" style="mix-blend-mode:color"/>
<path fill-rule="evenodd" clip-rule="evenodd" d="M53 29.5121C53 29.5081 53 29.504 53 29.5C53 22.5964 47.4036 17 40.5 17C35.1094 17 30.5158 20.4122 28.7613 25.1945C28.1946 25.0672 27.6051 25 27 25C22.5817 25 19 28.5817 19 33C19 33.0236 19.0001 33.0473 19.0003 33.0708C15.6079 33.5559 13 36.4734 13 40C13 43.866 16.134 47 20 47H50C54.9706 47 59 42.9706 59 38C59 34.0813 56.4956 30.7476 53 29.5121Z" fill="#3730A3" style="mix-blend-mode:color"/>
<path fill-rule="evenodd" clip-rule="evenodd" d="M53 29.5121C53 29.5081 53 29.504 53 29.5C53 22.5964 47.4036 17 40.5 17C35.1094 17 30.5158 20.4122 28.7613 25.1945C28.1946 25.0672 27.6051 25 27 25C22.5817 25 19 28.5817 19 33C19 33.0236 19.0001 33.0473 19.0003 33.0708C15.6079 33.5559 13 36.4734 13 40C13 43.866 16.134 47 20 47H50C54.9706 47 59 42.9706 59 38C59 34.0813 56.4956 30.7476 53 29.5121Z" fill="#4338CA" fill-opacity="0.15" style="mix-blend-mode:multiply"/>
<g filter="url(#filter29_dii_4_34747)">
<path fill-rule="evenodd" clip-rule="evenodd" d="M41.0313 51V52.768L42.5624 51.884C43.0407 51.6079 43.6522 51.7718 43.9284 52.2501C44.2045 52.7284 44.0407 53.3399 43.5624 53.6161L43.561 53.6169L42.0313 54.5001L43.5612 55.3833C43.5616 55.3836 43.562 55.3838 43.5624 55.384C44.0407 55.6602 44.2045 56.2718 43.9284 56.7501C43.6522 57.2284 43.0407 57.3922 42.5624 57.1161L41.0313 56.2321V58C41.0313 58.5523 40.5836 59 40.0313 59C39.479 59 39.0313 58.5523 39.0313 58V56.2321L37.5002 57.1161L37.5002 57.1161L37.5002 57.1161C37.0219 57.3922 36.4103 57.2284 36.1341 56.7501C35.858 56.2718 36.0219 55.6602 36.5002 55.384L36.5035 55.3821L38.0313 54.5001L36.5036 53.6181C36.5025 53.6174 36.5013 53.6167 36.5002 53.6161C36.0219 53.3399 35.858 52.7284 36.1341 52.2501C36.4103 51.7718 37.0219 51.6079 37.5002 51.884C37.5002 51.884 37.5002 51.884 37.5002 51.884L37.5002 51.884L39.0313 52.768V51C39.0313 50.4477 39.479 50 40.0313 50C40.5836 50 41.0313 50.4477 41.0313 51Z" fill="#E2E8F0"/>
</g>
<g style="mix-blend-mode:color">
<path fill-rule="evenodd" clip-rule="evenodd" d="M41.0313 51V52.768L42.5624 51.884C43.0407 51.6079 43.6522 51.7718 43.9284 52.2501C44.2045 52.7284 44.0407 53.3399 43.5624 53.6161L43.561 53.6169L42.0313 54.5001L43.5612 55.3833C43.5616 55.3836 43.562 55.3838 43.5624 55.384C44.0407 55.6602 44.2045 56.2718 43.9284 56.7501C43.6522 57.2284 43.0407 57.3922 42.5624 57.1161L41.0313 56.2321V58C41.0313 58.5523 40.5836 59 40.0313 59C39.479 59 39.0313 58.5523 39.0313 58V56.2321L37.5002 57.1161L37.5002 57.1161L37.5002 57.1161C37.0219 57.3922 36.4103 57.2284 36.1341 56.7501C35.858 56.2718 36.0219 55.6602 36.5002 55.384L36.5035 55.3821L38.0313 54.5001L36.5036 53.6181C36.5025 53.6174 36.5013 53.6167 36.5002 53.6161C36.0219 53.3399 35.858 52.7284 36.1341 52.2501C36.4103 51.7718 37.0219 51.6079 37.5002 51.884C37.5002 51.884 37.5002 51.884 37.5002 51.884L37.5002 51.884L39.0313 52.768V51C39.0313 50.4477 39.479 50 40.0313 50C40.5836 50 41.0313 50.4477 41.0313 51Z" fill="#BFDBFE"/>
</g>
<circle cx="40.0342" cy="51.05" r="0.75" fill="url(#paint11_linear_4_34747)"/>
<circle cx="37.0342" cy="52.75" r="0.75" fill="url(#paint12_linear_4_34747)"/>
<circle cx="37.0342" cy="56.25" r="0.75" fill="url(#paint13_linear_4_34747)"/>
<circle cx="43.0342" cy="52.75" r="0.75" fill="url(#paint14_linear_4_34747)"/>
<circle cx="43.0342" cy="56.25" r="0.75" fill="url(#paint15_linear_4_34747)"/>
<defs>
<filter id="filter0_ii_4_34747" x="28.558" y="50.4286" width="4.18677" height="8.57135" filterUnits="userSpaceOnUse" color-interpolation-filters="sRGB">
<feFlood flood-opacity="0" result="BackgroundImageFix"/>
<feBlend mode="normal" in="SourceGraphic" in2="BackgroundImageFix" result="shape"/>
<feColorMatrix in="SourceAlpha" type="matrix" values="0 0 0 0 0 0 0 0 0 0 0 0 0 0 0 0 0 0 127 0" result="hardAlpha"/>
<feOffset dy="-1"/>
<feComposite in2="hardAlpha" operator="arithmetic" k2="-1" k3="1"/>
<feColorMatrix type="matrix" values="0 0 0 0 0.231373 0 0 0 0 0.509804 0 0 0 0 0.964706 0 0 0 1 0"/>
<feBlend mode="normal" in2="shape" result="effect1_innerShadow_4_34747"/>
<feColorMatrix in="SourceAlpha" type="matrix" values="0 0 0 0 0 0 0 0 0 0 0 0 0 0 0 0 0 0 127 0" result="hardAlpha"/>
<feOffset dy="-0.5"/>
<feGaussianBlur stdDeviation="0.25"/>
<feComposite in2="hardAlpha" operator="arithmetic" k2="-1" k3="1"/>
<feColorMatrix type="matrix" values="0 0 0 0 0.113438 0 0 0 0 0.33625 0 0 0 0 0.825 0 0 0 1 0"/>
<feBlend mode="normal" in2="effect1_innerShadow_4_34747" result="effect2_innerShadow_4_34747"/>
</filter>
<filter id="filter1_ii_4_34747" x="22.558" y="50.4286" width="4.18677" height="8.57135" filterUnits="userSpaceOnUse" color-interpolation-filters="sRGB">
<feFlood flood-opacity="0" result="BackgroundImageFix"/>
<feBlend mode="normal" in="SourceGraphic" in2="BackgroundImageFix" result="shape"/>
<feColorMatrix in="SourceAlpha" type="matrix" values="0 0 0 0 0 0 0 0 0 0 0 0 0 0 0 0 0 0 127 0" result="hardAlpha"/>
<feOffset dy="-1"/>
<feComposite in2="hardAlpha" operator="arithmetic" k2="-1" k3="1"/>
<feColorMatrix type="matrix" values="0 0 0 0 0.231373 0 0 0 0 0.509804 0 0 0 0 0.964706 0 0 0 1 0"/>
<feBlend mode="normal" in2="shape" result="effect1_innerShadow_4_34747"/>
<feColorMatrix in="SourceAlpha" type="matrix" values="0 0 0 0 0 0 0 0 0 0 0 0 0 0 0 0 0 0 127 0" result="hardAlpha"/>
<feOffset dy="-0.5"/>
<feGaussianBlur stdDeviation="0.25"/>
<feComposite in2="hardAlpha" operator="arithmetic" k2="-1" k3="1"/>
<feColorMatrix type="matrix" values="0 0 0 0 0.113438 0 0 0 0 0.33625 0 0 0 0 0.825 0 0 0 1 0"/>
<feBlend mode="normal" in2="effect1_innerShadow_4_34747" result="effect2_innerShadow_4_34747"/>
</filter>
<filter id="filter2_ii_4_34747" x="7" y="8.99951" width="32" height="34" filterUnits="userSpaceOnUse" color-interpolation-filters="sRGB">
<feFlood flood-opacity="0" result="BackgroundImageFix"/>
<feBlend mode="normal" in="SourceGraphic" in2="BackgroundImageFix" result="shape"/>
<feColorMatrix in="SourceAlpha" type="matrix" values="0 0 0 0 0 0 0 0 0 0 0 0 0 0 0 0 0 0 127 0" result="hardAlpha"/>
<feMorphology radius="1" operator="erode" in="SourceAlpha" result="effect1_innerShadow_4_34747"/>
<feOffset dy="-1"/>
<feGaussianBlur stdDeviation="3"/>
<feComposite in2="hardAlpha" operator="arithmetic" k2="-1" k3="1"/>
<feColorMatrix type="matrix" values="0 0 0 0 0.278431 0 0 0 0 0.333333 0 0 0 0 0.411765 0 0 0 1 0"/>
<feBlend mode="normal" in2="shape" result="effect1_innerShadow_4_34747"/>
<feColorMatrix in="SourceAlpha" type="matrix" values="0 0 0 0 0 0 0 0 0 0 0 0 0 0 0 0 0 0 127 0" result="hardAlpha"/>
<feOffset dy="1"/>
<feGaussianBlur stdDeviation="1"/>
<feComposite in2="hardAlpha" operator="arithmetic" k2="-1" k3="1"/>
<feColorMatrix type="matrix" values="0 0 0 0 0.796078 0 0 0 0 0.835294 0 0 0 0 0.882353 0 0 0 1 0"/>
<feBlend mode="normal" in2="effect1_innerShadow_4_34747" result="effect2_innerShadow_4_34747"/>
</filter>
<filter id="filter3_f_4_34747" x="11" y="9.99959" width="24" height="18.6667" filterUnits="userSpaceOnUse" color-interpolation-filters="sRGB">
<feFlood flood-opacity="0" result="BackgroundImageFix"/>
<feBlend mode="normal" in="SourceGraphic" in2="BackgroundImageFix" result="shape"/>
<feGaussianBlur stdDeviation="1.33333" result="effect1_foregroundBlur_4_34747"/>
</filter>
<filter id="filter4_di_4_34747" x="28.4187" y="17.063" width="4.16272" height="4.87418" filterUnits="userSpaceOnUse" color-interpolation-filters="sRGB">
<feFlood flood-opacity="0" result="BackgroundImageFix"/>
<feColorMatrix in="SourceAlpha" type="matrix" values="0 0 0 0 0 0 0 0 0 0 0 0 0 0 0 0 0 0 127 0" result="hardAlpha"/>
<feOffset dy="0.5"/>
<feGaussianBlur stdDeviation="0.25"/>
<feComposite in2="hardAlpha" operator="out"/>
<feColorMatrix type="matrix" values="0 0 0 0 0.886275 0 0 0 0 0.909804 0 0 0 0 0.941176 0 0 0 0.7 0"/>
<feBlend mode="normal" in2="BackgroundImageFix" result="effect1_dropShadow_4_34747"/>
<feBlend mode="normal" in="SourceGraphic" in2="effect1_dropShadow_4_34747" result="shape"/>
<feColorMatrix in="SourceAlpha" type="matrix" values="0 0 0 0 0 0 0 0 0 0 0 0 0 0 0 0 0 0 127 0" result="hardAlpha"/>
<feOffset dy="0.5"/>
<feGaussianBlur stdDeviation="0.5"/>
<feComposite in2="hardAlpha" operator="arithmetic" k2="-1" k3="1"/>
<feColorMatrix type="matrix" values="0 0 0 0 0.392157 0 0 0 0 0.454902 0 0 0 0 0.545098 0 0 0 1 0"/>
<feBlend mode="normal" in2="shape" result="effect2_innerShadow_4_34747"/>
</filter>
<filter id="filter5_di_4_34747" x="24.4484" y="24.5163" width="4.61414" height="3.80441" filterUnits="userSpaceOnUse" color-interpolation-filters="sRGB">
<feFlood flood-opacity="0" result="BackgroundImageFix"/>
<feColorMatrix in="SourceAlpha" type="matrix" values="0 0 0 0 0 0 0 0 0 0 0 0 0 0 0 0 0 0 127 0" result="hardAlpha"/>
<feOffset dy="0.5"/>
<feGaussianBlur stdDeviation="0.25"/>
<feComposite in2="hardAlpha" operator="out"/>
<feColorMatrix type="matrix" values="0 0 0 0 0.886275 0 0 0 0 0.909804 0 0 0 0 0.941176 0 0 0 0.7 0"/>
<feBlend mode="normal" in2="BackgroundImageFix" result="effect1_dropShadow_4_34747"/>
<feBlend mode="normal" in="SourceGraphic" in2="effect1_dropShadow_4_34747" result="shape"/>
<feColorMatrix in="SourceAlpha" type="matrix" values="0 0 0 0 0 0 0 0 0 0 0 0 0 0 0 0 0 0 127 0" result="hardAlpha"/>
<feOffset dy="0.5"/>
<feGaussianBlur stdDeviation="0.5"/>
<feComposite in2="hardAlpha" operator="arithmetic" k2="-1" k3="1"/>
<feColorMatrix type="matrix" values="0 0 0 0 0.392157 0 0 0 0 0.454902 0 0 0 0 0.545098 0 0 0 1 0"/>
<feBlend mode="normal" in2="shape" result="effect2_innerShadow_4_34747"/>
</filter>
<filter id="filter6_di_4_34747" x="15.0226" y="15.3528" width="3.99438" height="4.04718" filterUnits="userSpaceOnUse" color-interpolation-filters="sRGB">
<feFlood flood-opacity="0" result="BackgroundImageFix"/>
<feColorMatrix in="SourceAlpha" type="matrix" values="0 0 0 0 0 0 0 0 0 0 0 0 0 0 0 0 0 0 127 0" result="hardAlpha"/>
<feOffset dy="0.5"/>
<feGaussianBlur stdDeviation="0.25"/>
<feComposite in2="hardAlpha" operator="out"/>
<feColorMatrix type="matrix" values="0 0 0 0 0.886275 0 0 0 0 0.909804 0 0 0 0 0.941176 0 0 0 0.7 0"/>
<feBlend mode="normal" in2="BackgroundImageFix" result="effect1_dropShadow_4_34747"/>
<feBlend mode="normal" in="SourceGraphic" in2="effect1_dropShadow_4_34747" result="shape"/>
<feColorMatrix in="SourceAlpha" type="matrix" values="0 0 0 0 0 0 0 0 0 0 0 0 0 0 0 0 0 0 127 0" result="hardAlpha"/>
<feOffset dy="0.5"/>
<feGaussianBlur stdDeviation="0.5"/>
<feComposite in2="hardAlpha" operator="arithmetic" k2="-1" k3="1"/>
<feColorMatrix type="matrix" values="0 0 0 0 0.392157 0 0 0 0 0.454902 0 0 0 0 0.545098 0 0 0 1 0"/>
<feBlend mode="normal" in2="shape" result="effect2_innerShadow_4_34747"/>
</filter>
<filter id="filter7_di_4_34747" x="16.9594" y="36.4521" width="4.14087" height="4.20471" filterUnits="userSpaceOnUse" color-interpolation-filters="sRGB">
<feFlood flood-opacity="0" result="BackgroundImageFix"/>
<feColorMatrix in="SourceAlpha" type="matrix" values="0 0 0 0 0 0 0 0 0 0 0 0 0 0 0 0 0 0 127 0" result="hardAlpha"/>
<feOffset dy="0.5"/>
<feGaussianBlur stdDeviation="0.25"/>
<feComposite in2="hardAlpha" operator="out"/>
<feColorMatrix type="matrix" values="0 0 0 0 0.886275 0 0 0 0 0.909804 0 0 0 0 0.941176 0 0 0 0.15 0"/>
<feBlend mode="normal" in2="BackgroundImageFix" result="effect1_dropShadow_4_34747"/>
<feBlend mode="normal" in="SourceGraphic" in2="effect1_dropShadow_4_34747" result="shape"/>
<feColorMatrix in="SourceAlpha" type="matrix" values="0 0 0 0 0 0 0 0 0 0 0 0 0 0 0 0 0 0 127 0" result="hardAlpha"/>
<feOffset dy="0.5"/>
<feGaussianBlur stdDeviation="0.5"/>
<feComposite in2="hardAlpha" operator="arithmetic" k2="-1" k3="1"/>
<feColorMatrix type="matrix" values="0 0 0 0 0.392157 0 0 0 0 0.454902 0 0 0 0 0.545098 0 0 0 1 0"/>
<feBlend mode="normal" in2="shape" result="effect2_innerShadow_4_34747"/>
</filter>
<filter id="filter8_di_4_34747" x="24.0951" y="31.0281" width="5.71326" height="5.10892" filterUnits="userSpaceOnUse" color-interpolation-filters="sRGB">
<feFlood flood-opacity="0" result="BackgroundImageFix"/>
<feColorMatrix in="SourceAlpha" type="matrix" values="0 0 0 0 0 0 0 0 0 0 0 0 0 0 0 0 0 0 127 0" result="hardAlpha"/>
<feOffset dy="0.5"/>
<feGaussianBlur stdDeviation="0.25"/>
<feComposite in2="hardAlpha" operator="out"/>
<feColorMatrix type="matrix" values="0 0 0 0 0.886275 0 0 0 0 0.909804 0 0 0 0 0.941176 0 0 0 0.3 0"/>
<feBlend mode="normal" in2="BackgroundImageFix" result="effect1_dropShadow_4_34747"/>
<feBlend mode="normal" in="SourceGraphic" in2="effect1_dropShadow_4_34747" result="shape"/>
<feColorMatrix in="SourceAlpha" type="matrix" values="0 0 0 0 0 0 0 0 0 0 0 0 0 0 0 0 0 0 127 0" result="hardAlpha"/>
<feOffset dy="0.5"/>
<feGaussianBlur stdDeviation="0.5"/>
<feComposite in2="hardAlpha" operator="arithmetic" k2="-1" k3="1"/>
<feColorMatrix type="matrix" values="0 0 0 0 0.392157 0 0 0 0 0.454902 0 0 0 0 0.545098 0 0 0 1 0"/>
<feBlend mode="normal" in2="shape" result="effect2_innerShadow_4_34747"/>
</filter>
<filter id="filter9_di_4_34747" x="14.9429" y="27.4204" width="3.18762" height="3.3494" filterUnits="userSpaceOnUse" color-interpolation-filters="sRGB">
<feFlood flood-opacity="0" result="BackgroundImageFix"/>
<feColorMatrix in="SourceAlpha" type="matrix" values="0 0 0 0 0 0 0 0 0 0 0 0 0 0 0 0 0 0 127 0" result="hardAlpha"/>
<feOffset dy="0.5"/>
<feGaussianBlur stdDeviation="0.25"/>
<feComposite in2="hardAlpha" operator="out"/>
<feColorMatrix type="matrix" values="0 0 0 0 0.886275 0 0 0 0 0.909804 0 0 0 0 0.941176 0 0 0 0.7 0"/>
<feBlend mode="normal" in2="BackgroundImageFix" result="effect1_dropShadow_4_34747"/>
<feBlend mode="normal" in="SourceGraphic" in2="effect1_dropShadow_4_34747" result="shape"/>
<feColorMatrix in="SourceAlpha" type="matrix" values="0 0 0 0 0 0 0 0 0 0 0 0 0 0 0 0 0 0 127 0" result="hardAlpha"/>
<feOffset dy="0.5"/>
<feGaussianBlur stdDeviation="0.5"/>
<feComposite in2="hardAlpha" operator="arithmetic" k2="-1" k3="1"/>
<feColorMatrix type="matrix" values="0 0 0 0 0.392157 0 0 0 0 0.454902 0 0 0 0 0.545098 0 0 0 1 0"/>
<feBlend mode="normal" in2="shape" result="effect2_innerShadow_4_34747"/>
</filter>
<filter id="filter10_di_4_34747" x="10.4344" y="30.8885" width="2.16223" height="2.01321" filterUnits="userSpaceOnUse" color-interpolation-filters="sRGB">
<feFlood flood-opacity="0" result="BackgroundImageFix"/>
<feColorMatrix in="SourceAlpha" type="matrix" values="0 0 0 0 0 0 0 0 0 0 0 0 0 0 0 0 0 0 127 0" result="hardAlpha"/>
<feOffset dy="0.5"/>
<feGaussianBlur stdDeviation="0.25"/>
<feComposite in2="hardAlpha" operator="out"/>
<feColorMatrix type="matrix" values="0 0 0 0 0.886275 0 0 0 0 0.909804 0 0 0 0 0.941176 0 0 0 0.2 0"/>
<feBlend mode="normal" in2="BackgroundImageFix" result="effect1_dropShadow_4_34747"/>
<feBlend mode="normal" in="SourceGraphic" in2="effect1_dropShadow_4_34747" result="shape"/>
<feColorMatrix in="SourceAlpha" type="matrix" values="0 0 0 0 0 0 0 0 0 0 0 0 0 0 0 0 0 0 127 0" result="hardAlpha"/>
<feOffset dy="0.5"/>
<feGaussianBlur stdDeviation="0.5"/>
<feComposite in2="hardAlpha" operator="arithmetic" k2="-1" k3="1"/>
<feColorMatrix type="matrix" values="0 0 0 0 0.392157 0 0 0 0 0.454902 0 0 0 0 0.545098 0 0 0 1 0"/>
<feBlend mode="normal" in2="shape" result="effect2_innerShadow_4_34747"/>
</filter>
<filter id="filter11_di_4_34747" x="35.6884" y="23.1194" width="2.07898" height="2.10095" filterUnits="userSpaceOnUse" color-interpolation-filters="sRGB">
<feFlood flood-opacity="0" result="BackgroundImageFix"/>
<feColorMatrix in="SourceAlpha" type="matrix" values="0 0 0 0 0 0 0 0 0 0 0 0 0 0 0 0 0 0 127 0" result="hardAlpha"/>
<feOffset dy="0.5"/>
<feGaussianBlur stdDeviation="0.25"/>
<feComposite in2="hardAlpha" operator="out"/>
<feColorMatrix type="matrix" values="0 0 0 0 0.886275 0 0 0 0 0.909804 0 0 0 0 0.941176 0 0 0 0.2 0"/>
<feBlend mode="normal" in2="BackgroundImageFix" result="effect1_dropShadow_4_34747"/>
<feBlend mode="normal" in="SourceGraphic" in2="effect1_dropShadow_4_34747" result="shape"/>
<feColorMatrix in="SourceAlpha" type="matrix" values="0 0 0 0 0 0 0 0 0 0 0 0 0 0 0 0 0 0 127 0" result="hardAlpha"/>
<feOffset dy="0.5"/>
<feGaussianBlur stdDeviation="0.5"/>
<feComposite in2="hardAlpha" operator="arithmetic" k2="-1" k3="1"/>
<feColorMatrix type="matrix" values="0 0 0 0 0.392157 0 0 0 0 0.454902 0 0 0 0 0.545098 0 0 0 1 0"/>
<feBlend mode="normal" in2="shape" result="effect2_innerShadow_4_34747"/>
</filter>
<filter id="filter12_di_4_34747" x="32.723" y="34.2198" width="2.07898" height="2.10095" filterUnits="userSpaceOnUse" color-interpolation-filters="sRGB">
<feFlood flood-opacity="0" result="BackgroundImageFix"/>
<feColorMatrix in="SourceAlpha" type="matrix" values="0 0 0 0 0 0 0 0 0 0 0 0 0 0 0 0 0 0 127 0" result="hardAlpha"/>
<feOffset dy="0.5"/>
<feGaussianBlur stdDeviation="0.25"/>
<feComposite in2="hardAlpha" operator="out"/>
<feColorMatrix type="matrix" values="0 0 0 0 0.886275 0 0 0 0 0.909804 0 0 0 0 0.941176 0 0 0 0.2 0"/>
<feBlend mode="normal" in2="BackgroundImageFix" result="effect1_dropShadow_4_34747"/>
<feBlend mode="normal" in="SourceGraphic" in2="effect1_dropShadow_4_34747" result="shape"/>
<feColorMatrix in="SourceAlpha" type="matrix" values="0 0 0 0 0 0 0 0 0 0 0 0 0 0 0 0 0 0 127 0" result="hardAlpha"/>
<feOffset dy="0.5"/>
<feGaussianBlur stdDeviation="0.5"/>
<feComposite in2="hardAlpha" operator="arithmetic" k2="-1" k3="1"/>
<feColorMatrix type="matrix" values="0 0 0 0 0.392157 0 0 0 0 0.454902 0 0 0 0 0.545098 0 0 0 1 0"/>
<feBlend mode="normal" in2="shape" result="effect2_innerShadow_4_34747"/>
</filter>
<filter id="filter13_di_4_34747" x="23.647" y="14.1629" width="2.16174" height="2.01382" filterUnits="userSpaceOnUse" color-interpolation-filters="sRGB">
<feFlood flood-opacity="0" result="BackgroundImageFix"/>
<feColorMatrix in="SourceAlpha" type="matrix" values="0 0 0 0 0 0 0 0 0 0 0 0 0 0 0 0 0 0 127 0" result="hardAlpha"/>
<feOffset dy="0.5"/>
<feGaussianBlur stdDeviation="0.25"/>
<feComposite in2="hardAlpha" operator="out"/>
<feColorMatrix type="matrix" values="0 0 0 0 0.886275 0 0 0 0 0.909804 0 0 0 0 0.941176 0 0 0 0.7 0"/>
<feBlend mode="normal" in2="BackgroundImageFix" result="effect1_dropShadow_4_34747"/>
<feBlend mode="normal" in="SourceGraphic" in2="effect1_dropShadow_4_34747" result="shape"/>
<feColorMatrix in="SourceAlpha" type="matrix" values="0 0 0 0 0 0 0 0 0 0 0 0 0 0 0 0 0 0 127 0" result="hardAlpha"/>
<feOffset dy="0.5"/>
<feGaussianBlur stdDeviation="0.5"/>
<feComposite in2="hardAlpha" operator="arithmetic" k2="-1" k3="1"/>
<feColorMatrix type="matrix" values="0 0 0 0 0.392157 0 0 0 0 0.454902 0 0 0 0 0.545098 0 0 0 1 0"/>
<feBlend mode="normal" in2="shape" result="effect2_innerShadow_4_34747"/>
</filter>
<filter id="filter14_di_4_34747" x="19.6481" y="22.1646" width="2.16174" height="2.01382" filterUnits="userSpaceOnUse" color-interpolation-filters="sRGB">
<feFlood flood-opacity="0" result="BackgroundImageFix"/>
<feColorMatrix in="SourceAlpha" type="matrix" values="0 0 0 0 0 0 0 0 0 0 0 0 0 0 0 0 0 0 127 0" result="hardAlpha"/>
<feOffset dy="0.5"/>
<feGaussianBlur stdDeviation="0.25"/>
<feComposite in2="hardAlpha" operator="out"/>
<feColorMatrix type="matrix" values="0 0 0 0 0.886275 0 0 0 0 0.909804 0 0 0 0 0.941176 0 0 0 0.7 0"/>
<feBlend mode="normal" in2="BackgroundImageFix" result="effect1_dropShadow_4_34747"/>
<feBlend mode="normal" in="SourceGraphic" in2="effect1_dropShadow_4_34747" result="shape"/>
<feColorMatrix in="SourceAlpha" type="matrix" values="0 0 0 0 0 0 0 0 0 0 0 0 0 0 0 0 0 0 127 0" result="hardAlpha"/>
<feOffset dy="0.5"/>
<feGaussianBlur stdDeviation="0.5"/>
<feComposite in2="hardAlpha" operator="arithmetic" k2="-1" k3="1"/>
<feColorMatrix type="matrix" values="0 0 0 0 0.392157 0 0 0 0 0.454902 0 0 0 0 0.545098 0 0 0 1 0"/>
<feBlend mode="normal" in2="shape" result="effect2_innerShadow_4_34747"/>
</filter>
<filter id="filter15_di_4_34747" x="31.735" y="27.0799" width="1.98779" height="2.18344" filterUnits="userSpaceOnUse" color-interpolation-filters="sRGB">
<feFlood flood-opacity="0" result="BackgroundImageFix"/>
<feColorMatrix in="SourceAlpha" type="matrix" values="0 0 0 0 0 0 0 0 0 0 0 0 0 0 0 0 0 0 127 0" result="hardAlpha"/>
<feOffset dy="0.5"/>
<feGaussianBlur stdDeviation="0.25"/>
<feComposite in2="hardAlpha" operator="out"/>
<feColorMatrix type="matrix" values="0 0 0 0 0.886275 0 0 0 0 0.909804 0 0 0 0 0.941176 0 0 0 0.4 0"/>
<feBlend mode="normal" in2="BackgroundImageFix" result="effect1_dropShadow_4_34747"/>
<feBlend mode="normal" in="SourceGraphic" in2="effect1_dropShadow_4_34747" result="shape"/>
<feColorMatrix in="SourceAlpha" type="matrix" values="0 0 0 0 0 0 0 0 0 0 0 0 0 0 0 0 0 0 127 0" result="hardAlpha"/>
<feOffset dy="0.5"/>
<feGaussianBlur stdDeviation="0.5"/>
<feComposite in2="hardAlpha" operator="arithmetic" k2="-1" k3="1"/>
<feColorMatrix type="matrix" values="0 0 0 0 0.392157 0 0 0 0 0.454902 0 0 0 0 0.545098 0 0 0 1 0"/>
<feBlend mode="normal" in2="shape" result="effect2_innerShadow_4_34747"/>
</filter>
<filter id="filter16_di_4_34747" x="21.5458" y="30.0386" width="1.98779" height="2.18344" filterUnits="userSpaceOnUse" color-interpolation-filters="sRGB">
<feFlood flood-opacity="0" result="BackgroundImageFix"/>
<feColorMatrix in="SourceAlpha" type="matrix" values="0 0 0 0 0 0 0 0 0 0 0 0 0 0 0 0 0 0 127 0" result="hardAlpha"/>
<feOffset dy="0.5"/>
<feGaussianBlur stdDeviation="0.25"/>
<feComposite in2="hardAlpha" operator="out"/>
<feColorMatrix type="matrix" values="0 0 0 0 0.886275 0 0 0 0 0.909804 0 0 0 0 0.941176 0 0 0 0.4 0"/>
<feBlend mode="normal" in2="BackgroundImageFix" result="effect1_dropShadow_4_34747"/>
<feBlend mode="normal" in="SourceGraphic" in2="effect1_dropShadow_4_34747" result="shape"/>
<feColorMatrix in="SourceAlpha" type="matrix" values="0 0 0 0 0 0 0 0 0 0 0 0 0 0 0 0 0 0 127 0" result="hardAlpha"/>
<feOffset dy="0.5"/>
<feGaussianBlur stdDeviation="0.5"/>
<feComposite in2="hardAlpha" operator="arithmetic" k2="-1" k3="1"/>
<feColorMatrix type="matrix" values="0 0 0 0 0.392157 0 0 0 0 0.454902 0 0 0 0 0.545098 0 0 0 1 0"/>
<feBlend mode="normal" in2="shape" result="effect2_innerShadow_4_34747"/>
</filter>
<filter id="filter17_di_4_34747" x="24.5458" y="39.0386" width="1.98779" height="2.18344" filterUnits="userSpaceOnUse" color-interpolation-filters="sRGB">
<feFlood flood-opacity="0" result="BackgroundImageFix"/>
<feColorMatrix in="SourceAlpha" type="matrix" values="0 0 0 0 0 0 0 0 0 0 0 0 0 0 0 0 0 0 127 0" result="hardAlpha"/>
<feOffset dy="0.5"/>
<feGaussianBlur stdDeviation="0.25"/>
<feComposite in2="hardAlpha" operator="out"/>
<feColorMatrix type="matrix" values="0 0 0 0 0.886275 0 0 0 0 0.909804 0 0 0 0 0.941176 0 0 0 0.2 0"/>
<feBlend mode="normal" in2="BackgroundImageFix" result="effect1_dropShadow_4_34747"/>
<feBlend mode="normal" in="SourceGraphic" in2="effect1_dropShadow_4_34747" result="shape"/>
<feColorMatrix in="SourceAlpha" type="matrix" values="0 0 0 0 0 0 0 0 0 0 0 0 0 0 0 0 0 0 127 0" result="hardAlpha"/>
<feOffset dy="0.5"/>
<feGaussianBlur stdDeviation="0.5"/>
<feComposite in2="hardAlpha" operator="arithmetic" k2="-1" k3="1"/>
<feColorMatrix type="matrix" values="0 0 0 0 0.392157 0 0 0 0 0.454902 0 0 0 0 0.545098 0 0 0 1 0"/>
<feBlend mode="normal" in2="shape" result="effect2_innerShadow_4_34747"/>
</filter>
<filter id="filter18_f_4_34747" x="15" y="44" width="40" height="15" filterUnits="userSpaceOnUse" color-interpolation-filters="sRGB">
<feFlood flood-opacity="0" result="BackgroundImageFix"/>
<feBlend mode="normal" in="SourceGraphic" in2="BackgroundImageFix" result="shape"/>
<feGaussianBlur stdDeviation="1" result="effect1_foregroundBlur_4_34747"/>
</filter>
<filter id="filter19_d_4_34747" x="9" y="15" width="54" height="38" filterUnits="userSpaceOnUse" color-interpolation-filters="sRGB">
<feFlood flood-opacity="0" result="BackgroundImageFix"/>
<feColorMatrix in="SourceAlpha" type="matrix" values="0 0 0 0 0 0 0 0 0 0 0 0 0 0 0 0 0 0 127 0" result="hardAlpha"/>
<feOffset dy="2"/>
<feGaussianBlur stdDeviation="2"/>
<feComposite in2="hardAlpha" operator="out"/>
<feColorMatrix type="matrix" values="0 0 0 0 0.278431 0 0 0 0 0.333333 0 0 0 0 0.411765 0 0 0 0.4 0"/>
<feBlend mode="normal" in2="BackgroundImageFix" result="effect1_dropShadow_4_34747"/>
<feBlend mode="normal" in="SourceGraphic" in2="effect1_dropShadow_4_34747" result="shape"/>
</filter>
<filter id="filter20_ii_4_34747" x="13" y="27" width="46" height="22" filterUnits="userSpaceOnUse" color-interpolation-filters="sRGB">
<feFlood flood-opacity="0" result="BackgroundImageFix"/>
<feBlend mode="normal" in="SourceGraphic" in2="BackgroundImageFix" result="shape"/>
<feColorMatrix in="SourceAlpha" type="matrix" values="0 0 0 0 0 0 0 0 0 0 0 0 0 0 0 0 0 0 127 0" result="hardAlpha"/>
<feOffset dy="2"/>
<feGaussianBlur stdDeviation="1"/>
<feComposite in2="hardAlpha" operator="arithmetic" k2="-1" k3="1"/>
<feColorMatrix type="matrix" values="0 0 0 0 0.796078 0 0 0 0 0.835294 0 0 0 0 0.882353 0 0 0 1 0"/>
<feBlend mode="normal" in2="shape" result="effect1_innerShadow_4_34747"/>
<feColorMatrix in="SourceAlpha" type="matrix" values="0 0 0 0 0 0 0 0 0 0 0 0 0 0 0 0 0 0 127 0" result="hardAlpha"/>
<feOffset dy="-2"/>
<feGaussianBlur stdDeviation="1"/>
<feComposite in2="hardAlpha" operator="arithmetic" k2="-1" k3="1"/>
<feColorMatrix type="matrix" values="0 0 0 0 0.796078 0 0 0 0 0.835294 0 0 0 0 0.882353 0 0 0 0.6 0"/>
<feBlend mode="normal" in2="effect1_innerShadow_4_34747" result="effect2_innerShadow_4_34747"/>
</filter>
<filter id="filter21_f_4_34747" x="13" y="33" width="14" height="14" filterUnits="userSpaceOnUse" color-interpolation-filters="sRGB">
<feFlood flood-opacity="0" result="BackgroundImageFix"/>
<feBlend mode="normal" in="SourceGraphic" in2="BackgroundImageFix" result="shape"/>
<feGaussianBlur stdDeviation="1" result="effect1_foregroundBlur_4_34747"/>
</filter>
<filter id="filter22_i_4_34747" x="19" y="25" width="16" height="18" filterUnits="userSpaceOnUse" color-interpolation-filters="sRGB">
<feFlood flood-opacity="0" result="BackgroundImageFix"/>
<feBlend mode="normal" in="SourceGraphic" in2="BackgroundImageFix" result="shape"/>
<feColorMatrix in="SourceAlpha" type="matrix" values="0 0 0 0 0 0 0 0 0 0 0 0 0 0 0 0 0 0 127 0" result="hardAlpha"/>
<feOffset dy="2"/>
<feGaussianBlur stdDeviation="1"/>
<feComposite in2="hardAlpha" operator="arithmetic" k2="-1" k3="1"/>
<feColorMatrix type="matrix" values="0 0 0 0 0.796078 0 0 0 0 0.835294 0 0 0 0 0.882353 0 0 0 1 0"/>
<feBlend mode="normal" in2="shape" result="effect1_innerShadow_4_34747"/>
</filter>
<filter id="filter23_f_4_34747" x="19" y="25" width="16" height="14" filterUnits="userSpaceOnUse" color-interpolation-filters="sRGB">
<feFlood flood-opacity="0" result="BackgroundImageFix"/>
<feBlend mode="normal" in="SourceGraphic" in2="BackgroundImageFix" result="shape"/>
<feGaussianBlur stdDeviation="1" result="effect1_foregroundBlur_4_34747"/>
</filter>
<filter id="filter24_f_4_34747" x="44" y="30" width="14" height="14" filterUnits="userSpaceOnUse" color-interpolation-filters="sRGB">
<feFlood flood-opacity="0" result="BackgroundImageFix"/>
<feBlend mode="normal" in="SourceGraphic" in2="BackgroundImageFix" result="shape"/>
<feGaussianBlur stdDeviation="1" result="effect1_foregroundBlur_4_34747"/>
</filter>
<filter id="filter25_i_4_34747" x="28" y="17" width="25" height="27" filterUnits="userSpaceOnUse" color-interpolation-filters="sRGB">
<feFlood flood-opacity="0" result="BackgroundImageFix"/>
<feBlend mode="normal" in="SourceGraphic" in2="BackgroundImageFix" result="shape"/>
<feColorMatrix in="SourceAlpha" type="matrix" values="0 0 0 0 0 0 0 0 0 0 0 0 0 0 0 0 0 0 127 0" result="hardAlpha"/>
<feOffset dy="2"/>
<feGaussianBlur stdDeviation="1"/>
<feComposite in2="hardAlpha" operator="arithmetic" k2="-1" k3="1"/>
<feColorMatrix type="matrix" values="0 0 0 0 0.796078 0 0 0 0 0.835294 0 0 0 0 0.882353 0 0 0 1 0"/>
<feBlend mode="normal" in2="shape" result="effect1_innerShadow_4_34747"/>
</filter>
<filter id="filter26_f_4_34747" x="31" y="17" width="18" height="14" filterUnits="userSpaceOnUse" color-interpolation-filters="sRGB">
<feFlood flood-opacity="0" result="BackgroundImageFix"/>
<feBlend mode="normal" in="SourceGraphic" in2="BackgroundImageFix" result="shape"/>
<feGaussianBlur stdDeviation="1" result="effect1_foregroundBlur_4_34747"/>
</filter>
<filter id="filter27_i_4_34747" x="27" y="31" width="18" height="15" filterUnits="userSpaceOnUse" color-interpolation-filters="sRGB">
<feFlood flood-opacity="0" result="BackgroundImageFix"/>
<feBlend mode="normal" in="SourceGraphic" in2="BackgroundImageFix" result="shape"/>
<feColorMatrix in="SourceAlpha" type="matrix" values="0 0 0 0 0 0 0 0 0 0 0 0 0 0 0 0 0 0 127 0" result="hardAlpha"/>
<feOffset dy="2"/>
<feGaussianBlur stdDeviation="1"/>
<feComposite in2="hardAlpha" operator="arithmetic" k2="-1" k3="1"/>
<feColorMatrix type="matrix" values="0 0 0 0 0.796078 0 0 0 0 0.835294 0 0 0 0 0.882353 0 0 0 0.6 0"/>
<feBlend mode="normal" in2="shape" result="effect1_innerShadow_4_34747"/>
</filter>
<filter id="filter28_f_4_34747" x="27" y="31" width="18" height="13" filterUnits="userSpaceOnUse" color-interpolation-filters="sRGB">
<feFlood flood-opacity="0" result="BackgroundImageFix"/>
<feBlend mode="normal" in="SourceGraphic" in2="BackgroundImageFix" result="shape"/>
<feGaussianBlur stdDeviation="1" result="effect1_foregroundBlur_4_34747"/>
</filter>
<filter id="filter29_dii_4_34747" x="33" y="48" width="14.0625" height="15" filterUnits="userSpaceOnUse" color-interpolation-filters="sRGB">
<feFlood flood-opacity="0" result="BackgroundImageFix"/>
<feColorMatrix in="SourceAlpha" type="matrix" values="0 0 0 0 0 0 0 0 0 0 0 0 0 0 0 0 0 0 127 0" result="hardAlpha"/>
<feOffset dy="1"/>
<feGaussianBlur stdDeviation="1.5"/>
<feComposite in2="hardAlpha" operator="out"/>
<feColorMatrix type="matrix" values="0 0 0 0 0.278431 0 0 0 0 0.333333 0 0 0 0 0.411765 0 0 0 0.3 0"/>
<feBlend mode="normal" in2="BackgroundImageFix" result="effect1_dropShadow_4_34747"/>
<feBlend mode="normal" in="SourceGraphic" in2="effect1_dropShadow_4_34747" result="shape"/>
<feColorMatrix in="SourceAlpha" type="matrix" values="0 0 0 0 0 0 0 0 0 0 0 0 0 0 0 0 0 0 127 0" result="hardAlpha"/>
<feOffset dy="0.5"/>
<feGaussianBlur stdDeviation="0.25"/>
<feComposite in2="hardAlpha" operator="arithmetic" k2="-1" k3="1"/>
<feColorMatrix type="matrix" values="0 0 0 0 0.580392 0 0 0 0 0.639216 0 0 0 0 0.721569 0 0 0 1 0"/>
<feBlend mode="normal" in2="shape" result="effect2_innerShadow_4_34747"/>
<feColorMatrix in="SourceAlpha" type="matrix" values="0 0 0 0 0 0 0 0 0 0 0 0 0 0 0 0 0 0 127 0" result="hardAlpha"/>
<feOffset dy="-0.5"/>
<feGaussianBlur stdDeviation="0.25"/>
<feComposite in2="hardAlpha" operator="arithmetic" k2="-1" k3="1"/>
<feColorMatrix type="matrix" values="0 0 0 0 0.580392 0 0 0 0 0.639216 0 0 0 0 0.721569 0 0 0 1 0"/>
<feBlend mode="normal" in2="effect2_innerShadow_4_34747" result="effect3_innerShadow_4_34747"/>
</filter>
<radialGradient id="paint0_radial_4_34747" cx="0" cy="0" r="1" gradientUnits="userSpaceOnUse" gradientTransform="translate(29.5 58.5) rotate(-68.1986) scale(5.38516)">
<stop stop-color="#74D5FF"/>
<stop offset="0.37551" stop-color="#74D5FF" stop-opacity="0"/>
</radialGradient>
<radialGradient id="paint1_radial_4_34747" cx="0" cy="0" r="1" gradientUnits="userSpaceOnUse" gradientTransform="translate(23.5 58.5) rotate(-68.1986) scale(5.38516)">
<stop stop-color="#74D5FF"/>
<stop offset="0.37551" stop-color="#74D5FF" stop-opacity="0"/>
</radialGradient>
<linearGradient id="paint2_linear_4_34747" x1="23" y1="9.99951" x2="23" y2="41.9995" gradientUnits="userSpaceOnUse">
<stop stop-color="#E2E8F0"/>
<stop offset="1" stop-color="#64748B"/>
</linearGradient>
<linearGradient id="paint3_linear_4_34747" x1="23" y1="12.6663" x2="23" y2="25.9996" gradientUnits="userSpaceOnUse">
<stop stop-color="#F1F5F9"/>
<stop offset="1" stop-color="#E2E8F0" stop-opacity="0"/>
</linearGradient>
<linearGradient id="paint4_linear_4_34747" x1="35" y1="46" x2="35" y2="57" gradientUnits="userSpaceOnUse">
<stop stop-color="#A5B4FC"/>
<stop offset="1" stop-color="#818CF8" stop-opacity="0"/>
</linearGradient>
<linearGradient id="paint5_linear_4_34747" x1="20" y1="35" x2="20" y2="45" gradientUnits="userSpaceOnUse">
<stop stop-color="white"/>
<stop offset="1" stop-color="#F3F3F3" stop-opacity="0.2"/>
</linearGradient>
<linearGradient id="paint6_linear_4_34747" x1="27" y1="27" x2="27" y2="37" gradientUnits="userSpaceOnUse">
<stop stop-color="white"/>
<stop offset="1" stop-color="#F3F3F3" stop-opacity="0.2"/>
</linearGradient>
<linearGradient id="paint7_linear_4_34747" x1="51" y1="32" x2="51" y2="42" gradientUnits="userSpaceOnUse">
<stop stop-color="white"/>
<stop offset="1" stop-color="#F3F3F3" stop-opacity="0.2"/>
</linearGradient>
<linearGradient id="paint8_linear_4_34747" x1="40" y1="19" x2="40" y2="29" gradientUnits="userSpaceOnUse">
<stop stop-color="white"/>
<stop offset="1" stop-color="#F3F3F3" stop-opacity="0.2"/>
</linearGradient>
<linearGradient id="paint9_linear_4_34747" x1="36" y1="31" x2="36" y2="44" gradientUnits="userSpaceOnUse">
<stop stop-color="#F1F5F9"/>
<stop offset="0.650321" stop-color="#F1F5F9" stop-opacity="0"/>
</linearGradient>
<linearGradient id="paint10_linear_4_34747" x1="36" y1="33" x2="36" y2="42" gradientUnits="userSpaceOnUse">
<stop stop-color="white"/>
<stop offset="1" stop-color="#F3F3F3" stop-opacity="0.2"/>
</linearGradient>
<linearGradient id="paint11_linear_4_34747" x1="40.0342" y1="50.3" x2="40.0342" y2="51.8" gradientUnits="userSpaceOnUse">
<stop stop-color="#E2E8F0"/>
<stop offset="1" stop-color="#E2E8F0" stop-opacity="0"/>
</linearGradient>
<linearGradient id="paint12_linear_4_34747" x1="37.0342" y1="52" x2="37.0342" y2="53.5" gradientUnits="userSpaceOnUse">
<stop stop-color="#E2E8F0"/>
<stop offset="1" stop-color="#E2E8F0" stop-opacity="0"/>
</linearGradient>
<linearGradient id="paint13_linear_4_34747" x1="37.0342" y1="55.5" x2="37.0342" y2="57" gradientUnits="userSpaceOnUse">
<stop stop-color="#E2E8F0"/>
<stop offset="1" stop-color="#E2E8F0" stop-opacity="0"/>
</linearGradient>
<linearGradient id="paint14_linear_4_34747" x1="43.0342" y1="52" x2="43.0342" y2="53.5" gradientUnits="userSpaceOnUse">
<stop stop-color="#E2E8F0"/>
<stop offset="1" stop-color="#E2E8F0" stop-opacity="0"/>
</linearGradient>
<linearGradient id="paint15_linear_4_34747" x1="43.0342" y1="55.5" x2="43.0342" y2="57" gradientUnits="userSpaceOnUse">
<stop stop-color="#E2E8F0"/>
<stop offset="1" stop-color="#E2E8F0" stop-opacity="0"/>
</linearGradient>
</defs>
</svg>
