<svg width="64" height="64" viewBox="0 0 64 64" fill="none" xmlns="http://www.w3.org/2000/svg">
<g filter="url(#filter0_f_4_34838)">
<path d="M17.0645 47.7391C16.1355 43.913 13.9677 42.3188 13 42H49C47.4516 43.7536 45.5161 46.2087 45.5161 47.7391C45.5161 49.2696 45.9032 51.8841 46.6774 53H15.9032C16.6774 52.8406 17.9935 51.5652 17.0645 47.7391Z" fill="url(#paint0_linear_4_34838)"/>
</g>
<g filter="url(#filter1_d_4_34838)">
<path fill-rule="evenodd" clip-rule="evenodd" d="M49 25.5121C49 25.5081 49 25.504 49 25.5C49 18.5964 43.4036 13 36.5 13C31.1094 13 26.5158 16.4122 24.7613 21.1945C24.1946 21.0672 23.6051 21 23 21C18.5817 21 15 24.5817 15 29C15 29.0236 15.0001 29.0473 15.0003 29.0708C11.6079 29.5559 9 32.4734 9 36C9 39.866 12.134 43 16 43H46C50.9706 43 55 38.9706 55 34C55 30.0813 52.4956 26.7476 49 25.5121Z" fill="#64748B"/>
</g>
<g filter="url(#filter2_ii_4_34838)">
<path fill-rule="evenodd" clip-rule="evenodd" d="M55 34C55 38.9706 50.9706 43 46 43H16C12.134 43 9 39.866 9 36C9 32.134 12.134 29 16 29C18.7924 29 21.2029 30.6351 22.3264 33H37.0549C37.5524 28.5 41.3674 25 46 25C50.9706 25 55 29.0294 55 34Z" fill="#F1F5F9"/>
</g>
<g filter="url(#filter3_f_4_34838)">
<circle cx="16" cy="36" r="5" fill="url(#paint1_linear_4_34838)" style="mix-blend-mode:soft-light"/>
</g>
<g filter="url(#filter4_i_4_34838)">
<circle cx="23" cy="29" r="8" fill="#F1F5F9"/>
</g>
<g filter="url(#filter5_f_4_34838)">
<ellipse cx="23" cy="28" rx="6" ry="5" fill="url(#paint2_linear_4_34838)" style="mix-blend-mode:soft-light"/>
</g>
<g filter="url(#filter6_f_4_34838)">
<circle cx="47" cy="33" r="5" fill="url(#paint3_linear_4_34838)" style="mix-blend-mode:soft-light"/>
</g>
<g filter="url(#filter7_i_4_34838)">
<circle cx="36.5" cy="25.5" r="12.5" fill="#F1F5F9"/>
</g>
<g filter="url(#filter8_f_4_34838)">
<ellipse cx="36" cy="20" rx="7" ry="5" fill="url(#paint4_linear_4_34838)" style="mix-blend-mode:soft-light"/>
</g>
<g filter="url(#filter9_i_4_34838)">
<ellipse cx="32" cy="33.5" rx="9" ry="6.5" fill="url(#paint5_linear_4_34838)"/>
</g>
<g filter="url(#filter10_f_4_34838)">
<ellipse cx="32" cy="33.5" rx="7" ry="4.5" fill="url(#paint6_linear_4_34838)" style="mix-blend-mode:soft-light"/>
</g>
<path fill-rule="evenodd" clip-rule="evenodd" d="M49 25.5121C49 25.5081 49 25.504 49 25.5C49 18.5964 43.4036 13 36.5 13C31.1094 13 26.5158 16.4122 24.7613 21.1945C24.1946 21.0672 23.6051 21 23 21C18.5817 21 15 24.5817 15 29C15 29.0236 15.0001 29.0473 15.0003 29.0708C11.6079 29.5559 9 32.4734 9 36C9 39.866 12.134 43 16 43H46C50.9706 43 55 38.9706 55 34C55 30.0813 52.4956 26.7476 49 25.5121Z" fill="#1E293B" style="mix-blend-mode:overlay"/>
<path fill-rule="evenodd" clip-rule="evenodd" d="M49 25.5121C49 25.5081 49 25.504 49 25.5C49 18.5964 43.4036 13 36.5 13C31.1094 13 26.5158 16.4122 24.7613 21.1945C24.1946 21.0672 23.6051 21 23 21C18.5817 21 15 24.5817 15 29C15 29.0236 15.0001 29.0473 15.0003 29.0708C11.6079 29.5559 9 32.4734 9 36C9 39.866 12.134 43 16 43H46C50.9706 43 55 38.9706 55 34C55 30.0813 52.4956 26.7476 49 25.5121Z" fill="#334155" fill-opacity="0.3" style="mix-blend-mode:multiply"/>
<g filter="url(#filter11_dii_4_34838)">
<path fill-rule="evenodd" clip-rule="evenodd" d="M25.0313 47V48.768L26.5624 47.884C27.0407 47.6079 27.6522 47.7718 27.9284 48.2501C28.2045 48.7284 28.0407 49.3399 27.5624 49.6161L27.561 49.6169L26.0313 50.5001L27.5612 51.3833C27.5616 51.3836 27.562 51.3838 27.5624 51.384C28.0407 51.6602 28.2045 52.2718 27.9284 52.7501C27.6522 53.2284 27.0407 53.3922 26.5624 53.1161L25.0313 52.2321V54C25.0313 54.5523 24.5836 55 24.0313 55C23.479 55 23.0313 54.5523 23.0313 54V52.2321L21.5002 53.1161L21.5002 53.1161L21.5002 53.1161C21.0219 53.3922 20.4103 53.2284 20.1341 52.7501C19.858 52.2718 20.0219 51.6602 20.5002 51.384L20.5035 51.3821L22.0313 50.5001L20.5036 49.6181C20.5025 49.6174 20.5013 49.6167 20.5002 49.6161C20.0219 49.3399 19.858 48.7284 20.1341 48.2501C20.4103 47.7718 21.0219 47.6079 21.5002 47.884C21.5002 47.884 21.5002 47.884 21.5002 47.884L21.5002 47.884L23.0313 48.768V47C23.0313 46.4477 23.479 46 24.0313 46C24.5836 46 25.0313 46.4477 25.0313 47Z" fill="#E2E8F0"/>
</g>
<g style="mix-blend-mode:color">
<path fill-rule="evenodd" clip-rule="evenodd" d="M25.0313 47V48.768L26.5624 47.884C27.0407 47.6079 27.6522 47.7718 27.9284 48.2501C28.2045 48.7284 28.0407 49.3399 27.5624 49.6161L27.561 49.6169L26.0313 50.5001L27.5612 51.3833C27.5616 51.3836 27.562 51.3838 27.5624 51.384C28.0407 51.6602 28.2045 52.2718 27.9284 52.7501C27.6522 53.2284 27.0407 53.3922 26.5624 53.1161L25.0313 52.2321V54C25.0313 54.5523 24.5836 55 24.0313 55C23.479 55 23.0313 54.5523 23.0313 54V52.2321L21.5002 53.1161L21.5002 53.1161L21.5002 53.1161C21.0219 53.3922 20.4103 53.2284 20.1341 52.7501C19.858 52.2718 20.0219 51.6602 20.5002 51.384L20.5035 51.3821L22.0313 50.5001L20.5036 49.6181C20.5025 49.6174 20.5013 49.6167 20.5002 49.6161C20.0219 49.3399 19.858 48.7284 20.1341 48.2501C20.4103 47.7718 21.0219 47.6079 21.5002 47.884C21.5002 47.884 21.5002 47.884 21.5002 47.884L21.5002 47.884L23.0313 48.768V47C23.0313 46.4477 23.479 46 24.0313 46C24.5836 46 25.0313 46.4477 25.0313 47Z" fill="#BFDBFE"/>
</g>
<circle cx="24.0342" cy="47.05" r="0.75" fill="url(#paint7_linear_4_34838)"/>
<circle cx="21.0342" cy="48.75" r="0.75" fill="url(#paint8_linear_4_34838)"/>
<circle cx="21.0342" cy="52.25" r="0.75" fill="url(#paint9_linear_4_34838)"/>
<circle cx="27.0342" cy="48.75" r="0.75" fill="url(#paint10_linear_4_34838)"/>
<circle cx="27.0342" cy="52.25" r="0.75" fill="url(#paint11_linear_4_34838)"/>
<g filter="url(#filter12_dii_4_34838)">
<path fill-rule="evenodd" clip-rule="evenodd" d="M30 42C30 42 31.6949 42.5 32.5 42.5C33.3051 42.5 35 42 35 42L33.6442 44.5273C33.2868 45.1935 33.7694 46.0001 34.5254 46.0001H34.8635C35.699 46.0001 36.1661 46.9639 35.6484 47.6197L29.4271 55.5L31.4883 49.3163C31.7042 48.6687 31.2222 48 30.5396 48L29.3874 48.0001C28.7049 48.0001 28.2229 47.3314 28.4387 46.6838L30 42Z" fill="#FCD34D"/>
</g>
<g filter="url(#filter13_f_4_34838)">
<path d="M32 40C24.9123 40 18 42.0335 18 43H46C46 42.0335 39.0877 40 32 40Z" fill="url(#paint12_radial_4_34838)"/>
</g>
<defs>
<filter id="filter0_f_4_34838" x="11" y="40" width="40" height="15" filterUnits="userSpaceOnUse" color-interpolation-filters="sRGB">
<feFlood flood-opacity="0" result="BackgroundImageFix"/>
<feBlend mode="normal" in="SourceGraphic" in2="BackgroundImageFix" result="shape"/>
<feGaussianBlur stdDeviation="1" result="effect1_foregroundBlur_4_34838"/>
</filter>
<filter id="filter1_d_4_34838" x="5" y="11" width="54" height="38" filterUnits="userSpaceOnUse" color-interpolation-filters="sRGB">
<feFlood flood-opacity="0" result="BackgroundImageFix"/>
<feColorMatrix in="SourceAlpha" type="matrix" values="0 0 0 0 0 0 0 0 0 0 0 0 0 0 0 0 0 0 127 0" result="hardAlpha"/>
<feOffset dy="2"/>
<feGaussianBlur stdDeviation="2"/>
<feComposite in2="hardAlpha" operator="out"/>
<feColorMatrix type="matrix" values="0 0 0 0 0.278431 0 0 0 0 0.333333 0 0 0 0 0.411765 0 0 0 0.4 0"/>
<feBlend mode="normal" in2="BackgroundImageFix" result="effect1_dropShadow_4_34838"/>
<feBlend mode="normal" in="SourceGraphic" in2="effect1_dropShadow_4_34838" result="shape"/>
</filter>
<filter id="filter2_ii_4_34838" x="9" y="23" width="46" height="22" filterUnits="userSpaceOnUse" color-interpolation-filters="sRGB">
<feFlood flood-opacity="0" result="BackgroundImageFix"/>
<feBlend mode="normal" in="SourceGraphic" in2="BackgroundImageFix" result="shape"/>
<feColorMatrix in="SourceAlpha" type="matrix" values="0 0 0 0 0 0 0 0 0 0 0 0 0 0 0 0 0 0 127 0" result="hardAlpha"/>
<feOffset dy="2"/>
<feGaussianBlur stdDeviation="1"/>
<feComposite in2="hardAlpha" operator="arithmetic" k2="-1" k3="1"/>
<feColorMatrix type="matrix" values="0 0 0 0 0.796078 0 0 0 0 0.835294 0 0 0 0 0.882353 0 0 0 1 0"/>
<feBlend mode="normal" in2="shape" result="effect1_innerShadow_4_34838"/>
<feColorMatrix in="SourceAlpha" type="matrix" values="0 0 0 0 0 0 0 0 0 0 0 0 0 0 0 0 0 0 127 0" result="hardAlpha"/>
<feOffset dy="-2"/>
<feGaussianBlur stdDeviation="1"/>
<feComposite in2="hardAlpha" operator="arithmetic" k2="-1" k3="1"/>
<feColorMatrix type="matrix" values="0 0 0 0 0.796078 0 0 0 0 0.835294 0 0 0 0 0.882353 0 0 0 0.6 0"/>
<feBlend mode="normal" in2="effect1_innerShadow_4_34838" result="effect2_innerShadow_4_34838"/>
</filter>
<filter id="filter3_f_4_34838" x="9" y="29" width="14" height="14" filterUnits="userSpaceOnUse" color-interpolation-filters="sRGB">
<feFlood flood-opacity="0" result="BackgroundImageFix"/>
<feBlend mode="normal" in="SourceGraphic" in2="BackgroundImageFix" result="shape"/>
<feGaussianBlur stdDeviation="1" result="effect1_foregroundBlur_4_34838"/>
</filter>
<filter id="filter4_i_4_34838" x="15" y="21" width="16" height="18" filterUnits="userSpaceOnUse" color-interpolation-filters="sRGB">
<feFlood flood-opacity="0" result="BackgroundImageFix"/>
<feBlend mode="normal" in="SourceGraphic" in2="BackgroundImageFix" result="shape"/>
<feColorMatrix in="SourceAlpha" type="matrix" values="0 0 0 0 0 0 0 0 0 0 0 0 0 0 0 0 0 0 127 0" result="hardAlpha"/>
<feOffset dy="2"/>
<feGaussianBlur stdDeviation="1"/>
<feComposite in2="hardAlpha" operator="arithmetic" k2="-1" k3="1"/>
<feColorMatrix type="matrix" values="0 0 0 0 0.796078 0 0 0 0 0.835294 0 0 0 0 0.882353 0 0 0 1 0"/>
<feBlend mode="normal" in2="shape" result="effect1_innerShadow_4_34838"/>
</filter>
<filter id="filter5_f_4_34838" x="15" y="21" width="16" height="14" filterUnits="userSpaceOnUse" color-interpolation-filters="sRGB">
<feFlood flood-opacity="0" result="BackgroundImageFix"/>
<feBlend mode="normal" in="SourceGraphic" in2="BackgroundImageFix" result="shape"/>
<feGaussianBlur stdDeviation="1" result="effect1_foregroundBlur_4_34838"/>
</filter>
<filter id="filter6_f_4_34838" x="40" y="26" width="14" height="14" filterUnits="userSpaceOnUse" color-interpolation-filters="sRGB">
<feFlood flood-opacity="0" result="BackgroundImageFix"/>
<feBlend mode="normal" in="SourceGraphic" in2="BackgroundImageFix" result="shape"/>
<feGaussianBlur stdDeviation="1" result="effect1_foregroundBlur_4_34838"/>
</filter>
<filter id="filter7_i_4_34838" x="24" y="13" width="25" height="27" filterUnits="userSpaceOnUse" color-interpolation-filters="sRGB">
<feFlood flood-opacity="0" result="BackgroundImageFix"/>
<feBlend mode="normal" in="SourceGraphic" in2="BackgroundImageFix" result="shape"/>
<feColorMatrix in="SourceAlpha" type="matrix" values="0 0 0 0 0 0 0 0 0 0 0 0 0 0 0 0 0 0 127 0" result="hardAlpha"/>
<feOffset dy="2"/>
<feGaussianBlur stdDeviation="1"/>
<feComposite in2="hardAlpha" operator="arithmetic" k2="-1" k3="1"/>
<feColorMatrix type="matrix" values="0 0 0 0 0.796078 0 0 0 0 0.835294 0 0 0 0 0.882353 0 0 0 1 0"/>
<feBlend mode="normal" in2="shape" result="effect1_innerShadow_4_34838"/>
</filter>
<filter id="filter8_f_4_34838" x="27" y="13" width="18" height="14" filterUnits="userSpaceOnUse" color-interpolation-filters="sRGB">
<feFlood flood-opacity="0" result="BackgroundImageFix"/>
<feBlend mode="normal" in="SourceGraphic" in2="BackgroundImageFix" result="shape"/>
<feGaussianBlur stdDeviation="1" result="effect1_foregroundBlur_4_34838"/>
</filter>
<filter id="filter9_i_4_34838" x="23" y="27" width="18" height="15" filterUnits="userSpaceOnUse" color-interpolation-filters="sRGB">
<feFlood flood-opacity="0" result="BackgroundImageFix"/>
<feBlend mode="normal" in="SourceGraphic" in2="BackgroundImageFix" result="shape"/>
<feColorMatrix in="SourceAlpha" type="matrix" values="0 0 0 0 0 0 0 0 0 0 0 0 0 0 0 0 0 0 127 0" result="hardAlpha"/>
<feOffset dy="2"/>
<feGaussianBlur stdDeviation="1"/>
<feComposite in2="hardAlpha" operator="arithmetic" k2="-1" k3="1"/>
<feColorMatrix type="matrix" values="0 0 0 0 0.796078 0 0 0 0 0.835294 0 0 0 0 0.882353 0 0 0 0.6 0"/>
<feBlend mode="normal" in2="shape" result="effect1_innerShadow_4_34838"/>
</filter>
<filter id="filter10_f_4_34838" x="23" y="27" width="18" height="13" filterUnits="userSpaceOnUse" color-interpolation-filters="sRGB">
<feFlood flood-opacity="0" result="BackgroundImageFix"/>
<feBlend mode="normal" in="SourceGraphic" in2="BackgroundImageFix" result="shape"/>
<feGaussianBlur stdDeviation="1" result="effect1_foregroundBlur_4_34838"/>
</filter>
<filter id="filter11_dii_4_34838" x="17" y="44" width="14.0625" height="15" filterUnits="userSpaceOnUse" color-interpolation-filters="sRGB">
<feFlood flood-opacity="0" result="BackgroundImageFix"/>
<feColorMatrix in="SourceAlpha" type="matrix" values="0 0 0 0 0 0 0 0 0 0 0 0 0 0 0 0 0 0 127 0" result="hardAlpha"/>
<feOffset dy="1"/>
<feGaussianBlur stdDeviation="1.5"/>
<feComposite in2="hardAlpha" operator="out"/>
<feColorMatrix type="matrix" values="0 0 0 0 0.278431 0 0 0 0 0.333333 0 0 0 0 0.411765 0 0 0 0.3 0"/>
<feBlend mode="normal" in2="BackgroundImageFix" result="effect1_dropShadow_4_34838"/>
<feBlend mode="normal" in="SourceGraphic" in2="effect1_dropShadow_4_34838" result="shape"/>
<feColorMatrix in="SourceAlpha" type="matrix" values="0 0 0 0 0 0 0 0 0 0 0 0 0 0 0 0 0 0 127 0" result="hardAlpha"/>
<feOffset dy="0.5"/>
<feGaussianBlur stdDeviation="0.25"/>
<feComposite in2="hardAlpha" operator="arithmetic" k2="-1" k3="1"/>
<feColorMatrix type="matrix" values="0 0 0 0 0.580392 0 0 0 0 0.639216 0 0 0 0 0.721569 0 0 0 1 0"/>
<feBlend mode="normal" in2="shape" result="effect2_innerShadow_4_34838"/>
<feColorMatrix in="SourceAlpha" type="matrix" values="0 0 0 0 0 0 0 0 0 0 0 0 0 0 0 0 0 0 127 0" result="hardAlpha"/>
<feOffset dy="-0.5"/>
<feGaussianBlur stdDeviation="0.25"/>
<feComposite in2="hardAlpha" operator="arithmetic" k2="-1" k3="1"/>
<feColorMatrix type="matrix" values="0 0 0 0 0.580392 0 0 0 0 0.639216 0 0 0 0 0.721569 0 0 0 1 0"/>
<feBlend mode="normal" in2="effect2_innerShadow_4_34838" result="effect3_innerShadow_4_34838"/>
</filter>
<filter id="filter12_dii_4_34838" x="26.3867" y="40" width="11.4786" height="17.5" filterUnits="userSpaceOnUse" color-interpolation-filters="sRGB">
<feFlood flood-opacity="0" result="BackgroundImageFix"/>
<feColorMatrix in="SourceAlpha" type="matrix" values="0 0 0 0 0 0 0 0 0 0 0 0 0 0 0 0 0 0 127 0" result="hardAlpha"/>
<feOffset/>
<feGaussianBlur stdDeviation="1"/>
<feComposite in2="hardAlpha" operator="out"/>
<feColorMatrix type="matrix" values="0 0 0 0 0.988235 0 0 0 0 0.827451 0 0 0 0 0.301961 0 0 0 1 0"/>
<feBlend mode="normal" in2="BackgroundImageFix" result="effect1_dropShadow_4_34838"/>
<feBlend mode="normal" in="SourceGraphic" in2="effect1_dropShadow_4_34838" result="shape"/>
<feColorMatrix in="SourceAlpha" type="matrix" values="0 0 0 0 0 0 0 0 0 0 0 0 0 0 0 0 0 0 127 0" result="hardAlpha"/>
<feOffset dy="4"/>
<feGaussianBlur stdDeviation="1"/>
<feComposite in2="hardAlpha" operator="arithmetic" k2="-1" k3="1"/>
<feColorMatrix type="matrix" values="0 0 0 0 1 0 0 0 0 0.9575 0 0 0 0 0.7875 0 0 0 1 0"/>
<feBlend mode="normal" in2="shape" result="effect2_innerShadow_4_34838"/>
<feColorMatrix in="SourceAlpha" type="matrix" values="0 0 0 0 0 0 0 0 0 0 0 0 0 0 0 0 0 0 127 0" result="hardAlpha"/>
<feOffset/>
<feGaussianBlur stdDeviation="0.5"/>
<feComposite in2="hardAlpha" operator="arithmetic" k2="-1" k3="1"/>
<feColorMatrix type="matrix" values="0 0 0 0 0.960784 0 0 0 0 0.619608 0 0 0 0 0.0431373 0 0 0 1 0"/>
<feBlend mode="normal" in2="effect2_innerShadow_4_34838" result="effect3_innerShadow_4_34838"/>
</filter>
<filter id="filter13_f_4_34838" x="16" y="38" width="32" height="7" filterUnits="userSpaceOnUse" color-interpolation-filters="sRGB">
<feFlood flood-opacity="0" result="BackgroundImageFix"/>
<feBlend mode="normal" in="SourceGraphic" in2="BackgroundImageFix" result="shape"/>
<feGaussianBlur stdDeviation="1" result="effect1_foregroundBlur_4_34838"/>
</filter>
<linearGradient id="paint0_linear_4_34838" x1="31" y1="42" x2="31" y2="53" gradientUnits="userSpaceOnUse">
<stop stop-color="#94A3B8"/>
<stop offset="1" stop-color="#94A3B8" stop-opacity="0"/>
</linearGradient>
<linearGradient id="paint1_linear_4_34838" x1="16" y1="31" x2="16" y2="41" gradientUnits="userSpaceOnUse">
<stop stop-color="white"/>
<stop offset="1" stop-color="#F3F3F3" stop-opacity="0.2"/>
</linearGradient>
<linearGradient id="paint2_linear_4_34838" x1="23" y1="23" x2="23" y2="33" gradientUnits="userSpaceOnUse">
<stop stop-color="white"/>
<stop offset="1" stop-color="#F3F3F3" stop-opacity="0.2"/>
</linearGradient>
<linearGradient id="paint3_linear_4_34838" x1="47" y1="28" x2="47" y2="38" gradientUnits="userSpaceOnUse">
<stop stop-color="white"/>
<stop offset="1" stop-color="#F3F3F3" stop-opacity="0.2"/>
</linearGradient>
<linearGradient id="paint4_linear_4_34838" x1="36" y1="15" x2="36" y2="25" gradientUnits="userSpaceOnUse">
<stop stop-color="white"/>
<stop offset="1" stop-color="#F3F3F3" stop-opacity="0.2"/>
</linearGradient>
<linearGradient id="paint5_linear_4_34838" x1="32" y1="27" x2="32" y2="40" gradientUnits="userSpaceOnUse">
<stop stop-color="#F1F5F9"/>
<stop offset="0.650321" stop-color="#F1F5F9" stop-opacity="0"/>
</linearGradient>
<linearGradient id="paint6_linear_4_34838" x1="32" y1="29" x2="32" y2="38" gradientUnits="userSpaceOnUse">
<stop stop-color="white"/>
<stop offset="1" stop-color="#F3F3F3" stop-opacity="0.2"/>
</linearGradient>
<linearGradient id="paint7_linear_4_34838" x1="24.0342" y1="46.3" x2="24.0342" y2="47.8" gradientUnits="userSpaceOnUse">
<stop stop-color="#E2E8F0"/>
<stop offset="1" stop-color="#E2E8F0" stop-opacity="0"/>
</linearGradient>
<linearGradient id="paint8_linear_4_34838" x1="21.0342" y1="48" x2="21.0342" y2="49.5" gradientUnits="userSpaceOnUse">
<stop stop-color="#E2E8F0"/>
<stop offset="1" stop-color="#E2E8F0" stop-opacity="0"/>
</linearGradient>
<linearGradient id="paint9_linear_4_34838" x1="21.0342" y1="51.5" x2="21.0342" y2="53" gradientUnits="userSpaceOnUse">
<stop stop-color="#E2E8F0"/>
<stop offset="1" stop-color="#E2E8F0" stop-opacity="0"/>
</linearGradient>
<linearGradient id="paint10_linear_4_34838" x1="27.0342" y1="48" x2="27.0342" y2="49.5" gradientUnits="userSpaceOnUse">
<stop stop-color="#E2E8F0"/>
<stop offset="1" stop-color="#E2E8F0" stop-opacity="0"/>
</linearGradient>
<linearGradient id="paint11_linear_4_34838" x1="27.0342" y1="51.5" x2="27.0342" y2="53" gradientUnits="userSpaceOnUse">
<stop stop-color="#E2E8F0"/>
<stop offset="1" stop-color="#E2E8F0" stop-opacity="0"/>
</linearGradient>
<radialGradient id="paint12_radial_4_34838" cx="0" cy="0" r="1" gradientUnits="userSpaceOnUse" gradientTransform="translate(32 43.5) rotate(-90) scale(6 13.44)">
<stop offset="0.28125" stop-color="#FEF08A"/>
<stop offset="1" stop-color="#FEF08A" stop-opacity="0"/>
</radialGradient>
</defs>
</svg>
